<svg width="15" height="25" viewBox="0 0 15 25" fill="none" xmlns="http://www.w3.org/2000/svg">
<g id="Group">
<g id="Group_2">
<path id="Vector" d="M4.0222 16.9175L6.11167 19.007L4.30596 23.8824C4.09959 24.4241 3.58367 24.7595 3.04196 24.7595C2.88718 24.7595 2.73241 24.7337 2.57763 24.6821C1.88115 24.4241 1.52 23.6503 1.77796 22.9538L4.0222 16.9175Z" fill="#22272B"/>
<path id="Vector_2" d="M0.126532 11.5778L1.36473 9.20453C1.70008 8.58543 2.1902 8.06951 2.78351 7.70837C5.64685 6.00584 6.00799 6.03164 6.36913 6.05744L8.30382 6.18641C8.89713 6.21221 9.30986 6.36699 11.2961 9.28192C11.3735 9.3851 11.4767 9.46249 11.6315 9.48829L14.0047 9.84943C14.6496 9.95261 15.0881 10.5459 14.985 11.1908C14.8818 11.8357 14.2885 12.2742 13.6436 12.1711L11.2704 11.8099C10.4965 11.6809 9.79999 11.2682 9.36146 10.6233C9.25827 10.4685 9.18088 10.3396 9.0777 10.2106L7.55574 15.0344L9.67101 17.1497C9.98056 17.4592 10.2385 17.8719 10.3933 18.2847L12.0184 23.0311C12.2764 23.7276 11.8895 24.5015 11.193 24.7337C11.0382 24.7852 10.9092 24.811 10.7544 24.811C10.1869 24.811 9.67101 24.4499 9.46464 23.9082L7.8395 19.1617C7.8137 19.1102 7.78791 19.0844 7.76211 19.0328L3.99591 15.2408C3.4542 14.6991 3.24783 13.951 3.40261 13.2287L4.22808 9.56568C4.15069 9.61727 4.0733 9.66886 3.97012 9.72045C3.73795 9.84943 3.55738 10.0558 3.4284 10.288L2.1902 12.6612C1.98383 13.0481 1.5711 13.2803 1.15837 13.2803C0.977796 13.2803 0.797224 13.2287 0.616653 13.1513C0.0491438 12.8418 -0.157223 12.1453 0.126532 11.5778Z" fill="#22272B"/>
<path id="Vector_3" d="M10.3235 3.1538C10.4792 1.72338 9.44581 0.437576 8.01539 0.281885C6.58497 0.126195 5.29917 1.15957 5.14347 2.58999C4.98778 4.02042 6.02116 5.30622 7.45158 5.46191C8.88201 5.6176 10.1678 4.58422 10.3235 3.1538Z" fill="#22272B"/>
</g>
</g>
</svg>
