<svg width="17" height="12" viewBox="0 0 17 12" fill="none" xmlns="http://www.w3.org/2000/svg">
<path d="M16.83 6.59459C16.8583 6.56757 16.8583 6.54054 16.8583 6.51351C16.8867 6.48649 16.915 6.43243 16.915 6.40541C16.915 6.37838 16.9433 6.35135 16.9433 6.2973C16.9433 6.27027 16.9717 6.21622 16.9717 6.18919C16.9717 6.13514 17 6.08108 17 6.02703C17 6 17 6 17 5.97297C17 5.94595 17 5.94595 17 5.91892C17 5.86486 17 5.81081 16.9717 5.75676C16.9717 5.7027 16.9433 5.67568 16.9433 5.64865C16.9433 5.62162 16.915 5.59459 16.915 5.56757C16.8867 5.51351 16.8583 5.48649 16.83 5.43243C16.83 5.4054 16.8017 5.40541 16.8017 5.37838C16.745 5.32432 16.7167 5.27027 16.66 5.21622L11.5317 0.324324C11.0783 -0.108108 10.37 -0.108108 9.91667 0.324324C9.46333 0.756757 9.46333 1.43243 9.91667 1.86486L13.1183 4.91892H1.13333C0.51 4.91892 0 5.40541 0 6C0 6.59459 0.51 7.08108 1.13333 7.08108H13.1183L9.91667 10.1351C9.46333 10.5676 9.46333 11.2432 9.91667 11.6757C10.1433 11.8919 10.4267 12 10.71 12C10.9933 12 11.2767 11.8919 11.5033 11.6757L16.66 6.75676C16.7167 6.7027 16.7733 6.64865 16.83 6.59459Z" fill="#22272B"/>
</svg>
