<svg width="17" height="12" viewBox="0 0 17 12" fill="none" xmlns="http://www.w3.org/2000/svg">
<path id="Vector" d="M0.170001 5.4054C0.141667 5.43243 0.141667 5.45946 0.141667 5.48649C0.113333 5.51351 0.0850016 5.56757 0.0850016 5.59459C0.0850015 5.62162 0.0566679 5.64865 0.0566679 5.7027C0.0566679 5.72973 0.0283342 5.78378 0.0283342 5.81081C0.0283342 5.86486 5.31625e-07 5.91892 5.26899e-07 5.97297C5.24537e-07 6 5.24537e-07 6 5.22174e-07 6.02703C5.19811e-07 6.05405 5.19811e-07 6.05405 5.17448e-07 6.08108C5.12723e-07 6.13513 5.07997e-07 6.18919 0.0283342 6.24324C0.0283342 6.2973 0.0566678 6.32432 0.0566678 6.35135C0.0566678 6.37838 0.0850015 6.4054 0.0850015 6.43243C0.113335 6.48649 0.141667 6.51351 0.170001 6.56757C0.170001 6.59459 0.198336 6.59459 0.198336 6.62162C0.255002 6.67567 0.283335 6.72973 0.340003 6.78378L5.46833 11.6757C5.92167 12.1081 6.63 12.1081 7.08333 11.6757C7.53667 11.2432 7.53667 10.5676 7.08333 10.1351L3.88167 7.08108L15.8667 7.08108C16.49 7.08108 17 6.59459 17 6C17 5.40541 16.49 4.91892 15.8667 4.91892L3.88167 4.91892L7.08333 1.86486C7.53667 1.43243 7.53667 0.756757 7.08333 0.324325C6.85667 0.108109 6.57333 -9.11528e-07 6.29 -9.36298e-07C6.00667 -9.61068e-07 5.72334 0.108108 5.49667 0.324325L0.340003 5.24324C0.283335 5.2973 0.226666 5.35135 0.170001 5.4054Z" fill="#22272B"/>
</svg>
