<svg width="52" height="52" viewBox="0 0 52 52" fill="none" xmlns="http://www.w3.org/2000/svg">
<g id="Bus Icon" filter="url(#filter0_d_852_2207)">
<g id="g4610">
<path id="path4614" d="M24.2958 46.0129C21.6003 45.7736 18.9915 45.0465 16.6942 43.8949C6.177 38.6225 1.96521 26.0045 7.23485 15.5558C8.29858 13.4466 9.37724 11.9711 11.1592 10.1877C12.9413 8.40434 14.4156 7.3249 16.5231 6.26036C25.6182 1.66625 36.5969 4.22333 42.7703 12.3736C44.812 15.0692 46.1944 18.3003 46.7456 21.6655C46.9391 22.8459 46.9863 23.5012 46.9867 25.0035C46.9872 26.5119 46.9341 27.2584 46.746 28.4011C45.7543 34.4203 42.2905 39.5991 37.0263 42.933C36.2186 43.4445 34.343 44.3726 33.4084 44.7233C31.8285 45.316 30.2054 45.7102 28.4351 45.9311C27.5571 46.0404 25.1441 46.0883 24.2958 46.0129ZM29.5617 38.0941C33.2701 37.4092 35.4845 35.3471 35.9378 32.1563C36.0144 31.6174 36.0141 30.1885 35.9373 29.6528C35.6058 27.3399 34.3063 25.6843 32.2813 24.9949C32.0545 24.9175 31.82 24.8546 31.7602 24.8546C31.5565 24.8546 31.6541 24.7654 32.0533 24.5867C33.5619 23.9117 34.6282 22.5975 35.0592 20.882C35.1749 20.4212 35.192 20.195 35.1936 19.1024C35.1947 18.2812 35.1684 17.7276 35.1168 17.493C34.5176 14.7617 32.7063 13.171 29.5073 12.5668C28.8421 12.441 28.6633 12.4368 23.2981 12.4136L17.7739 12.3907V25.3324V38.274L23.2981 38.2512C28.7557 38.2321 28.8313 38.229 29.5617 38.0941ZM22.8812 33.7627C22.8565 33.7361 22.8366 32.2166 22.8366 30.3841V27.0522L25.5019 27.075C27.8389 27.0941 28.2149 27.1093 28.5544 27.205C30.1601 27.6497 30.8894 28.6433 30.8981 30.3981C30.9034 31.5058 30.6566 32.2249 30.0851 32.7659C29.5688 33.2545 29.026 33.4812 27.9588 33.6538C27.3366 33.7544 22.9629 33.8485 22.8812 33.7627ZM22.8366 19.8513V16.7479L24.9063 16.7491C26.0446 16.7497 27.1636 16.7758 27.3929 16.8097C29.0494 17.0463 29.9032 17.6706 30.1615 18.834C30.2076 19.0421 30.2252 19.4666 30.2096 19.9963C30.1894 20.6843 30.1612 20.8914 30.0495 21.1756C29.8464 21.6928 29.3692 22.1765 28.7708 22.4716C27.9431 22.8799 27.7497 22.9043 25.1445 22.9309L22.8365 22.9538L22.8366 19.8513Z" fill="#00A6E5"/>
<path id="path4612" d="M23.7884 49.9687C20.5617 49.6482 17.6769 48.8255 14.8841 47.4296C8.87369 44.4257 4.34744 39.1903 2.2356 32.7995C-0.0991234 25.7343 0.911677 17.8308 4.95555 11.5323C6.54241 9.06071 8.6705 6.76862 11.0127 5.0084C14.1307 2.66508 17.8084 1.05875 21.5847 0.390746C24.2091 -0.0735195 26.9815 -0.125356 29.536 0.242108C36.5891 1.25643 42.8693 5.22113 46.8068 11.145C49.0143 14.4663 50.2887 17.8695 50.8352 21.903C51.0127 23.2118 51.0553 25.8913 50.9213 27.2985C50.4435 32.3147 48.6328 36.768 45.4441 40.7696C44.6571 41.7573 42.6638 43.7456 41.6566 44.5479C40.7895 45.2384 39.1604 46.3462 38.2842 46.8409C35.8404 48.2208 32.9946 49.2316 30.2196 49.7055C28.7833 49.951 27.9301 50.0089 25.9203 49.999C24.8624 49.9951 23.9031 49.9801 23.7884 49.9687ZM28.4341 45.9311C30.9741 45.6144 32.9951 45.0114 35.2538 43.8967C37.5101 42.7832 39.2571 41.5112 41.0324 39.6892C44.3762 36.2574 46.342 32.0831 46.9098 27.2089C47.0092 26.3545 47.0088 23.6462 46.9088 22.8278C46.4733 19.2606 45.3626 16.1974 43.4831 13.3801C42.2443 11.5232 40.646 9.80255 38.8872 8.43247C32.456 3.42262 23.8036 2.58229 16.522 6.26036C14.4145 7.32491 12.9401 8.40435 11.1581 10.1877C9.37613 11.9711 8.29746 13.4466 7.23374 15.5558C2.74208 24.4619 5.09765 35.2561 12.8888 41.47C16.1721 44.0886 20.0583 45.6364 24.2947 46.0129C25.143 46.0884 27.5561 46.0397 28.4341 45.9311ZM17.7728 25.331V12.3894L23.297 12.4122C28.6622 12.4351 28.841 12.439 29.5062 12.5655C32.7052 13.1697 34.5166 14.7603 35.1158 17.4917C35.1673 17.7265 35.1936 18.2798 35.1925 19.1011C35.1909 20.1937 35.1738 20.4199 35.0581 20.8807C34.6271 22.5962 33.5608 23.9104 32.0522 24.5854C31.653 24.7641 31.5554 24.8533 31.7591 24.8533C31.8189 24.8533 32.0534 24.9165 32.2803 24.9935C34.3052 25.683 35.6047 27.3386 35.9362 29.6515C36.0129 30.1872 36.0132 31.6161 35.9367 32.1549C35.6024 34.5081 34.2664 36.2944 32.0614 37.3361C31.3793 37.6585 30.5435 37.9113 29.5606 38.0928C28.8302 38.2277 28.7546 38.2296 23.297 38.2505L17.7728 38.2734L17.7728 25.331ZM27.9576 33.6535C29.0249 33.4809 29.5677 33.2543 30.084 32.7656C30.6555 32.2246 30.9025 31.5055 30.897 30.3979C30.8882 28.6431 30.159 27.6493 28.5532 27.2047C28.2138 27.1105 27.8378 27.0946 25.5008 27.0747L22.8354 27.0519V30.3838C22.8354 32.2163 22.8556 33.7367 22.8801 33.7624C22.9618 33.8478 27.3355 33.7549 27.9576 33.6535ZM27.8683 22.8092C28.5383 22.651 29.2001 22.2913 29.5836 21.8767C30.072 21.3488 30.178 21.0298 30.2085 19.9965C30.2241 19.4668 30.2066 19.0423 30.1604 18.8341C29.9021 17.6708 29.0483 17.0465 27.3918 16.8099C27.1625 16.7756 26.0435 16.7496 24.9052 16.7493L22.8354 16.7481V19.8515V22.9548L25.1434 22.9319C27.0193 22.9129 27.5294 22.8892 27.8683 22.8092Z" fill="white"/>
</g>
</g>
<defs>
<filter id="filter0_d_852_2207" x="0" y="0" width="52" height="52" filterUnits="userSpaceOnUse" color-interpolation-filters="sRGB">
<feFlood flood-opacity="0" result="BackgroundImageFix"/>
<feColorMatrix in="SourceAlpha" type="matrix" values="0 0 0 0 0 0 0 0 0 0 0 0 0 0 0 0 0 0 127 0" result="hardAlpha"/>
<feOffset dy="1"/>
<feGaussianBlur stdDeviation="0.5"/>
<feComposite in2="hardAlpha" operator="out"/>
<feColorMatrix type="matrix" values="0 0 0 0 0 0 0 0 0 0 0 0 0 0 0 0 0 0 0.25 0"/>
<feBlend mode="normal" in2="BackgroundImageFix" result="effect1_dropShadow_852_2207"/>
<feBlend mode="normal" in="SourceGraphic" in2="effect1_dropShadow_852_2207" result="shape"/>
</filter>
</defs>
</svg>
