<svg width="52" height="52" viewBox="0 0 52 52" fill="none" xmlns="http://www.w3.org/2000/svg">
<g id="Cycling Icon">
<g id="Ellipse 11" filter="url(#filter0_d_821_2902)">
<circle cx="26" cy="25" r="25" fill="#22272B"/>
<circle cx="26" cy="25" r="23" stroke="white" stroke-width="4"/>
</g>
<path id="Vector" d="M28.071 18.583C29.061 18.583 29.865 17.784 29.865 16.794C29.865 15.805 29.061 15 28.071 15C27.083 15 26.277 15.805 26.277 16.794C26.279 17.783 27.083 18.583 28.071 18.583ZM28.148 22.933H31.612C32.685 22.933 32.685 21.531 31.612 21.531L28.621 21.537L26.652 18.451C26.652 18.451 26.235 17.758 25.442 17.758C25.442 17.758 24.784 17.673 24.317 18.205L20.525 22.003C20.28 22.267 20.141 22.621 20.141 23.007C20.141 23.567 20.453 24.062 20.913 24.317L24.774 26.463V30.501C24.774 31.071 25.234 31.537 25.806 31.537C26.378 31.537 26.842 31.071 26.842 30.501V25.457C26.842 25.457 26.978 24.652 26.062 24.213L23.835 23.041L26.237 20.662L27.401 22.485C27.605 22.808 27.887 22.94 28.148 22.933ZM32.919 24.973C30.22 24.973 28.028 27.157 28.028 29.859C28.028 32.563 30.221 34.748 32.919 34.748C35.614 34.748 37.804 32.562 37.804 29.859C37.804 27.156 35.614 24.973 32.919 24.973ZM32.916 33.414C30.954 33.414 29.362 31.824 29.362 29.859C29.362 27.897 30.953 26.306 32.916 26.306C34.876 26.306 36.471 27.897 36.471 29.859C36.471 31.824 34.877 33.414 32.916 33.414ZM18.885 24.973C16.192 24.973 14 27.158 14 29.859C14 32.562 16.192 34.748 18.885 34.748C21.588 34.748 23.775 32.562 23.775 29.859C23.776 27.158 21.586 24.973 18.885 24.973ZM18.885 33.414C16.926 33.414 15.333 31.822 15.335 29.859C15.335 27.899 16.927 26.307 18.885 26.307C20.849 26.307 22.443 27.899 22.443 29.859C22.443 31.823 20.849 33.414 18.885 33.414Z" fill="white"/>
</g>
<defs>
<filter id="filter0_d_821_2902" x="0" y="0" width="52" height="52" filterUnits="userSpaceOnUse" color-interpolation-filters="sRGB">
<feFlood flood-opacity="0" result="BackgroundImageFix"/>
<feColorMatrix in="SourceAlpha" type="matrix" values="0 0 0 0 0 0 0 0 0 0 0 0 0 0 0 0 0 0 127 0" result="hardAlpha"/>
<feOffset dy="1"/>
<feGaussianBlur stdDeviation="0.5"/>
<feComposite in2="hardAlpha" operator="out"/>
<feColorMatrix type="matrix" values="0 0 0 0 0 0 0 0 0 0 0 0 0 0 0 0 0 0 0.25 0"/>
<feBlend mode="normal" in2="BackgroundImageFix" result="effect1_dropShadow_821_2902"/>
<feBlend mode="normal" in="SourceGraphic" in2="effect1_dropShadow_821_2902" result="shape"/>
</filter>
</defs>
</svg>
