<svg width="52" height="52" viewBox="0 0 52 52" fill="none" xmlns="http://www.w3.org/2000/svg">
<g id="Ferry Icon" filter="url(#filter0_d_821_2426)">
<path id="path38" d="M24.2034 46.1318C22.9153 46.0187 21.3566 45.7392 20.3913 45.4489C17.4745 44.571 15.6593 43.6845 13.4966 42.0815C13.1935 41.8568 12.9284 41.6729 12.9075 41.6729C12.82 41.6729 11.9691 40.935 11.2252 40.2142C10.4406 39.4539 9.44976 38.3573 9.30757 38.0918C9.26968 38.0177 9.09626 37.7682 8.9262 37.5375C7.1395 35.1127 5.94699 32.5343 5.29029 29.6759C4.88619 27.917 4.76004 26.5764 4.80285 24.4961C4.84747 22.335 5.06551 20.9163 5.65158 18.9754C6.37504 16.5799 7.46655 14.4199 8.96378 12.421C9.1553 12.1652 9.31232 11.9404 9.31232 11.9215C9.31232 11.8361 10.0607 10.9728 10.7407 10.2735C11.4697 9.52378 12.7084 8.40965 12.8862 8.34376C12.9354 8.32693 13.1227 8.19904 13.3033 8.0623C13.8904 7.61726 15.3273 6.67119 15.8419 6.3908C19.995 4.12794 24.8294 3.32291 29.5345 4.11086C32.2495 4.56552 35.2107 5.7268 37.3939 7.193C37.8542 7.50226 38.3783 7.8673 38.5585 8.00439C38.7387 8.14155 38.9529 8.28842 39.0351 8.33092C39.4832 8.56359 41.2756 10.2638 42.0883 11.2272C42.4907 11.7042 42.5781 11.8247 43.4726 13.1371C43.7348 13.5216 43.9795 13.869 44.0166 13.9092C44.1374 14.04 44.8001 15.2531 45.1147 15.9198C46.1516 18.1169 46.7696 20.2817 47.0534 22.7099C47.1729 23.7342 47.1885 26.0435 47.0829 27.0563C46.8232 29.5394 46.1726 31.861 45.1129 34.0878C44.7555 34.8391 44.1461 35.9566 44.0215 36.0899C43.9836 36.1324 43.7348 36.483 43.4727 36.8692C42.6398 38.0962 42.4998 38.2894 42.0885 38.7807C41.3017 39.7206 39.5714 41.3572 38.9947 41.707C38.8284 41.808 37.6574 42.6272 37.2482 42.9291C36.6427 43.3758 34.5355 44.4255 33.3877 44.8523C31.4815 45.561 29.6715 45.9646 27.6286 46.1365C26.8001 46.2064 25.0226 46.2034 24.2034 46.1318ZM24.3359 38.7093L24.4715 38.5738L24.4883 33.5456L24.5052 28.5174L28.7086 28.5006L32.9121 28.4838L33.0556 28.3167L33.1996 28.1497V26.3341C33.1996 24.4335 33.1743 24.2393 32.9289 24.1447C32.8759 24.1237 30.9584 24.1068 28.6679 24.1068H24.5032V20.6848V17.2628L29.0949 17.2459L33.6865 17.2291L33.83 17.0621L33.9735 16.895V14.9439V12.9929L33.8199 12.8486L33.6663 12.7042L26.5234 12.6874L19.3804 12.6706V25.6098C19.3804 35.8735 19.3973 38.57 19.4549 38.6508C19.497 38.7068 19.6099 38.7774 19.7079 38.8073C19.806 38.8367 20.8575 38.857 22.0442 38.8507L24.2018 38.838L24.3359 38.7093ZM50.9572 25.538C50.9572 25.456 50.9698 25.4227 50.9867 25.4635C51.0035 25.5056 51.0035 25.5717 50.9867 25.6125C50.9698 25.6546 50.9572 25.6209 50.9572 25.538ZM50.9572 24.4664C50.9572 24.3843 50.9698 24.3511 50.9867 24.3919C51.0035 24.434 51.0035 24.4996 50.9867 24.5408C50.9698 24.5829 50.9572 24.5492 50.9572 24.4664Z" fill="#51BE36"/>
<path id="path36" d="M24.239 49.9446C21.5098 49.7494 18.8313 49.1049 16.2828 48.0299C13.879 47.0161 11.8956 45.8161 9.96894 44.2102C9.14483 43.5233 7.08249 41.416 6.41286 40.5767C5.51059 39.4457 3.97182 37.0902 3.79704 36.5726C3.776 36.5124 3.59162 36.1151 3.38536 35.6894C2.24753 33.3393 1.46004 30.6046 1.11365 27.8005C0.962116 26.5739 0.962116 23.4305 1.11365 22.2039C1.64483 17.9036 3.20269 13.8512 5.62467 10.4693C6.42394 9.35321 7.08202 8.59737 8.37964 7.30519C10.5143 5.17946 12.4049 3.81268 14.8297 2.64226C19.9759 0.158341 25.3186 -0.580496 30.6674 0.452077C32.7342 0.850952 35.5533 1.80331 36.9982 2.59045C37.204 2.70279 37.4014 2.79449 37.4367 2.79449C37.6009 2.79449 39.487 3.93353 40.3764 4.56967C41.5986 5.44383 42.2326 5.99051 43.5657 7.31938C45.3163 9.06458 46.097 10.0281 47.2631 11.8829C47.7961 12.7306 48.6852 14.5087 49.1492 15.6548C50.937 20.0712 51.4216 24.8535 50.5585 29.5629C50.073 32.2123 48.9485 35.2414 47.5659 37.6245C46.5588 39.3602 45.4291 40.8129 43.8013 42.4653C42.1832 44.108 40.9897 45.0897 39.341 46.1346C38.565 46.6265 37.5339 47.2102 37.4411 47.2102C37.4032 47.2102 37.2041 47.3023 36.9982 47.4151C35.5374 48.2141 32.5516 49.2135 30.5009 49.5898C28.503 49.9563 26.2145 50.0859 24.239 49.9446ZM27.6297 46.1366C29.6726 45.9645 31.4826 45.561 33.3888 44.8523C34.5367 44.4255 36.6438 43.3758 37.2493 42.9291C37.6585 42.6274 38.8295 41.8079 38.9958 41.707C39.5725 41.3574 41.3028 39.7206 42.0896 38.7807C42.5009 38.2894 42.6409 38.0962 43.4738 36.8693C43.7361 36.483 43.9828 36.1325 44.0226 36.09C44.1472 35.9566 44.7565 34.8391 45.114 34.0878C46.1738 31.861 46.8242 29.5394 47.084 27.0563C47.1901 26.0435 47.1745 23.7342 47.0545 22.7099C46.7708 20.2817 46.1527 18.1169 45.1159 15.9198C44.801 15.2531 44.1386 14.0399 44.0177 13.9092C43.9798 13.8671 43.7357 13.5217 43.4737 13.1371C42.5792 11.8247 42.4918 11.7042 42.0894 11.2272C41.2767 10.2638 39.4844 8.56362 39.0362 8.33095C38.9541 8.28845 38.7398 8.14158 38.5596 8.00442C36.0049 6.0612 32.721 4.64432 29.5357 4.11088C26.7776 3.64902 23.9398 3.72678 21.286 4.33688C19.4572 4.75763 17.4521 5.51397 15.843 6.3907C15.3284 6.67092 13.8915 7.61717 13.3044 8.0622C13.1243 8.19894 12.9365 8.32557 12.8873 8.34366C12.7097 8.40972 11.4708 9.52368 10.7418 10.2734C10.0618 10.9727 9.31345 11.8361 9.31345 11.9214C9.31345 11.9382 9.15685 12.165 8.9649 12.4209C7.46768 14.4198 6.37617 16.5798 5.6527 18.9753C5.06655 20.9162 4.84842 22.3349 4.80397 24.496C4.76104 26.5763 4.88731 27.9169 5.29141 29.6758C5.94811 32.5342 7.14062 35.1126 8.92733 37.5374C9.09739 37.768 9.2687 38.0175 9.30869 38.0917C9.45097 38.3572 10.4417 39.4538 11.2263 40.2141C11.9702 40.9349 12.8213 41.6728 12.9087 41.6728C12.9297 41.6728 13.1945 41.8567 13.4977 42.0814C15.6605 43.6844 17.4757 44.5709 20.3924 45.4488C21.3577 45.7391 22.9164 46.0186 24.2045 46.1317C25.0237 46.2037 26.8012 46.2068 27.6297 46.1366ZM19.7077 38.8126C19.6097 38.7831 19.4956 38.712 19.4548 38.6561C19.3958 38.5753 19.3803 35.8788 19.3803 25.6151V12.6759L26.5232 12.6927L33.6661 12.7095L33.8197 12.8538L33.9734 12.9982V14.9492V16.9003L33.8298 17.0674L33.6863 17.2344L29.0947 17.2512L24.503 17.2681V20.6901V24.1121H28.6677C30.9582 24.1121 32.8757 24.129 32.9287 24.15C33.1754 24.2447 33.1994 24.439 33.1994 26.3394V28.155L33.0554 28.322L32.9119 28.4891L28.7084 28.5059L24.505 28.5227L24.4881 33.5509L24.4713 38.5791L24.3358 38.7145L24.2002 38.8501L22.0426 38.8627C20.8559 38.8669 19.8046 38.85 19.7064 38.8193L19.7077 38.8126Z" fill="white"/>
</g>
<defs>
<filter id="filter0_d_821_2426" x="0" y="0" width="52" height="52.0005" filterUnits="userSpaceOnUse" color-interpolation-filters="sRGB">
<feFlood flood-opacity="0" result="BackgroundImageFix"/>
<feColorMatrix in="SourceAlpha" type="matrix" values="0 0 0 0 0 0 0 0 0 0 0 0 0 0 0 0 0 0 127 0" result="hardAlpha"/>
<feOffset dy="1"/>
<feGaussianBlur stdDeviation="0.5"/>
<feComposite in2="hardAlpha" operator="out"/>
<feColorMatrix type="matrix" values="0 0 0 0 0 0 0 0 0 0 0 0 0 0 0 0 0 0 0.25 0"/>
<feBlend mode="normal" in2="BackgroundImageFix" result="effect1_dropShadow_821_2426"/>
<feBlend mode="normal" in="SourceGraphic" in2="effect1_dropShadow_821_2426" result="shape"/>
</filter>
</defs>
</svg>
