<svg width="257" height="60" viewBox="0 0 257 60" fill="none" xmlns="http://www.w3.org/2000/svg">
<g clip-path="url(#clip0_1477_1280)">
<path fill-rule="evenodd" clip-rule="evenodd" d="M4.87307 55.7442H3.85992H3.85743V54.8888L6.10187 54.8996V57.6348H5.25007V57.1366C5.19656 57.1922 5.13889 57.2478 5.07703 57.3032C4.94161 57.4202 4.77693 57.5172 4.58718 57.59C4.39407 57.6646 4.15586 57.7028 3.87999 57.7028C3.41104 57.7028 2.99727 57.595 2.65037 57.3828C2.30262 57.1698 2.03179 56.864 1.8437 56.4752C1.65729 56.0898 1.56284 55.629 1.56284 55.1052C1.56284 54.5738 1.66231 54.1064 1.85875 53.716C2.05436 53.324 2.33439 53.0164 2.69049 52.8018C3.04659 52.5888 3.46537 52.481 3.93517 52.481C4.24028 52.481 4.52198 52.53 4.77192 52.626C5.02437 52.723 5.24672 52.8574 5.43061 53.023C5.61786 53.1906 5.76582 53.382 5.87198 53.5934C5.97815 53.803 6.03665 54.0268 6.04752 54.2572L6.0517 54.3442H4.83629L4.82375 54.2764C4.797 54.1338 4.74182 54.0004 4.65991 53.8802C4.57965 53.7616 4.47516 53.6646 4.35061 53.5942C4.22689 53.5238 4.07978 53.488 3.9126 53.488C3.7103 53.488 3.52389 53.5402 3.3609 53.643C3.19873 53.745 3.06748 53.9132 2.97136 54.142C2.87355 54.3758 2.82423 54.69 2.82423 55.0778C2.82423 55.3936 2.85684 55.6572 2.9212 55.8628C2.98388 56.065 3.07 56.2266 3.17615 56.3434C3.28149 56.4596 3.40102 56.5416 3.53309 56.5872C3.66684 56.636 3.80811 56.661 3.95355 56.661C4.08814 56.661 4.20934 56.6386 4.31384 56.5954C4.41916 56.5506 4.51111 56.4926 4.58634 56.4222C4.66241 56.351 4.7226 56.273 4.76439 56.1918C4.80787 56.1098 4.8346 56.0286 4.84465 55.9498L4.87307 55.7442ZM9.0758 52.4818C9.54977 52.4818 9.96855 52.5886 10.3196 52.7992C10.6724 53.0114 10.9499 53.3172 11.1422 53.7084C11.3328 54.0954 11.4297 54.5646 11.4297 55.1018C11.4297 55.6314 11.3344 56.0956 11.1455 56.4818C10.9549 56.8714 10.6791 57.1756 10.3255 57.386C9.97441 57.5966 9.55311 57.7026 9.07496 57.7026C8.59264 57.7026 8.16882 57.5958 7.81608 57.386C7.46333 57.1772 7.18497 56.8746 6.99103 56.485C6.80044 56.0996 6.70348 55.6346 6.70348 55.1026C6.70348 54.568 6.80127 54.0996 6.9952 53.7118C7.18998 53.3206 7.46916 53.0146 7.82444 52.8016C8.17969 52.5894 8.60017 52.4818 9.0758 52.4818ZM9.0758 56.7188C9.30066 56.7188 9.49711 56.6658 9.65927 56.5614C9.8206 56.4568 9.94766 56.287 10.0379 56.0582C10.129 55.8212 10.1759 55.5038 10.1759 55.1158C10.1759 54.7172 10.1282 54.3922 10.0354 54.1494C9.94599 53.9132 9.8181 53.7382 9.65593 53.6288C9.49209 53.5202 9.29732 53.4648 9.07663 53.4648C8.85512 53.4648 8.65951 53.5202 8.49568 53.6288C8.33266 53.7374 8.20311 53.9132 8.112 54.151C8.01753 54.3956 7.96988 54.7196 7.96988 55.115C7.96988 55.5038 8.01753 55.8212 8.11115 56.0574C8.20226 56.287 8.33099 56.4568 8.49401 56.5604C8.657 56.6658 8.8526 56.7188 9.0758 56.7188ZM13.8595 56.1328L12.619 52.567H11.4922L13.2343 57.6172H14.4815L16.2386 52.567H15.1101L13.8595 56.1328ZM19.9613 55.5674H17.8882V56.6086L20.3124 56.6118V57.6172H16.7288V52.567H20.278L20.2748 53.565H17.8941V54.5828H19.9613V55.5674ZM24.487 55.2616C24.6249 55.139 24.7378 54.9814 24.8248 54.7934C24.9091 54.6068 24.9526 54.3772 24.9526 54.1096C24.9526 53.8102 24.89 53.5426 24.7654 53.313C24.6408 53.0792 24.4435 52.8944 24.1778 52.7618C23.9161 52.6324 23.5794 52.567 23.1763 52.567H21.0148V57.6156H22.1741V55.7348H23.0276L23.831 57.6156H25.048L24.1118 55.5244C24.2473 55.453 24.3735 55.3644 24.487 55.2616ZM23.7799 54.1336C23.7799 54.3334 23.7122 54.4916 23.5735 54.6192C23.4346 54.7452 23.2416 54.809 22.9984 54.809H22.1741V53.4878H23.0711C23.28 53.4878 23.4481 53.545 23.5834 53.6628C23.7156 53.778 23.7799 53.9322 23.7799 54.1336ZM26.8314 52.567L28.9505 55.613V52.567H30.1132V57.6172H29.0894L26.8791 54.4452V57.6172H25.7198V52.567H26.8314ZM33.6653 55.8592L32.6004 52.567H31.0114V57.6172H32.1807V54.364L33.2122 57.6172H34.115L35.1541 54.3458V57.6172H36.3269V52.567H34.7411L33.6653 55.8592ZM40.4546 55.5674H38.3816V56.6086L40.8065 56.6118V57.6172H37.2221V52.567H40.7722L40.768 53.565H38.389V54.5828H40.4546V55.5674ZM44.7813 55.613L42.6631 52.567H41.5505V57.6172H42.7092V54.4452L44.9192 57.6172H45.9433V52.567H44.7813V55.613ZM47.9188 53.6122H46.4316V52.567H50.5385V53.6122H49.0858V57.6172H47.9188V53.6122ZM29.5306 43.55C29.2323 43.071 28.7824 42.6358 28.194 42.257C27.6064 41.8782 26.8056 41.589 25.8166 41.3976L23.0632 40.8348C22.2314 40.6566 21.6579 40.4262 21.3586 40.151C21.0669 39.8824 20.919 39.5252 20.919 39.0892C20.919 38.8116 20.9826 38.5588 21.1088 38.3374C21.2342 38.1152 21.4164 37.9188 21.6497 37.753C21.8844 37.5874 22.1763 37.4564 22.5165 37.3644C22.8609 37.2706 23.2478 37.2234 23.6667 37.2234C24.2183 37.2234 24.7157 37.2956 25.1455 37.439C25.57 37.5816 25.9219 37.8152 26.191 38.1352C26.4604 38.4552 26.6258 38.8902 26.6826 39.4282L26.6903 39.5028H30.1065L30.1049 39.4174C30.0898 38.5024 29.8289 37.6628 29.3299 36.9226C28.8301 36.1816 28.0937 35.5864 27.14 35.1522C26.1886 34.7194 25.0015 34.4998 23.6116 34.4998C22.4438 34.4998 21.3737 34.702 20.43 35.1016C19.4838 35.502 18.7239 36.0796 18.173 36.819C17.6196 37.5624 17.3438 38.4518 17.3522 39.4638C17.3747 40.6988 17.7526 41.701 18.4748 42.4444C19.1945 43.1838 20.181 43.676 21.4071 43.9056L24.1841 44.4676C24.6931 44.568 25.1553 44.6996 25.5575 44.8596C25.9521 45.0164 26.2671 45.2202 26.4938 45.4656C26.7152 45.705 26.8273 46.02 26.8273 46.3996C26.8273 46.8224 26.6876 47.1796 26.4127 47.4598C26.1308 47.7466 25.7482 47.9628 25.2767 48.1046C24.796 48.2488 24.2585 48.3218 23.6792 48.3218C23.1141 48.3218 22.5934 48.2348 22.132 48.0624C21.673 47.8924 21.2877 47.6438 20.9868 47.3238C20.6867 47.0056 20.4809 46.6068 20.3748 46.1402L20.3598 46.0748H16.8782L16.8874 46.1668C16.9693 46.9758 17.2226 47.6926 17.6397 48.2986C18.056 48.9004 18.5893 49.4076 19.2246 49.8088C19.8582 50.2074 20.5687 50.5116 21.3371 50.7114C22.1034 50.9102 22.8959 51.0114 23.6909 51.0114C24.9925 51.0114 26.1467 50.8076 27.1222 50.4046C28.102 50.0002 28.877 49.4432 29.4269 48.7494C29.9811 48.0508 30.2619 47.2542 30.2619 46.3798C30.2619 45.967 30.2152 45.5078 30.1216 45.0154C30.0254 44.519 29.8265 44.0258 29.5306 43.55ZM5.2211 40.0554L12.6524 50.7178H15.6751V34.773H12.2938V45.0294L5.18432 34.8088L5.15924 34.773H1.84985V50.7178H5.2211V40.0554ZM44.8043 44.9708L47.7006 34.7734H51.0134L46.2653 50.7182H43.5745L40.6448 40.6244L37.694 50.7182H35.0475L30.3102 34.7734H33.6339L36.5294 44.9692L39.4259 34.7734H41.8752L44.8043 44.9708Z" fill="white"/>
<path d="M24.6173 30.817C20.6416 30.3322 16.7797 31.5978 9.98455 29.7644C9.29075 29.577 9.03496 30.3032 9.41028 30.9116C11.2359 33.8722 20.4578 31.5522 24.6356 31.1246C24.818 31.1056 24.7994 30.8394 24.6173 30.817ZM12.0543 25.529C10.6725 23.5174 9.54318 21.267 8.66881 18.7912C6.03149 19.5562 3.33233 20.6602 0.584668 22.105C0.229404 22.2914 0.0112289 22.6412 0.000361987 23.039C-0.00966899 23.437 0.189279 23.7966 0.534512 24.0014C5.85511 27.1618 11.057 28.9696 16.0207 29.388C14.5428 28.493 13.1878 27.1792 12.0543 25.529ZM4.64171 18.8052C5.85879 18.3219 7.06503 17.9075 8.26039 17.5586C7.83241 16.1793 7.48132 14.7347 7.20378 13.227C5.82955 13.0571 4.40766 12.9468 2.93643 12.8987C2.92389 12.8987 2.91053 12.8979 2.89798 12.8979C2.51263 12.8979 2.16489 13.0902 1.9626 13.4184C1.75362 13.7566 1.74442 14.1669 1.93836 14.515C2.79266 16.0467 3.69461 17.4765 4.64171 18.8052ZM17.7155 28.817C18.5406 29.1784 19.3848 29.3806 20.2031 29.4228C18.1995 27.9988 16.6255 25.5844 15.7185 22.5068C14.5499 18.545 14.1595 14.1736 14.5449 9.45739C12.9684 8.47023 11.2598 7.54605 9.4199 6.68737C9.06463 6.52159 8.65838 6.55391 8.33238 6.77357C8.0072 6.99239 7.82747 7.35459 7.85171 7.74167C8.27972 14.5847 10.056 20.3245 13.1305 24.8012C14.4195 26.6794 16.0053 28.0676 17.7155 28.817Z" fill="#D7153A"/>
<path d="M25.3061 20.7548C24.8981 19.81 24.4484 18.9189 23.7505 17.9177C21.7759 15.0855 19.1153 12.531 15.8042 10.2806C15.7699 10.8111 15.2868 16.5401 16.982 22.1414C18.2718 26.4018 20.4753 28.1374 21.6831 28.808C22.8985 29.4818 24.0103 29.641 25.3144 29.3194C23.9928 27.5324 24.1575 23.8654 25.3061 20.7548ZM21.6374 6.41808C20.6943 5.28254 19.6712 4.15946 18.567 3.04961C18.353 2.83411 18.0772 2.71973 17.7921 2.71973C17.6901 2.71973 17.5873 2.73465 17.4853 2.76448C17.0983 2.87804 16.8183 3.18554 16.7338 3.58754C16.5182 4.6203 16.1077 6.72558 15.9263 8.80766C17.3382 9.73018 18.6422 10.7057 19.8367 11.7319C20.2998 9.9805 20.9016 8.20592 21.6374 6.41808ZM25.9968 19.1484C27.3334 16.53 29.4684 14.1827 31.0716 12.6999C30.1915 9.1441 28.8363 5.78972 26.9656 2.28035C26.7726 1.91814 26.4096 1.70264 25.9976 1.70264C25.5855 1.70264 25.2236 1.91897 25.0297 2.28035C23.1397 5.80132 21.7612 9.30488 20.9278 12.699C22.6012 14.2366 24.8089 16.7439 25.9968 19.1484ZM36.0759 8.80678C35.8945 6.72554 35.4841 4.62024 35.2685 3.58666C35.1847 3.18466 34.9039 2.87716 34.517 2.7636C34.415 2.73377 34.3121 2.71885 34.2102 2.71885C33.9252 2.71885 33.6492 2.83323 33.4352 3.04873C32.3311 4.15856 31.3079 5.28166 30.365 6.4172C31.1005 8.20504 31.7024 9.97962 32.1664 11.7302C33.3609 10.7049 34.664 9.7293 36.0759 8.80678ZM30.9079 28.4398C32.2939 27.4732 33.6798 25.789 34.5593 23.4458C36.2619 18.9096 36.4382 13.8569 36.1943 10.2812C33.1081 12.3243 28.2097 16.5913 26.5369 21.1533C25.7496 23.3 25.3826 26.2242 25.9893 27.8554C26.2428 28.5376 26.6739 29.0548 27.2666 29.3008C28.1644 29.6738 29.5437 29.392 30.9079 28.4398Z" fill="#D7153A"/>
<path d="M36.2838 22.5076C35.377 25.5844 33.802 27.9996 31.7993 29.4236C32.6175 29.3814 33.4626 29.1782 34.2869 28.8168C35.9972 28.0676 37.5828 26.6792 38.872 24.8018C41.9464 20.3252 43.7227 14.5854 44.1507 7.74239C44.175 7.35533 43.9953 6.99311 43.67 6.77429C43.3441 6.55465 42.9378 6.52233 42.5825 6.68809C40.7426 7.54597 39.034 8.47013 37.4574 9.45813C37.8429 14.1743 37.4516 18.5448 36.2838 22.5076ZM47.3606 18.8052C48.3077 17.4766 49.2097 16.046 50.0641 14.5143C50.2579 14.1661 50.2497 13.7567 50.0397 13.4177C49.8374 13.0903 49.4898 12.8972 49.1045 12.8972C49.0918 12.8972 49.0785 12.8972 49.066 12.898C47.5947 12.9461 46.1719 13.0571 44.7987 13.2262C44.5219 14.7339 44.17 16.1786 43.742 17.5578C44.9373 17.9076 46.1443 18.3228 47.3606 18.8052ZM51.4162 22.104C48.6685 20.6593 45.9694 19.5553 43.332 18.7902C42.4577 21.266 41.3284 23.5164 39.9465 25.528C38.8132 27.179 37.458 28.492 35.9793 29.3872C40.9429 28.9686 46.1449 27.1608 51.4655 24.0004C51.8108 23.7956 52.0104 23.436 51.9996 23.0382C51.9905 22.6402 51.7715 22.2914 51.4162 22.104ZM42.0185 29.7644C35.2234 31.5978 31.3614 30.3322 27.3857 30.817C27.2036 30.8394 27.1844 31.1064 27.3674 31.1246C31.5462 31.5522 40.7672 33.8722 42.5928 30.9116C42.968 30.3032 42.7124 29.577 42.0185 29.7644Z" fill="#D7153A"/>
<path d="M76 57.7037V48.9449H78.9569C79.5803 48.9449 80.1363 49.0501 80.6249 49.2604C81.1135 49.4707 81.4977 49.7817 81.7773 50.1934C82.057 50.6051 82.1969 51.112 82.1969 51.7142C82.1969 52.297 82.0666 52.7933 81.8062 53.2033C81.5458 53.6132 81.1839 53.9259 80.7206 54.1414C80.2572 54.3569 79.7198 54.4646 79.1083 54.4646H77.1491V57.7037H76ZM77.1408 53.5189H79.0834C79.6829 53.5189 80.1699 53.3508 80.5445 53.0145C80.919 52.6782 81.1063 52.2229 81.1063 51.6487C81.1063 51.0676 80.9133 50.6273 80.5272 50.3278C80.1411 50.0283 79.6414 49.8785 79.0279 49.8785H77.1408V53.5189ZM83.4611 57.7037V51.4405H84.5277V52.6482C84.6323 52.3475 84.7796 52.0992 84.9694 51.9033C85.1593 51.7075 85.376 51.5612 85.6196 51.4645C85.8632 51.3677 86.1163 51.3194 86.3788 51.3194C86.4704 51.3194 86.56 51.3253 86.6475 51.3373C86.735 51.3492 86.8038 51.3697 86.8541 51.3989V52.4831C86.7944 52.4552 86.7172 52.436 86.6226 52.4254C86.5279 52.4148 86.448 52.4088 86.3829 52.4074C86.1341 52.3921 85.9009 52.4074 85.6833 52.4533C85.4656 52.4992 85.2737 52.579 85.1076 52.6929C84.9415 52.8067 84.8117 52.9559 84.7185 53.1405C84.6252 53.3252 84.5785 53.5479 84.5785 53.8089V57.7037H83.4611ZM90.6889 57.8249C90.113 57.8249 89.6103 57.7008 89.1805 57.4527C88.7508 57.2046 88.4172 56.8406 88.1798 56.3607C87.9425 55.8808 87.8238 55.2934 87.8238 54.5986C87.8238 53.9431 87.9346 53.3693 88.1563 52.8772C88.378 52.3852 88.7025 52.0026 89.1296 51.7293C89.5568 51.456 90.0779 51.3194 90.693 51.3194C91.269 51.3194 91.7692 51.4458 92.1937 51.6987C92.6181 51.9516 92.9477 52.3218 93.1824 52.8092C93.417 53.2966 93.5344 53.8931 93.5344 54.5986C93.5344 55.2364 93.4263 55.7972 93.21 56.2811C92.9938 56.765 92.6751 57.1433 92.2539 57.4159C91.8327 57.6886 91.3111 57.8249 90.6889 57.8249ZM90.693 56.9436C91.0671 56.9436 91.383 56.8478 91.6407 56.6563C91.8985 56.4648 92.0942 56.1916 92.2277 55.8366C92.3612 55.4816 92.4279 55.0592 92.4279 54.5695C92.4279 54.1234 92.3691 53.7213 92.2515 53.3631C92.1338 53.005 91.9474 52.7217 91.6923 52.5131C91.4372 52.3046 91.1041 52.2003 90.693 52.2003C90.315 52.2003 89.9951 52.294 89.7333 52.4813C89.4716 52.6687 89.273 52.9394 89.1375 53.2936C89.0019 53.6477 88.9342 54.073 88.9342 54.5695C88.9342 55.0115 88.994 55.412 89.1137 55.771C89.2333 56.13 89.4227 56.4151 89.6818 56.6265C89.9409 56.8379 90.278 56.9436 90.693 56.9436ZM95.0168 59.6542V51.4405H96.1304L96.1462 52.5331C96.2155 52.4034 96.3078 52.2681 96.4232 52.1273C96.5386 51.9864 96.6802 51.8546 96.848 51.7316C97.0158 51.6087 97.2114 51.5093 97.4347 51.4333C97.658 51.3574 97.9123 51.3194 98.1974 51.3194C98.696 51.3194 99.1357 51.4331 99.5165 51.6607C99.8973 51.8882 100.195 52.2366 100.41 52.7058C100.624 53.1751 100.732 53.7699 100.732 54.4904C100.732 55.2064 100.628 55.8123 100.42 56.308C100.212 56.8038 99.9121 57.1805 99.5207 57.4383C99.1292 57.696 98.6591 57.8249 98.1102 57.8249C97.8306 57.8249 97.5829 57.7855 97.3672 57.7069C97.1515 57.6282 96.9642 57.525 96.8053 57.3974C96.6464 57.2697 96.5131 57.1338 96.4053 56.9896C96.2976 56.8455 96.2098 56.7059 96.1421 56.5708V59.6542H95.0168ZM97.8983 56.9519C98.414 56.9519 98.835 56.7548 99.1613 56.3607C99.4876 55.9666 99.6508 55.3538 99.6508 54.5222C99.6508 53.8093 99.5015 53.2427 99.2029 52.8224C98.9044 52.4021 98.4695 52.192 97.8983 52.192C97.3179 52.192 96.8782 52.4074 96.579 52.8383C96.2798 53.2692 96.1302 53.8305 96.1302 54.5222C96.1302 54.9727 96.1968 55.3817 96.3301 55.7492C96.4633 56.1168 96.661 56.4091 96.9229 56.6262C97.1849 56.8433 97.5101 56.9519 97.8983 56.9519ZM104.86 57.8249C104.277 57.8249 103.764 57.6979 103.321 57.444C102.878 57.1901 102.532 56.8249 102.283 56.3484C102.034 55.8719 101.91 55.3008 101.91 54.635C101.91 53.9764 102.022 53.398 102.248 52.8999C102.473 52.4017 102.8 52.0138 103.228 51.736C103.657 51.4583 104.173 51.3194 104.779 51.3194C105.367 51.3194 105.864 51.4461 106.271 51.6997C106.677 51.9532 106.986 52.312 107.198 52.7761C107.41 53.2403 107.515 53.7892 107.515 54.423V54.833H103.04C103.039 55.2291 103.103 55.5874 103.234 55.9079C103.365 56.2283 103.564 56.4832 103.831 56.6725C104.098 56.8618 104.434 56.9564 104.839 56.9564C105.237 56.9564 105.581 56.8644 105.87 56.6802C106.159 56.4961 106.344 56.2273 106.425 55.8737H107.476C107.401 56.2983 107.232 56.6561 106.97 56.9469C106.707 57.2377 106.391 57.4567 106.022 57.604C105.652 57.7512 105.265 57.8249 104.86 57.8249ZM103.044 54.0769H106.441C106.441 53.7181 106.38 53.3941 106.259 53.1051C106.137 52.8162 105.953 52.5876 105.707 52.4193C105.46 52.2511 105.148 52.167 104.771 52.167C104.38 52.167 104.056 52.2611 103.8 52.4492C103.544 52.6372 103.354 52.8778 103.228 53.1707C103.103 53.4637 103.041 53.7658 103.044 54.0769ZM109.062 57.7037V51.4405H110.129V52.6482C110.233 52.3475 110.381 52.0992 110.571 51.9033C110.76 51.7075 110.977 51.5612 111.221 51.4645C111.464 51.3677 111.717 51.3194 111.98 51.3194C112.072 51.3194 112.161 51.3253 112.249 51.3373C112.336 51.3492 112.405 51.3697 112.455 51.3989V52.4831C112.396 52.4552 112.318 52.436 112.224 52.4254C112.129 52.4148 112.049 52.4088 111.984 52.4074C111.735 52.3921 111.502 52.4074 111.284 52.4533C111.067 52.4992 110.875 52.579 110.709 52.6929C110.543 52.8067 110.413 52.9559 110.32 53.1405C110.226 53.3252 110.18 53.5479 110.18 53.8089V57.7037H109.062ZM116.078 57.7371C115.646 57.7371 115.311 57.6778 115.074 57.5593C114.836 57.4408 114.671 57.2668 114.577 57.0372C114.484 56.8077 114.437 56.5253 114.437 56.1902V52.2605H113.422V51.4405H114.466L114.738 49.6173H115.557V51.4364H116.966V52.2605H115.557L115.561 56.1527C115.561 56.3754 115.583 56.5382 115.628 56.641C115.673 56.7438 115.75 56.8095 115.861 56.8383C115.972 56.8671 116.125 56.8815 116.32 56.8815H117.006V57.6307C116.926 57.6605 116.809 57.6856 116.654 57.7062C116.499 57.7268 116.307 57.7371 116.078 57.7371ZM119.114 59.7026C118.747 59.7026 118.495 59.6768 118.359 59.625C118.223 59.5733 118.155 59.5474 118.155 59.5474V58.8205L118.793 58.833C119.025 58.8414 119.217 58.825 119.37 58.7839C119.523 58.7428 119.646 58.6876 119.738 58.6183C119.83 58.5489 119.902 58.472 119.953 58.3875C120.003 58.3031 120.044 58.2223 120.074 58.1452L120.293 57.555L117.854 51.4405H118.98L120.827 56.2757L122.656 51.4405H123.749L121.118 58.1751C120.956 58.5736 120.775 58.8835 120.575 59.1048C120.375 59.326 120.153 59.481 119.91 59.5697C119.666 59.6583 119.401 59.7026 119.114 59.7026ZM129.643 57.8249C129.239 57.8249 128.882 57.7528 128.572 57.6086C128.263 57.4644 128.021 57.2572 127.846 56.9869C127.672 56.7166 127.585 56.3906 127.585 56.0088C127.585 55.3145 127.826 54.7975 128.308 54.4577C128.791 54.1179 129.567 53.9361 130.637 53.9123L131.751 53.8805V53.3913C131.751 53.0066 131.636 52.7022 131.406 52.4781C131.176 52.2541 130.821 52.1434 130.34 52.1462C129.981 52.1476 129.665 52.2317 129.392 52.3984C129.119 52.5652 128.944 52.8351 128.866 53.2081H127.878C127.902 52.8029 128.017 52.4598 128.222 52.1788C128.427 51.8977 128.715 51.6842 129.084 51.5383C129.453 51.3923 129.889 51.3194 130.393 51.3194C130.936 51.3194 131.388 51.3962 131.749 51.5498C132.109 51.7035 132.38 51.93 132.559 52.2294C132.739 52.5288 132.829 52.8968 132.829 53.3334V57.7037H131.875L131.792 56.5275C131.551 57.0151 131.245 57.3532 130.873 57.5419C130.501 57.7306 130.091 57.8249 129.643 57.8249ZM129.979 57.0185C130.19 57.0185 130.4 56.9804 130.608 56.9043C130.816 56.8281 131.006 56.7242 131.178 56.5926C131.35 56.461 131.488 56.3137 131.592 56.1506C131.697 55.9876 131.75 55.8198 131.751 55.6473V54.5736L130.825 54.5895C130.346 54.5975 129.947 54.6466 129.628 54.7367C129.309 54.8269 129.069 54.9663 128.909 55.1549C128.749 55.3435 128.668 55.5924 128.668 55.9017C128.668 56.2525 128.791 56.5264 129.036 56.7232C129.281 56.9201 129.596 57.0185 129.979 57.0185ZM134.572 57.7037V51.4405H135.657V52.3504C135.759 52.1748 135.899 52.011 136.077 51.8591C136.255 51.7073 136.473 51.5849 136.73 51.492C136.987 51.3991 137.281 51.3527 137.613 51.3527C138.009 51.3527 138.373 51.4313 138.705 51.5885C139.037 51.7458 139.303 51.9905 139.503 52.3226C139.703 52.6548 139.802 53.0832 139.802 53.6079V57.7037H138.683V53.7182C138.683 53.2287 138.555 52.8659 138.301 52.6296C138.046 52.3934 137.713 52.2753 137.303 52.2753C137.024 52.2753 136.761 52.3207 136.514 52.4116C136.267 52.5024 136.068 52.6397 135.916 52.8234C135.765 53.0071 135.689 53.2391 135.689 53.5195V57.7037H134.572ZM143.824 57.8249C143.012 57.8249 142.369 57.5462 141.895 56.989C141.422 56.4317 141.185 55.6173 141.185 54.5456C141.185 53.8954 141.28 53.3286 141.47 52.8454C141.66 52.3622 141.944 51.9871 142.322 51.72C142.701 51.4529 143.172 51.3194 143.737 51.3194C144.037 51.3194 144.302 51.3574 144.534 51.4333C144.765 51.5093 144.964 51.6057 145.133 51.7227C145.301 51.8396 145.439 51.9615 145.547 52.0884C145.655 52.2153 145.735 52.3303 145.786 52.4335V48.7026H146.914V57.7037H146.057L145.938 56.4196C145.897 56.5423 145.832 56.6831 145.744 56.8422C145.656 57.0013 145.531 57.1559 145.371 57.3062C145.211 57.4565 145.004 57.5805 144.751 57.6783C144.498 57.776 144.189 57.8249 143.824 57.8249ZM144.023 56.9644C144.654 56.9644 145.106 56.7714 145.378 56.3853C145.65 55.9993 145.786 55.3689 145.786 54.494C145.781 54.0058 145.72 53.5901 145.602 53.2466C145.485 52.9032 145.3 52.6416 145.048 52.4617C144.796 52.2819 144.462 52.192 144.047 52.192C143.533 52.192 143.114 52.3753 142.791 52.7419C142.468 53.1085 142.307 53.6925 142.307 54.494C142.307 55.2761 142.452 55.8834 142.743 56.3158C143.035 56.7482 143.461 56.9644 144.023 56.9644ZM151.923 57.7037V48.9449C151.95 48.9449 152.035 48.9456 152.178 48.9469C152.321 48.9482 152.495 48.9486 152.701 48.9479C152.906 48.9472 153.121 48.9478 153.344 48.9498C153.567 48.9519 153.771 48.9543 153.955 48.957C155.025 48.9722 155.894 49.1463 156.562 49.4795C157.23 49.8126 157.72 50.2969 158.031 50.9323C158.343 51.5677 158.499 52.347 158.499 53.2702C158.499 54.2389 158.331 55.052 157.995 55.7097C157.66 56.3673 157.148 56.8641 156.459 57.1999C155.77 57.5358 154.897 57.7037 153.84 57.7037H151.923ZM153.072 56.7406H153.841C154.562 56.7406 155.182 56.629 155.702 56.4058C156.222 56.1825 156.622 55.8182 156.902 55.3127C157.182 54.8073 157.322 54.1329 157.322 53.2895C157.322 52.445 157.186 51.7764 156.915 51.2838C156.643 50.7911 156.251 50.4387 155.739 50.2264C155.227 50.0142 154.61 49.908 153.888 49.908H153.072V56.7406ZM162.718 57.8249C162.136 57.8249 161.623 57.6979 161.179 57.444C160.736 57.1901 160.39 56.8249 160.141 56.3484C159.892 55.8719 159.768 55.3008 159.768 54.635C159.768 53.9764 159.881 53.398 160.106 52.8999C160.331 52.4017 160.658 52.0138 161.087 51.736C161.515 51.4583 162.032 51.3194 162.637 51.3194C163.226 51.3194 163.723 51.4461 164.129 51.6997C164.536 51.9532 164.845 52.312 165.056 52.7761C165.268 53.2403 165.374 53.7892 165.374 54.423V54.833H160.899C160.897 55.2291 160.962 55.5874 161.093 55.9079C161.224 56.2283 161.423 56.4832 161.69 56.6725C161.957 56.8618 162.293 56.9564 162.697 56.9564C163.096 56.9564 163.44 56.8644 163.729 56.6802C164.017 56.4961 164.202 56.2273 164.283 55.8737H165.335C165.26 56.2983 165.091 56.6561 164.828 56.9469C164.566 57.2377 164.25 57.4567 163.88 57.604C163.511 57.7512 163.123 57.8249 162.718 57.8249ZM160.902 54.0769H164.299C164.299 53.7181 164.238 53.3941 164.117 53.1051C163.996 52.8162 163.812 52.5876 163.565 52.4193C163.318 52.2511 163.007 52.167 162.629 52.167C162.238 52.167 161.915 52.2611 161.659 52.4492C161.403 52.6372 161.212 52.8778 161.087 53.1707C160.961 53.4637 160.9 53.7658 160.902 54.0769Z" fill="white"/>
<path d="M168.544 57.7037L166.286 51.4407H167.337L168.996 56.3007H169.1L170.77 51.4407H171.812L169.563 57.7037H168.544Z" fill="white"/>
<path d="M175.663 57.8249C175.081 57.8249 174.568 57.6979 174.125 57.444C173.682 57.1901 173.335 56.8249 173.087 56.3484C172.838 55.8719 172.713 55.3008 172.713 54.635C172.713 53.9764 172.826 53.398 173.051 52.8999C173.277 52.4017 173.604 52.0138 174.032 51.736C174.46 51.4583 174.977 51.3194 175.583 51.3194C176.171 51.3194 176.668 51.4461 177.075 51.6997C177.481 51.9532 177.79 52.312 178.002 52.7761C178.213 53.2403 178.319 53.7892 178.319 54.423V54.833H173.844C173.843 55.2291 173.907 55.5874 174.038 55.9079C174.169 56.2283 174.368 56.4832 174.635 56.6725C174.902 56.8618 175.238 56.9564 175.643 56.9564C176.041 56.9564 176.385 56.8644 176.674 56.6802C176.963 56.4961 177.148 56.2273 177.228 55.8737H178.28C178.205 56.2983 178.036 56.6561 177.774 56.9469C177.511 57.2377 177.195 57.4567 176.826 57.604C176.456 57.7512 176.069 57.8249 175.663 57.8249ZM173.848 54.0769H177.244C177.244 53.7181 177.184 53.3941 177.062 53.1051C176.941 52.8162 176.757 52.5876 176.51 52.4193C176.264 52.2511 175.952 52.167 175.575 52.167C175.184 52.167 174.86 52.2611 174.604 52.4492C174.348 52.6372 174.158 52.8778 174.032 53.1707C173.907 53.4637 173.845 53.7658 173.848 54.0769ZM181.444 57.7813C181.108 57.7813 180.837 57.735 180.629 57.6423C180.421 57.5496 180.261 57.4242 180.151 57.2661C180.04 57.108 179.965 56.9277 179.925 56.7252C179.886 56.5227 179.866 56.3117 179.866 56.0921V48.7026H180.967V55.9839C180.967 56.3002 181.028 56.537 181.151 56.6941C181.274 56.8512 181.447 56.9374 181.67 56.9526L182.007 56.961V57.6829C181.914 57.7116 181.817 57.7351 181.717 57.7536C181.617 57.7721 181.526 57.7813 181.444 57.7813ZM186.032 57.8249C185.456 57.8249 184.953 57.7008 184.524 57.4527C184.094 57.2046 183.76 56.8406 183.523 56.3607C183.286 55.8808 183.167 55.2934 183.167 54.5986C183.167 53.9431 183.278 53.3693 183.499 52.8772C183.721 52.3852 184.046 52.0026 184.473 51.7293C184.9 51.456 185.421 51.3194 186.036 51.3194C186.612 51.3194 187.112 51.4458 187.537 51.6987C187.961 51.9516 188.291 52.3218 188.525 52.8092C188.76 53.2966 188.878 53.8931 188.878 54.5986C188.878 55.2364 188.769 55.7972 188.553 56.2811C188.337 56.765 188.018 57.1433 187.597 57.4159C187.176 57.6886 186.654 57.8249 186.032 57.8249ZM186.036 56.9436C186.41 56.9436 186.726 56.8478 186.984 56.6563C187.242 56.4648 187.437 56.1916 187.571 55.8366C187.704 55.4816 187.771 55.0592 187.771 54.5695C187.771 54.1234 187.712 53.7213 187.595 53.3631C187.477 53.005 187.291 52.7217 187.035 52.5131C186.78 52.3046 186.447 52.2003 186.036 52.2003C185.658 52.2003 185.338 52.294 185.076 52.4813C184.815 52.6687 184.616 52.9394 184.481 53.2936C184.345 53.6477 184.277 54.073 184.277 54.5695C184.277 55.0115 184.337 55.412 184.457 55.771C184.576 56.13 184.766 56.4151 185.025 56.6265C185.284 56.8379 185.621 56.9436 186.036 56.9436ZM190.36 59.6542V51.4405H191.474L191.489 52.5331C191.559 52.4034 191.651 52.2681 191.766 52.1273C191.882 51.9864 192.023 51.8546 192.191 51.7316C192.359 51.6087 192.555 51.5093 192.778 51.4333C193.001 51.3574 193.255 51.3194 193.541 51.3194C194.039 51.3194 194.479 51.4331 194.86 51.6607C195.24 51.8882 195.538 52.2366 195.753 52.7058C195.968 53.1751 196.075 53.7699 196.075 54.4904C196.075 55.2064 195.971 55.8123 195.763 56.308C195.555 56.8038 195.255 57.1805 194.864 57.4383C194.472 57.696 194.002 57.8249 193.453 57.8249C193.174 57.8249 192.926 57.7855 192.71 57.7069C192.495 57.6282 192.307 57.525 192.148 57.3974C191.99 57.2697 191.856 57.1338 191.748 56.9896C191.641 56.8455 191.553 56.7059 191.485 56.5708V59.6542H190.36ZM193.241 56.9519C193.757 56.9519 194.178 56.7548 194.504 56.3607C194.831 55.9666 194.994 55.3538 194.994 54.5222C194.994 53.8093 194.845 53.2427 194.546 52.8224C194.248 52.4021 193.813 52.192 193.241 52.192C192.661 52.192 192.221 52.4074 191.922 52.8383C191.623 53.2692 191.473 53.8305 191.473 54.5222C191.473 54.9727 191.54 55.3817 191.673 55.7492C191.806 56.1168 192.004 56.4091 192.266 56.6262C192.528 56.8433 192.853 56.9519 193.241 56.9519ZM197.557 57.7037V51.4405H198.638V52.3504C198.809 52.0732 199.046 51.832 199.347 51.627C199.648 51.4219 200.042 51.3194 200.526 51.3194C200.754 51.3194 200.986 51.3581 201.221 51.4354C201.456 51.5128 201.672 51.6274 201.869 51.7794C202.066 51.9314 202.218 52.1191 202.326 52.3425C202.521 52.0362 202.783 51.7891 203.114 51.6012C203.444 51.4133 203.816 51.3194 204.229 51.3194C204.45 51.3194 204.679 51.3528 204.917 51.4198C205.154 51.4867 205.375 51.6034 205.578 51.7699C205.782 51.9363 205.947 52.1682 206.074 52.4653C206.202 52.7625 206.266 53.1434 206.266 53.6079V57.7037H205.146V53.7182C205.146 53.3398 205.085 53.0458 204.963 52.8362C204.841 52.6267 204.683 52.4801 204.489 52.3965C204.295 52.3129 204.087 52.2711 203.866 52.2711C203.669 52.2711 203.463 52.309 203.245 52.3846C203.028 52.4603 202.843 52.5889 202.691 52.7707C202.538 52.9524 202.462 53.202 202.462 53.5195V57.7037H201.347V53.3923C201.347 53.1437 201.281 52.9365 201.151 52.7707C201.02 52.6048 200.857 52.4801 200.663 52.3965C200.468 52.3129 200.273 52.2711 200.078 52.2711C199.866 52.2711 199.652 52.3136 199.436 52.3985C199.22 52.4834 199.039 52.6181 198.893 52.8025C198.748 52.9868 198.675 53.2258 198.675 53.5195V57.7037H197.557ZM210.654 57.8249C210.072 57.8249 209.559 57.6979 209.116 57.444C208.672 57.1901 208.326 56.8249 208.077 56.3484C207.829 55.8719 207.704 55.3008 207.704 54.635C207.704 53.9764 207.817 53.398 208.042 52.8999C208.267 52.4017 208.594 52.0138 209.023 51.736C209.451 51.4583 209.968 51.3194 210.573 51.3194C211.162 51.3194 211.659 51.4461 212.065 51.6997C212.472 51.9532 212.781 52.312 212.992 52.7761C213.204 53.2403 213.31 53.7892 213.31 54.423V54.833H208.835C208.833 55.2291 208.898 55.5874 209.029 55.9079C209.16 56.2283 209.359 56.4832 209.626 56.6725C209.893 56.8618 210.229 56.9564 210.633 56.9564C211.032 56.9564 211.376 56.8644 211.665 56.6802C211.953 56.4961 212.138 56.2273 212.219 55.8737H213.271C213.196 56.2983 213.027 56.6561 212.765 56.9469C212.502 57.2377 212.186 57.4567 211.816 57.604C211.447 57.7512 211.059 57.8249 210.654 57.8249ZM208.838 54.0769H212.235C212.235 53.7181 212.175 53.3941 212.053 53.1051C211.932 52.8162 211.748 52.5876 211.501 52.4193C211.255 52.2511 210.943 52.167 210.565 52.167C210.174 52.167 209.851 52.2611 209.595 52.4492C209.339 52.6372 209.148 52.8778 209.023 53.1707C208.897 53.4637 208.836 53.7658 208.838 54.0769ZM214.857 57.7037V51.4405H215.942V52.3504C216.044 52.1748 216.184 52.011 216.362 51.8591C216.54 51.7073 216.757 51.5849 217.015 51.492C217.272 51.3991 217.566 51.3527 217.898 51.3527C218.293 51.3527 218.658 51.4313 218.99 51.5885C219.322 51.7458 219.588 51.9905 219.788 52.3226C219.987 52.6548 220.087 53.0832 220.087 53.6079V57.7037H218.968V53.7182C218.968 53.2287 218.84 52.8659 218.585 52.6296C218.331 52.3934 217.998 52.2753 217.588 52.2753C217.309 52.2753 217.046 52.3207 216.799 52.4116C216.552 52.5024 216.352 52.6397 216.201 52.8234C216.05 53.0071 215.974 53.2391 215.974 53.5195V57.7037H214.857ZM224.123 57.7371C223.691 57.7371 223.356 57.6778 223.118 57.5593C222.881 57.4408 222.715 57.2668 222.622 57.0372C222.529 56.8077 222.482 56.5253 222.482 56.1902V52.2605H221.467V51.4405H222.511L222.782 49.6173H223.601V51.4364H225.011V52.2605H223.601L223.605 56.1527C223.605 56.3754 223.628 56.5382 223.673 56.641C223.717 56.7438 223.795 56.8095 223.906 56.8383C224.016 56.8671 224.169 56.8815 224.365 56.8815H225.05V57.6307C224.971 57.6605 224.854 57.6856 224.699 57.7062C224.544 57.7268 224.352 57.7371 224.123 57.7371Z" fill="white"/>
<path d="M229.699 57.7036V48.9446H230.768L235.389 55.7506V48.9446H236.507V57.7036H235.508L230.817 50.7966V57.7036H229.699Z" fill="white"/>
<path d="M241.773 57.8249C241.348 57.8249 240.944 57.773 240.56 57.6692C240.175 57.5654 239.827 57.411 239.515 57.206C239.204 57.001 238.947 56.7464 238.745 56.4422C238.543 56.1379 238.414 55.784 238.36 55.3804H239.531C239.605 55.7109 239.749 55.9886 239.964 56.2135C240.179 56.4384 240.447 56.6081 240.768 56.7226C241.09 56.8371 241.441 56.8944 241.823 56.8944C242.195 56.8944 242.537 56.8354 242.849 56.7174C243.161 56.5994 243.412 56.4286 243.601 56.2049C243.79 55.9812 243.885 55.7115 243.885 55.3958C243.885 55.0486 243.772 54.7686 243.545 54.5558C243.318 54.343 242.969 54.1732 242.498 54.0465L240.7 53.5812C240.292 53.4804 239.931 53.3378 239.619 53.1535C239.306 52.9692 239.062 52.7266 238.887 52.4255C238.711 52.1245 238.623 51.7495 238.623 51.3005C238.623 50.8063 238.759 50.3741 239.031 50.0039C239.304 49.6336 239.675 49.3464 240.145 49.1422C240.615 48.938 241.145 48.8359 241.737 48.8359C242.424 48.8359 243.002 48.955 243.469 49.1932C243.937 49.4314 244.292 49.7439 244.534 50.1307C244.777 50.5175 244.899 50.9324 244.9 51.3754H243.75C243.712 50.9758 243.595 50.6596 243.399 50.4269C243.203 50.1942 242.958 50.0267 242.663 49.9243C242.369 49.8219 242.048 49.7706 241.702 49.7706C241.076 49.7706 240.604 49.9123 240.284 50.1956C239.964 50.4789 239.804 50.8181 239.804 51.213C239.804 51.5723 239.919 51.8546 240.149 52.06C240.38 52.2654 240.718 52.4249 241.164 52.5384L242.919 52.989C243.437 53.1097 243.851 53.2853 244.159 53.5157C244.467 53.746 244.688 54.0138 244.823 54.3189C244.959 54.624 245.026 54.9538 245.026 55.3083C245.026 55.7929 244.891 56.225 244.621 56.6046C244.351 56.9842 243.973 57.2825 243.487 57.4994C243.001 57.7164 242.429 57.8249 241.773 57.8249Z" fill="white"/>
<path d="M248.553 57.7036L246.038 48.9446H247.164L249.1 55.9186L251.068 48.9446H251.946L253.906 55.9186L255.878 48.9446H257L254.453 57.7036H253.418L251.501 50.9156L249.556 57.7036H248.553Z" fill="white"/>
</g>
<defs>
<clipPath id="clip0_1477_1280">
<rect width="257" height="59" fill="white" transform="translate(0 0.883545)"/>
</clipPath>
</defs>
</svg>
