<svg width="60" height="61" viewBox="0 0 60 61" fill="none" xmlns="http://www.w3.org/2000/svg">
<g id="Icon Quick Find Food &#38; Drink 1" clip-path="url(#clip0_1477_1260)">
<g id="Group">
<path id="Vector" d="M30 60.6995C46.5685 60.6995 60 47.4957 60 31.208C60 14.9202 46.5685 1.71643 30 1.71643C13.4315 1.71643 0 14.9202 0 31.208C0 47.4957 13.4315 60.6995 30 60.6995Z" fill="#F3631B"/>
<g id="Group_2">
<path id="Vector_2" d="M38.9189 30.9939C42.6095 30.9939 44.4548 32.5056 44.4548 35.5289C44.4548 38.5523 42.6095 40.064 38.9189 40.064M18.6207 30.9939H37.7859V39.3436C37.7859 43.8367 34.0806 47.4792 29.51 47.4792H26.8966C22.3259 47.4792 18.6207 43.8367 18.6207 39.3436V30.9939Z" stroke="white" stroke-width="2.8"/>
<path id="Vector_3" d="M24.4427 13.9198C26.286 15.0345 27.2076 16.1444 27.2076 17.2494C27.2076 18.9069 23.0443 18.9069 23.0443 20.677C23.0443 21.8571 24.1423 23.2327 26.3383 24.8039" stroke="white" stroke-width="2.8" stroke-linecap="round"/>
<path id="Vector_4" d="M31.8236 13.9198C33.6669 15.0345 34.5885 16.1444 34.5885 17.2494C34.5885 18.9069 30.4252 18.9069 30.4252 20.677C30.4252 21.8571 31.5232 23.2327 33.7192 24.8039" stroke="white" stroke-width="2.8" stroke-linecap="round"/>
</g>
</g>
</g>
<defs>
<clipPath id="clip0_1477_1260">
<rect width="60" height="60" fill="white" transform="translate(0 0.883545)"/>
</clipPath>
</defs>
</svg>
