<svg width="26" height="24" viewBox="0 0 26 24" fill="none" xmlns="http://www.w3.org/2000/svg">
<g id="Icon Audio">
<path id="Vector" d="M4.36414 18.2502H7.97447L11.5927 21.8684C12.1563 22.4345 12.8799 22.8141 13.666 22.956C14.4521 23.0979 15.2627 22.9953 15.9886 22.6619C16.6661 22.3434 17.2388 21.8384 17.6393 21.2059C18.0399 20.5734 18.2517 19.8399 18.25 19.0913V3.94372C18.2563 3.42776 18.1601 2.91569 17.9669 2.43724C17.7737 1.95879 17.4873 1.52348 17.1245 1.1566C16.7617 0.78971 16.3296 0.498552 15.8533 0.300025C15.377 0.101497 14.8661 -0.000443341 14.3501 0.000120641C13.8344 -0.00394989 13.3231 0.0950252 12.8462 0.291237C12.3693 0.487448 11.9364 0.776943 11.5729 1.14273L7.97447 4.761H4.36414C3.2067 4.761 2.09666 5.22079 1.27823 6.03923C0.459792 6.85766 0 7.9677 0 9.12514V13.886C0 15.0435 0.459792 16.1535 1.27823 16.9719C2.09666 17.7904 3.2067 18.2502 4.36414 18.2502ZM2.38044 9.12514C2.38044 8.59903 2.58944 8.09447 2.96145 7.72245C3.33347 7.35044 3.83803 7.14144 4.36414 7.14144H7.81181C8.54555 7.14677 9.25158 6.8615 9.77567 6.34796L13.2789 2.84475C13.493 2.63183 13.7658 2.48755 14.0623 2.43033C14.3588 2.3731 14.6656 2.40552 14.9436 2.52345C15.2216 2.64137 15.4582 2.83946 15.6231 3.09243C15.788 3.34539 15.8739 3.64177 15.8696 3.94372V19.0674C15.876 19.2708 15.8414 19.4733 15.7678 19.663C15.6943 19.8526 15.5833 20.0256 15.4415 20.1714C15.2997 20.3173 15.13 20.4331 14.9425 20.512C14.755 20.5909 14.5535 20.6312 14.3501 20.6306C14.1504 20.6314 13.9525 20.5926 13.7679 20.5163C13.5833 20.44 13.4158 20.3278 13.2749 20.1863L9.77567 16.6632C9.25158 16.1497 8.54555 15.8644 7.81181 15.8697H4.36414C3.83803 15.8697 3.33347 15.6607 2.96145 15.2887C2.58944 14.9167 2.38044 14.4121 2.38044 13.886V9.12514Z" fill="#22272B"/>
<path id="Vector_2" d="M23.4077 7.93494C23.1724 7.93514 22.9425 8.00506 22.747 8.13586C22.5514 8.26666 22.399 8.45247 22.309 8.66982C22.219 8.88718 22.1955 9.12633 22.2413 9.35707C22.2872 9.58781 22.4003 9.79979 22.5666 9.96624C22.8815 10.4158 23.0379 10.9574 23.0109 11.5056C23.0366 12.0537 22.8804 12.5949 22.5666 13.0449C22.3437 13.2681 22.2185 13.5706 22.2185 13.886C22.2185 14.2014 22.3437 14.504 22.5666 14.7271C22.7932 14.9435 23.0944 15.0642 23.4077 15.0642C23.721 15.0642 24.0222 14.9435 24.2488 14.7271C25.0277 13.839 25.4366 12.6861 25.3914 11.5056C25.4354 10.3253 25.0266 9.17286 24.2488 8.28407C24.0258 8.06079 23.7232 7.93521 23.4077 7.93494Z" fill="#22272B"/>
</g>
</svg>
