<svg width="60" height="61" viewBox="0 0 60 61" fill="none" xmlns="http://www.w3.org/2000/svg">
<g id="Icon Quick Find Points of Interest 1" clip-path="url(#clip0_1477_1246)">
<g id="Group">
<path id="Vector" d="M30 60.6995C46.5685 60.6995 60 47.4957 60 31.208C60 14.9202 46.5685 1.71643 30 1.71643C13.4315 1.71643 0 14.9202 0 31.208C0 47.4957 13.4315 60.6995 30 60.6995Z" fill="#F3631B"/>
<path id="Vector_2" d="M23.0679 15.9537C22.3257 15.9537 21.7242 16.5454 21.7242 17.2747V45.6794C21.7242 46.4087 22.3257 47.0004 23.0679 47.0004C23.8101 47.0004 24.4116 46.4087 24.4116 45.6794V33.2236H42.3222C43.1168 33.2236 43.6753 32.5825 43.6753 31.8918C43.6753 31.6448 43.6039 31.3913 43.446 31.1588L38.652 25.6894C38.4338 25.4403 38.4338 25.0716 38.652 24.8225L43.4464 19.3527C43.6043 19.1202 43.6756 18.8667 43.6756 18.62C43.6756 17.9294 43.1172 17.2882 42.3226 17.2882H24.4116V17.275C24.4116 16.5458 23.8101 15.9537 23.0679 15.9537ZM24.7636 20.6079C24.7636 20.2412 25.0659 19.944 25.4389 19.944H39.3614L36.2252 23.5222L35.0855 24.8225C34.8673 25.0716 34.8673 25.4403 35.0855 25.6894L36.2252 26.9896L39.3614 30.5678H25.4389C25.0659 30.5678 24.7636 30.2706 24.7636 29.904V20.6079Z" fill="white"/>
</g>
</g>
<defs>
<clipPath id="clip0_1477_1246">
<rect width="60" height="60" fill="white" transform="translate(0 0.883545)"/>
</clipPath>
</defs>
</svg>
