<svg width="60" height="61" viewBox="0 0 60 61" fill="none" xmlns="http://www.w3.org/2000/svg">
<g id="Icon Quick Find Interactives 1" clip-path="url(#clip0_1477_1253)">
<g id="Group">
<path id="Vector" d="M30 60.6995C46.5685 60.6995 60 47.4957 60 31.208C60 14.9202 46.5685 1.71643 30 1.71643C13.4315 1.71643 0 14.9202 0 31.208C0 47.4957 13.4315 60.6995 30 60.6995Z" fill="#F3631B"/>
<path id="Vector_2" d="M16.9655 41.3774V45.0385H20.6897V47.4791H14.4828V41.3774H16.9655ZM45.1034 41.3774V47.4791H38.8965V45.0385H42.6207V41.3774H45.1034ZM29.7931 17.2961L41.0069 25.3097L40.9655 25.3422V35.7232L29.7517 43.0778L18.6207 34.869V25.3422L18.5793 25.3097L29.7931 17.2961ZM38.4828 27.1158L31.0345 32.4364V39.2947L38.4828 34.4215V27.1158ZM21.1034 27.1158V33.6486L28.5517 39.1402V32.4364L21.1034 27.1158ZM29.7931 20.3063L22.8 25.3097L29.7931 30.313L36.7862 25.3097L29.7931 20.3063ZM20.6897 14.9368V17.3774H16.9655V21.0385H14.4828V14.9368H20.6897ZM45.1034 14.9368V21.0385H42.6207V17.3774H38.8965V14.9368H45.1034Z" fill="white"/>
</g>
</g>
<defs>
<clipPath id="clip0_1477_1253">
<rect width="60" height="60" fill="white" transform="translate(0 0.883545)"/>
</clipPath>
</defs>
</svg>
