<svg width="353" height="124" viewBox="0 0 353 124" fill="none" xmlns="http://www.w3.org/2000/svg">
<path d="M8.22047 23.3433C6.56714 23.3433 5.16439 23.0049 4.01222 22.328C2.86005 21.6512 2.02822 20.7031 1.51672 19.4838C1.00522 18.2645 0.873469 16.8436 1.12147 15.2213C1.3488 13.692 1.88097 12.2815 2.71797 10.9898C3.55497 9.69812 4.63739 8.65962 5.96522 7.87429C7.29305 7.08896 8.8043 6.69629 10.499 6.69629C12.2453 6.69629 13.6429 7.05796 14.6917 7.78129C15.7406 8.50462 16.4613 9.49404 16.854 10.7495C17.2466 12.005 17.3241 13.4233 17.0865 15.0043L16.854 16.3993H6.82547C6.7118 17.04 6.72472 17.5618 6.86422 17.9648C7.00372 18.3678 7.2388 18.6623 7.56947 18.8483C7.90014 19.0343 8.28247 19.1273 8.71647 19.1273C9.26414 19.1273 9.77047 19.024 10.2355 18.8173C10.7005 18.6106 11.1035 18.1973 11.4445 17.5773H16.7455C16.4045 18.7656 15.7845 19.7912 14.8855 20.654C13.9865 21.5169 12.948 22.1808 11.77 22.6458C10.592 23.1108 9.4088 23.3433 8.22047 23.3433ZM7.27497 13.0203H11.8475C11.9095 12.6173 11.8811 12.2427 11.7622 11.8965C11.6434 11.5504 11.429 11.274 11.119 11.0673C10.809 10.8606 10.3956 10.7573 9.87897 10.7573C9.47597 10.7573 9.08589 10.8606 8.70872 11.0673C8.33155 11.274 8.01639 11.5504 7.76322 11.8965C7.51005 12.2427 7.3473 12.6173 7.27497 13.0203Z" fill="#2E808E"/>
<path d="M17.1484 23.0329L24.5419 14.6629L20.1709 7.00586H26.3089L28.3549 10.4779L31.3929 7.00586H37.5619L30.8039 14.6629L35.6089 23.0329H29.4709L27.0529 18.7859L23.3329 23.0329H17.1484Z" fill="#2E808E"/>
<path d="M36.6167 28.0243L39.5772 7.00629H45.6377L45.3742 8.86629C45.8599 8.31862 46.3946 7.88721 46.9784 7.57204C47.5623 7.25687 48.1539 7.03212 48.7532 6.89779C49.3525 6.76346 49.9002 6.69629 50.3962 6.69629C51.5122 6.69629 52.4732 6.99079 53.2792 7.57979C54.0852 8.16879 54.6613 9.07554 55.0075 10.3C55.3536 11.5245 55.3924 13.0823 55.1237 14.9733C54.8344 17.009 54.2944 18.639 53.5039 19.8635C52.7134 21.088 51.7834 21.9741 50.7139 22.5218C49.6444 23.0695 48.5414 23.3433 47.4047 23.3433C47.074 23.3433 46.7304 23.302 46.3739 23.2193C46.0174 23.1366 45.6687 23.0049 45.3277 22.824C44.9867 22.6432 44.6689 22.4107 44.3744 22.1265C44.0799 21.8424 43.8294 21.4936 43.6227 21.0803L42.6462 28.0243H36.6167ZM46.4282 19.0343C47.0999 19.0343 47.7379 18.7165 48.3424 18.081C48.9469 17.4455 49.3474 16.4096 49.5437 14.9733C49.7194 13.6713 49.6005 12.6741 49.1872 11.9818C48.7739 11.2895 48.2314 10.9433 47.5597 10.9433C46.6814 10.9433 45.9864 11.3437 45.4749 12.1445C44.9634 12.9454 44.6354 13.8883 44.4907 14.9733C44.3977 15.6243 44.3925 16.2624 44.4752 16.8875C44.5579 17.5127 44.7568 18.0268 45.0719 18.4298C45.3871 18.8328 45.8392 19.0343 46.4282 19.0343Z" fill="#2E808E"/>
<path d="M62.4548 23.374C60.9875 23.374 59.8637 23.2164 59.0835 22.9013C58.3034 22.5861 57.766 22.1753 57.4715 21.669C57.177 21.1627 57.0298 20.6047 57.0298 19.995C57.0298 19.3853 57.0711 18.786 57.1538 18.197L59.9128 0H65.8028L63.1678 17.391C63.1058 17.7733 63.1471 18.135 63.2918 18.476C63.4365 18.817 63.9066 19.0443 64.7023 19.158L65.3223 19.22L64.7643 22.878C64.3923 23.0123 64.0074 23.1286 63.6095 23.2267C63.2117 23.3249 62.8268 23.374 62.4548 23.374Z" fill="#2E808E"/>
<path d="M74.6381 23.3433C73.0054 23.3433 71.6388 22.992 70.5383 22.2893C69.4378 21.5866 68.6525 20.6179 68.1823 19.383C67.7121 18.1482 67.5959 16.73 67.8336 15.1283C68.0919 13.444 68.6628 11.9689 69.5463 10.703C70.4298 9.43721 71.5355 8.45296 72.8633 7.75029C74.1911 7.04762 75.6404 6.69629 77.2111 6.69629C78.8851 6.69629 80.2697 7.06054 81.3651 7.78904C82.4604 8.51754 83.238 9.51729 83.6978 10.7883C84.1576 12.0593 84.2636 13.506 84.0156 15.1283C83.7676 16.7196 83.2173 18.1327 82.3648 19.3675C81.5123 20.6024 80.4273 21.5737 79.1098 22.2815C77.7923 22.9894 76.3017 23.3433 74.6381 23.3433ZM75.3666 18.9723C75.9969 18.9723 76.5058 18.7527 76.8933 18.3135C77.2808 17.8744 77.5779 17.3396 77.7846 16.7093C77.9912 16.079 78.1359 15.4796 78.2186 14.9113C78.3116 14.3326 78.3452 13.741 78.3193 13.1365C78.2935 12.532 78.1514 12.0257 77.8931 11.6175C77.6347 11.2094 77.1904 11.0053 76.5601 11.0053C75.9091 11.0053 75.3872 11.2094 74.9946 11.6175C74.6019 12.0257 74.3074 12.532 74.1111 13.1365C73.9147 13.741 73.7752 14.3326 73.6926 14.9113C73.6099 15.4796 73.5763 16.079 73.5918 16.7093C73.6073 17.3396 73.7442 17.8744 74.0026 18.3135C74.2609 18.7527 74.7156 18.9723 75.3666 18.9723Z" fill="#2E808E"/>
<path d="M85.395 23.0333L87.6425 7.00629H93.4705L92.8505 11.4393C93.2122 10.5816 93.6746 9.79371 94.2378 9.07554C94.8009 8.35737 95.47 7.78129 96.245 7.34729C97.02 6.91329 97.9035 6.69629 98.8955 6.69629C98.9679 6.69629 99.0247 6.69629 99.066 6.69629C99.1074 6.69629 99.128 6.69629 99.128 6.69629L98.322 12.4003C98.291 12.39 98.2652 12.3848 98.2445 12.3848C98.2239 12.3848 98.1877 12.3796 98.136 12.3693C96.6584 12.2143 95.5294 12.2737 94.7493 12.5475C93.9691 12.8214 93.4214 13.2166 93.1063 13.7333C92.7911 14.25 92.5922 14.7873 92.5095 15.3453L91.4245 23.0333H85.395Z" fill="#2E808E"/>
<path d="M106.212 23.3433C104.558 23.3433 103.156 23.0049 102.003 22.328C100.851 21.6512 100.019 20.7031 99.5079 19.4838C98.9964 18.2645 98.8647 16.8436 99.1127 15.2213C99.34 13.692 99.8722 12.2815 100.709 10.9898C101.546 9.69812 102.629 8.65962 103.956 7.87429C105.284 7.08896 106.796 6.69629 108.49 6.69629C110.237 6.69629 111.634 7.05796 112.683 7.78129C113.732 8.50462 114.453 9.49404 114.845 10.7495C115.238 12.005 115.315 13.4233 115.078 15.0043L114.845 16.3993H104.817C104.703 17.04 104.716 17.5618 104.855 17.9648C104.995 18.3678 105.23 18.6623 105.561 18.8483C105.891 19.0343 106.274 19.1273 106.708 19.1273C107.255 19.1273 107.762 19.024 108.227 18.8173C108.692 18.6106 109.095 18.1973 109.436 17.5773H114.737C114.396 18.7656 113.776 19.7912 112.877 20.654C111.978 21.5169 110.939 22.1808 109.761 22.6458C108.583 23.1108 107.4 23.3433 106.212 23.3433ZM105.266 13.0203H109.839C109.901 12.6173 109.872 12.2427 109.753 11.8965C109.635 11.5504 109.42 11.274 109.11 11.0673C108.8 10.8606 108.387 10.7573 107.87 10.7573C107.467 10.7573 107.077 10.8606 106.7 11.0673C106.323 11.274 106.008 11.5504 105.754 11.8965C105.501 12.2427 105.339 12.6173 105.266 13.0203Z" fill="#2E808E"/>
<path d="M121.2 17.5146L121.805 13.2676H147.426L146.822 17.5146H121.2Z" fill="#2E808E"/>
<path d="M340.158 123.182C336.63 123.182 333.9 122.685 331.968 121.691C330.036 120.711 329.07 119.339 329.07 117.575C329.07 116.805 329.252 116.154 329.616 115.622C329.994 115.076 330.435 114.628 330.939 114.278C331.457 113.928 331.933 113.655 332.367 113.459C332.801 113.249 333.081 113.102 333.207 113.018C332.969 112.878 332.661 112.703 332.283 112.493C331.919 112.269 331.59 111.975 331.296 111.611C331.002 111.233 330.855 110.743 330.855 110.141C330.855 109.441 331.184 108.797 331.842 108.209C332.514 107.607 333.522 107.166 334.866 106.886C333.55 106.242 332.528 105.374 331.8 104.282C331.072 103.19 330.708 102.028 330.708 100.796C330.708 99.3818 331.107 98.1638 331.905 97.1418C332.703 96.1058 333.823 95.3148 335.265 94.7688C336.721 94.2228 338.429 93.9498 340.389 93.9498C341.831 93.9498 343.028 94.1108 343.98 94.4328C344.946 94.7548 345.835 95.2028 346.647 95.7768C346.913 95.6788 347.291 95.5318 347.781 95.3358C348.285 95.1258 348.831 94.9018 349.419 94.6638C350.007 94.4258 350.567 94.1948 351.099 93.9708C351.645 93.7468 352.086 93.5648 352.422 93.4248L352.401 97.3308L348.621 98.0238C348.817 98.4438 348.971 98.9058 349.083 99.4098C349.209 99.9138 349.272 100.376 349.272 100.796C349.272 102.056 348.929 103.218 348.243 104.282C347.557 105.332 346.528 106.172 345.156 106.802C343.784 107.432 342.069 107.747 340.011 107.747C339.815 107.747 339.563 107.747 339.255 107.747C338.947 107.733 338.688 107.712 338.478 107.684C337.176 107.726 336.28 107.88 335.79 108.146C335.3 108.398 335.055 108.678 335.055 108.986C335.055 109.378 335.37 109.644 336 109.784C336.63 109.924 337.666 110.043 339.108 110.141C339.626 110.183 340.284 110.225 341.082 110.267C341.894 110.309 342.79 110.365 343.77 110.435C346.15 110.575 347.963 111.17 349.209 112.22C350.469 113.27 351.099 114.663 351.099 116.399C351.099 118.387 350.196 120.011 348.39 121.271C346.584 122.545 343.84 123.182 340.158 123.182ZM340.935 120.431C342.853 120.431 344.302 120.151 345.282 119.591C346.262 119.045 346.752 118.226 346.752 117.134C346.752 116.322 346.437 115.657 345.807 115.139C345.177 114.621 344.232 114.32 342.972 114.236L337.176 113.858C336.602 113.83 336.028 113.956 335.454 114.236C334.894 114.516 334.432 114.908 334.068 115.412C333.704 115.902 333.522 116.448 333.522 117.05C333.522 118.142 334.124 118.975 335.328 119.549C336.532 120.137 338.401 120.431 340.935 120.431ZM340.137 104.996C341.593 104.996 342.762 104.646 343.644 103.946C344.54 103.232 344.988 102.21 344.988 100.88C344.988 99.5078 344.54 98.4508 343.644 97.7088C342.762 96.9528 341.593 96.5748 340.137 96.5748C338.667 96.5748 337.477 96.9528 336.567 97.7088C335.671 98.4648 335.223 99.5218 335.223 100.88C335.223 102.168 335.65 103.176 336.504 103.904C337.372 104.632 338.583 104.996 340.137 104.996Z" fill="#22272B"/>
<path d="M306.324 116V94.2857H310.713V97.4147C311.063 96.8267 311.532 96.2737 312.12 95.7557C312.722 95.2377 313.457 94.8177 314.325 94.4957C315.207 94.1737 316.222 94.0127 317.37 94.0127C318.728 94.0127 319.981 94.2857 321.129 94.8317C322.291 95.3637 323.222 96.2037 323.922 97.3517C324.622 98.4857 324.972 99.9557 324.972 101.762V116H320.478V102.245C320.478 100.691 320.058 99.5357 319.218 98.7797C318.392 98.0237 317.321 97.6457 316.005 97.6457C315.123 97.6457 314.283 97.7927 313.485 98.0867C312.687 98.3807 312.043 98.8287 311.553 99.4307C311.063 100.019 310.818 100.761 310.818 101.657V116H306.324Z" fill="#22272B"/>
<path d="M295.56 116V94.2863H299.886V116H295.56ZM295.455 90.0863V85.6553H299.97V90.0863H295.455Z" fill="#22272B"/>
<path d="M278.027 116.42C275.185 116.42 272.938 115.447 271.286 113.501C269.648 111.541 268.829 108.72 268.829 105.038C268.829 102.784 269.158 100.824 269.816 99.1579C270.488 97.4779 271.475 96.1759 272.777 95.2519C274.079 94.3279 275.703 93.8659 277.649 93.8659C278.615 93.8659 279.483 93.9849 280.253 94.2229C281.023 94.4609 281.695 94.7689 282.269 95.1469C282.843 95.5249 283.326 95.9309 283.718 96.3649C284.11 96.7989 284.404 97.2049 284.6 97.5829V84.7939H289.136V116H285.755L285.251 111.548C285.097 112.024 284.859 112.542 284.537 113.102C284.229 113.662 283.795 114.194 283.235 114.698C282.689 115.202 281.989 115.615 281.135 115.937C280.281 116.259 279.245 116.42 278.027 116.42ZM278.888 113.039C280.904 113.039 282.36 112.409 283.256 111.149C284.152 109.875 284.6 107.789 284.6 104.891C284.586 103.253 284.383 101.867 283.991 100.733C283.613 99.5989 283.011 98.7449 282.185 98.1709C281.373 97.5829 280.302 97.2889 278.972 97.2889C277.306 97.2889 275.941 97.8909 274.877 99.0949C273.827 100.285 273.302 102.217 273.302 104.891C273.302 107.523 273.778 109.539 274.73 110.939C275.696 112.339 277.082 113.039 278.888 113.039Z" fill="#22272B"/>
<path d="M264.011 116.294C262.723 116.294 261.687 116.126 260.903 115.79C260.133 115.454 259.545 115.006 259.139 114.446C258.733 113.872 258.46 113.228 258.32 112.514C258.194 111.786 258.131 111.037 258.131 110.267V84.7939H262.562V109.805C262.562 110.813 262.758 111.583 263.15 112.115C263.556 112.647 264.172 112.948 264.998 113.018L266.132 113.06V115.916C265.782 116.028 265.418 116.119 265.04 116.189C264.676 116.259 264.333 116.294 264.011 116.294Z" fill="#22272B"/>
<path d="M247.367 116V94.2863H251.693V116H247.367ZM247.262 90.0863V85.6553H251.777V90.0863H247.262Z" fill="#22272B"/>
<path d="M230.427 116.42C229.335 116.406 228.292 116.245 227.298 115.937C226.304 115.629 225.415 115.167 224.631 114.551C223.861 113.935 223.245 113.172 222.783 112.262C222.335 111.352 222.111 110.295 222.111 109.091V94.2861H226.626V108.608C226.626 109.91 227.032 110.967 227.844 111.779C228.656 112.591 229.881 112.997 231.519 112.997C233.003 112.997 234.193 112.612 235.089 111.842C235.985 111.058 236.433 109.917 236.433 108.419V94.2861H240.906V116H237.42L236.916 111.8C236.664 112.934 236.209 113.844 235.551 114.53C234.907 115.202 234.137 115.692 233.241 116C232.359 116.294 231.421 116.434 230.427 116.42Z" fill="#22272B"/>
<path d="M194.945 116V85.6338H205.046C208.812 85.6338 211.647 86.3128 213.551 87.6708C215.469 89.0288 216.428 90.9888 216.428 93.5508C216.428 95.1328 216.015 96.4978 215.189 97.6458C214.377 98.7798 212.949 99.7318 210.905 100.502C212.109 100.768 213.117 101.153 213.929 101.657C214.741 102.147 215.378 102.714 215.84 103.358C216.316 104.002 216.652 104.702 216.848 105.458C217.058 106.214 217.163 106.998 217.163 107.81C217.163 110.568 216.19 112.626 214.244 113.984C212.312 115.328 209.365 116 205.403 116H194.945ZM199.439 112.346H205.424C207.776 112.346 209.561 111.947 210.779 111.149C211.997 110.337 212.606 109.126 212.606 107.516C212.606 106.354 212.305 105.402 211.703 104.66C211.101 103.918 210.289 103.372 209.267 103.022C208.245 102.672 207.104 102.497 205.844 102.497H199.439V112.346ZM199.439 98.7798H205.844C206.6 98.7798 207.342 98.7028 208.07 98.5488C208.798 98.3948 209.463 98.1428 210.065 97.7928C210.667 97.4288 211.15 96.9458 211.514 96.3438C211.878 95.7418 212.06 95.0068 212.06 94.1388C212.06 92.4868 211.437 91.2618 210.191 90.4638C208.945 89.6658 207.328 89.2668 205.34 89.2668H199.439V98.7798Z" fill="#22272B"/>
<path d="M170.896 116.42C169.384 116.42 167.963 116.182 166.633 115.706C165.317 115.23 164.211 114.481 163.315 113.459C162.433 112.437 161.88 111.128 161.656 109.532H165.667C165.849 110.358 166.192 111.044 166.696 111.59C167.214 112.122 167.83 112.521 168.544 112.787C169.272 113.039 170.049 113.165 170.875 113.165C172.247 113.165 173.36 112.92 174.214 112.43C175.068 111.926 175.495 111.156 175.495 110.12C175.495 109.378 175.264 108.783 174.802 108.335C174.34 107.887 173.619 107.558 172.639 107.348L168.313 106.319C166.521 105.899 165.086 105.234 164.008 104.324C162.93 103.4 162.384 102.112 162.37 100.46C162.37 99.1862 162.685 98.0522 163.315 97.0582C163.959 96.0642 164.911 95.2872 166.171 94.7272C167.445 94.1532 169.013 93.8662 170.875 93.8662C173.325 93.8662 175.292 94.4122 176.776 95.5042C178.274 96.5962 179.044 98.1782 179.086 100.25H175.201C175.061 99.2562 174.606 98.4792 173.836 97.9192C173.08 97.3452 172.079 97.0582 170.833 97.0582C169.545 97.0582 168.488 97.3172 167.662 97.8352C166.836 98.3392 166.423 99.1162 166.423 100.166C166.423 100.88 166.724 101.447 167.326 101.867C167.942 102.273 168.845 102.609 170.035 102.875L174.151 103.904C175.215 104.184 176.09 104.555 176.776 105.017C177.462 105.465 178.001 105.962 178.393 106.508C178.785 107.054 179.058 107.621 179.212 108.209C179.38 108.797 179.464 109.35 179.464 109.868C179.464 111.24 179.114 112.416 178.414 113.396C177.728 114.362 176.748 115.111 175.474 115.643C174.2 116.161 172.674 116.42 170.896 116.42Z" fill="#22272B"/>
<path d="M154.401 96.0708L156.753 90.7158L154.863 90.5898V85.6338H160.071V89.9808L156.333 96.0708H154.401Z" fill="#22272B"/>
<path d="M149.577 116.294C148.289 116.294 147.253 116.126 146.469 115.79C145.699 115.454 145.111 115.006 144.705 114.446C144.299 113.872 144.026 113.228 143.886 112.514C143.76 111.786 143.697 111.037 143.697 110.267V84.7939H148.128V109.805C148.128 110.813 148.324 111.583 148.716 112.115C149.122 112.647 149.738 112.948 150.564 113.018L151.698 113.06V115.916C151.348 116.028 150.984 116.119 150.606 116.189C150.242 116.259 149.899 116.294 149.577 116.294Z" fill="#22272B"/>
<path d="M126.514 116.42C125.114 116.42 123.868 116.168 122.776 115.664C121.698 115.16 120.851 114.432 120.235 113.48C119.619 112.528 119.311 111.38 119.311 110.036C119.311 107.628 120.158 105.829 121.852 104.639C123.56 103.449 126.29 102.819 130.042 102.749L133.612 102.644V101.069C133.612 99.8232 133.241 98.8432 132.499 98.1292C131.757 97.4152 130.609 97.0652 129.055 97.0792C127.907 97.0792 126.878 97.3452 125.968 97.8772C125.058 98.4092 124.463 99.2842 124.183 100.502H120.298C120.382 99.0602 120.795 97.8492 121.537 96.8692C122.293 95.8752 123.329 95.1262 124.645 94.6222C125.961 94.1182 127.501 93.8662 129.265 93.8662C131.253 93.8662 132.884 94.1392 134.158 94.6852C135.432 95.2172 136.377 96.0012 136.993 97.0372C137.623 98.0732 137.938 99.3332 137.938 100.817V116H134.116L133.78 112.01C132.968 113.676 131.939 114.831 130.693 115.475C129.447 116.105 128.054 116.42 126.514 116.42ZM127.921 113.291C128.607 113.291 129.286 113.172 129.958 112.934C130.63 112.682 131.239 112.346 131.785 111.926C132.331 111.492 132.765 111.009 133.087 110.477C133.423 109.945 133.598 109.399 133.612 108.839V105.248L130.672 105.311C129.174 105.325 127.9 105.479 126.85 105.773C125.814 106.067 125.016 106.522 124.456 107.138C123.91 107.754 123.637 108.573 123.637 109.595C123.637 110.757 124.036 111.667 124.834 112.325C125.646 112.969 126.675 113.291 127.921 113.291Z" fill="#22272B"/>
<path d="M104.363 116V94.2862H108.668V98.7382C109.032 97.6742 109.536 96.7852 110.18 96.0712C110.838 95.3432 111.601 94.7972 112.469 94.4332C113.337 94.0552 114.254 93.8662 115.22 93.8662C115.514 93.8662 115.794 93.8872 116.06 93.9292C116.326 93.9572 116.536 94.0132 116.69 94.0972V98.4232C116.508 98.3392 116.27 98.2832 115.976 98.2552C115.696 98.2272 115.451 98.2062 115.241 98.1922C114.289 98.1222 113.421 98.1712 112.637 98.3392C111.853 98.5072 111.174 98.7872 110.6 99.1792C110.04 99.5712 109.606 100.082 109.298 100.712C109.004 101.342 108.857 102.084 108.857 102.938V116H104.363Z" fill="#22272B"/>
<path d="M89.8594 116.42C87.8014 116.42 85.9884 115.979 84.4204 115.097C82.8524 114.201 81.6274 112.927 80.7454 111.275C79.8774 109.623 79.4434 107.656 79.4434 105.374C79.4434 103.12 79.8424 101.132 80.6404 99.4102C81.4384 97.6742 82.5934 96.3162 84.1054 95.3362C85.6174 94.3562 87.4374 93.8662 89.5654 93.8662C91.6514 93.8662 93.4154 94.3142 94.8574 95.2102C96.2994 96.1062 97.3914 97.3662 98.1334 98.9902C98.8754 100.6 99.2464 102.504 99.2464 104.702V106.193H83.9584C83.9444 107.495 84.1544 108.664 84.5884 109.7C85.0224 110.722 85.6664 111.534 86.5204 112.136C87.3884 112.724 88.4664 113.018 89.7544 113.018C91.0564 113.018 92.1764 112.724 93.1144 112.136C94.0664 111.548 94.6894 110.673 94.9834 109.511H99.1414C98.8894 110.995 98.2944 112.255 97.3564 113.291C96.4184 114.327 95.2914 115.111 93.9754 115.643C92.6594 116.161 91.2874 116.42 89.8594 116.42ZM83.9584 103.274H94.9624C94.9624 102.14 94.7664 101.111 94.3744 100.187C93.9824 99.2492 93.3804 98.5142 92.5684 97.9822C91.7704 97.4362 90.7624 97.1632 89.5444 97.1632C88.2984 97.1632 87.2624 97.4642 86.4364 98.0662C85.6104 98.6682 84.9874 99.4382 84.5674 100.376C84.1614 101.314 83.9584 102.28 83.9584 103.274Z" fill="#22272B"/>
<path d="M56.0469 116V94.2857H60.4359V97.4147C60.7859 96.8267 61.2549 96.2737 61.8429 95.7557C62.4449 95.2377 63.1799 94.8177 64.0479 94.4957C64.9299 94.1737 65.9449 94.0127 67.0929 94.0127C68.4509 94.0127 69.7039 94.2857 70.8519 94.8317C72.0139 95.3637 72.9449 96.2037 73.6449 97.3517C74.3449 98.4857 74.6949 99.9557 74.6949 101.762V116H70.2009V102.245C70.2009 100.691 69.7809 99.5357 68.9409 98.7797C68.1149 98.0237 67.0439 97.6457 65.7279 97.6457C64.8459 97.6457 64.0059 97.7927 63.2079 98.0867C62.4099 98.3807 61.7659 98.8287 61.2759 99.4307C60.7859 100.019 60.5409 100.761 60.5409 101.657V116H56.0469Z" fill="#22272B"/>
<path d="M41.543 116.42C39.485 116.42 37.672 115.979 36.104 115.097C34.536 114.201 33.311 112.927 32.429 111.275C31.561 109.623 31.127 107.656 31.127 105.374C31.127 103.12 31.526 101.132 32.324 99.4102C33.122 97.6742 34.277 96.3162 35.789 95.3362C37.301 94.3562 39.121 93.8662 41.249 93.8662C43.335 93.8662 45.099 94.3142 46.541 95.2102C47.983 96.1062 49.075 97.3662 49.817 98.9902C50.559 100.6 50.93 102.504 50.93 104.702V106.193H35.642C35.628 107.495 35.838 108.664 36.272 109.7C36.706 110.722 37.35 111.534 38.204 112.136C39.072 112.724 40.15 113.018 41.438 113.018C42.74 113.018 43.86 112.724 44.798 112.136C45.75 111.548 46.373 110.673 46.667 109.511H50.825C50.573 110.995 49.978 112.255 49.04 113.291C48.102 114.327 46.975 115.111 45.659 115.643C44.343 116.161 42.971 116.42 41.543 116.42ZM35.642 103.274H46.646C46.646 102.14 46.45 101.111 46.058 100.187C45.666 99.2492 45.064 98.5142 44.252 97.9822C43.454 97.4362 42.446 97.1632 41.228 97.1632C39.982 97.1632 38.946 97.4642 38.12 98.0662C37.294 98.6682 36.671 99.4382 36.251 100.376C35.845 101.314 35.642 102.28 35.642 103.274Z" fill="#22272B"/>
<path d="M13.3091 116.42C10.6071 116.42 8.27608 115.804 6.31608 114.572C4.35608 113.34 2.84408 111.569 1.78008 109.259C0.730078 106.935 0.205078 104.149 0.205078 100.901C0.205078 97.6249 0.744078 94.8179 1.82208 92.4799C2.91408 90.1279 4.46108 88.3289 6.46308 87.0829C8.46508 85.8369 10.8171 85.2139 13.5191 85.2139C15.1291 85.2139 16.6201 85.4869 17.9921 86.0329C19.3781 86.5789 20.5961 87.3209 21.6461 88.2589C22.7101 89.1969 23.5501 90.2609 24.1661 91.4509C24.7821 92.6409 25.1321 93.8869 25.2161 95.1889H20.4281C20.2321 94.1109 19.8121 93.1169 19.1681 92.2069C18.5381 91.2829 17.7331 90.5409 16.7531 89.9809C15.7731 89.4209 14.6671 89.1409 13.4351 89.1409C11.7971 89.1409 10.3481 89.5469 9.08808 90.3589C7.82808 91.1709 6.84108 92.4379 6.12708 94.1599C5.42708 95.8679 5.07708 98.0799 5.07708 100.796C5.07708 102.91 5.29408 104.709 5.72808 106.193C6.17608 107.677 6.78508 108.874 7.55508 109.784C8.32508 110.694 9.22808 111.359 10.2641 111.779C11.3001 112.185 12.4061 112.388 13.5821 112.388C14.7441 112.388 15.7661 112.185 16.6481 111.779C17.5301 111.373 18.2651 110.848 18.8531 110.204C19.4551 109.56 19.9171 108.867 20.2391 108.125C20.5751 107.369 20.7711 106.641 20.8271 105.941L20.9741 103.484H13.8761V100.25L25.6571 100.292V116H22.4021V111.548C21.8701 112.374 21.2051 113.158 20.4071 113.9C19.6091 114.642 18.6291 115.251 17.4671 115.727C16.3051 116.189 14.9191 116.42 13.3091 116.42Z" fill="#22272B"/>
<path d="M166.666 74.0002V52.2862H170.971V56.7382C171.335 55.6742 171.839 54.7852 172.483 54.0712C173.141 53.3432 173.904 52.7972 174.772 52.4332C175.64 52.0552 176.557 51.8662 177.523 51.8662C177.817 51.8662 178.097 51.8872 178.363 51.9292C178.629 51.9572 178.839 52.0132 178.993 52.0972V56.4232C178.811 56.3392 178.573 56.2832 178.279 56.2552C177.999 56.2272 177.754 56.2062 177.544 56.1922C176.592 56.1222 175.724 56.1712 174.94 56.3392C174.156 56.5072 173.477 56.7872 172.903 57.1792C172.343 57.5712 171.909 58.0822 171.601 58.7122C171.307 59.3422 171.16 60.0842 171.16 60.9382V74.0002H166.666Z" fill="#22272B"/>
<path d="M149.482 74.4202C148.082 74.4202 146.836 74.1682 145.744 73.6642C144.666 73.1602 143.819 72.4322 143.203 71.4802C142.587 70.5282 142.279 69.3802 142.279 68.0362C142.279 65.6282 143.126 63.8292 144.82 62.6392C146.528 61.4492 149.258 60.8192 153.01 60.7492L156.58 60.6442V59.0692C156.58 57.8232 156.209 56.8432 155.467 56.1292C154.725 55.4152 153.577 55.0652 152.023 55.0792C150.875 55.0792 149.846 55.3452 148.936 55.8772C148.026 56.4092 147.431 57.2842 147.151 58.5022H143.266C143.35 57.0602 143.763 55.8492 144.505 54.8692C145.261 53.8752 146.297 53.1262 147.613 52.6222C148.929 52.1182 150.469 51.8662 152.233 51.8662C154.221 51.8662 155.852 52.1392 157.126 52.6852C158.4 53.2172 159.345 54.0012 159.961 55.0372C160.591 56.0732 160.906 57.3332 160.906 58.8172V74.0002H157.084L156.748 70.0102C155.936 71.6762 154.907 72.8312 153.661 73.4752C152.415 74.1052 151.022 74.4202 149.482 74.4202ZM150.889 71.2912C151.575 71.2912 152.254 71.1722 152.926 70.9342C153.598 70.6822 154.207 70.3462 154.753 69.9262C155.299 69.4922 155.733 69.0092 156.055 68.4772C156.391 67.9452 156.566 67.3992 156.58 66.8392V63.2482L153.64 63.3112C152.142 63.3252 150.868 63.4792 149.818 63.7732C148.782 64.0672 147.984 64.5222 147.424 65.1382C146.878 65.7542 146.605 66.5732 146.605 67.5952C146.605 68.7572 147.004 69.6672 147.802 70.3252C148.614 70.9692 149.643 71.2912 150.889 71.2912Z" fill="#22272B"/>
<path d="M127.332 74.0002V52.2862H131.637V56.7382C132.001 55.6742 132.505 54.7852 133.149 54.0712C133.807 53.3432 134.57 52.7972 135.438 52.4332C136.306 52.0552 137.223 51.8662 138.189 51.8662C138.483 51.8662 138.763 51.8872 139.029 51.9292C139.295 51.9572 139.505 52.0132 139.659 52.0972V56.4232C139.477 56.3392 139.239 56.2832 138.945 56.2552C138.665 56.2272 138.42 56.2062 138.21 56.1922C137.258 56.1222 136.39 56.1712 135.606 56.3392C134.822 56.5072 134.143 56.7872 133.569 57.1792C133.009 57.5712 132.575 58.0822 132.267 58.7122C131.973 59.3422 131.826 60.0842 131.826 60.9382V74.0002H127.332Z" fill="#22272B"/>
<path d="M119.017 74.1464C117.407 74.1464 116.161 73.9294 115.279 73.4954C114.397 73.0614 113.781 72.4384 113.431 71.6264C113.081 70.8004 112.906 69.8064 112.906 68.6444V55.5194H109.378V52.2854H113.053L114.145 45.9014H117.421V52.2644H122.293V55.5194H117.421L117.442 68.4764C117.442 69.1904 117.512 69.7154 117.652 70.0514C117.806 70.3734 118.058 70.5834 118.408 70.6814C118.772 70.7654 119.262 70.8074 119.878 70.8074H122.398V73.7264C122.132 73.8384 121.719 73.9364 121.159 74.0204C120.613 74.1044 119.899 74.1464 119.017 74.1464Z" fill="#22272B"/>
<path d="M97.6419 74.4202C96.1299 74.4202 94.7089 74.1822 93.3789 73.7062C92.0629 73.2302 90.9569 72.4812 90.0609 71.4592C89.1789 70.4372 88.6259 69.1282 88.4019 67.5322H92.4129C92.5949 68.3582 92.9379 69.0442 93.4419 69.5902C93.9599 70.1222 94.5759 70.5212 95.2899 70.7872C96.0179 71.0392 96.7949 71.1652 97.6209 71.1652C98.9929 71.1652 100.106 70.9202 100.96 70.4302C101.814 69.9262 102.241 69.1562 102.241 68.1202C102.241 67.3782 102.01 66.7832 101.548 66.3352C101.086 65.8872 100.365 65.5582 99.3849 65.3482L95.0589 64.3192C93.2669 63.8992 91.8319 63.2342 90.7539 62.3242C89.6759 61.4002 89.1299 60.1122 89.1159 58.4602C89.1159 57.1862 89.4309 56.0522 90.0609 55.0582C90.7049 54.0642 91.6569 53.2872 92.9169 52.7272C94.1909 52.1532 95.7589 51.8662 97.6209 51.8662C100.071 51.8662 102.038 52.4122 103.522 53.5042C105.02 54.5962 105.79 56.1782 105.832 58.2502H101.947C101.807 57.2562 101.352 56.4792 100.582 55.9192C99.8259 55.3452 98.8249 55.0582 97.5789 55.0582C96.2909 55.0582 95.2339 55.3172 94.4079 55.8352C93.5819 56.3392 93.1689 57.1162 93.1689 58.1662C93.1689 58.8802 93.4699 59.4472 94.0719 59.8672C94.6879 60.2732 95.5909 60.6092 96.7809 60.8752L100.897 61.9042C101.961 62.1842 102.836 62.5552 103.522 63.0172C104.208 63.4652 104.747 63.9622 105.139 64.5082C105.531 65.0542 105.804 65.6212 105.958 66.2092C106.126 66.7972 106.21 67.3502 106.21 67.8682C106.21 69.2402 105.86 70.4162 105.16 71.3962C104.474 72.3622 103.494 73.1112 102.22 73.6432C100.946 74.1612 99.4199 74.4202 97.6419 74.4202Z" fill="#22272B"/>
<path d="M79.0386 74.0003V52.2863H83.3646V74.0003H79.0386ZM78.9336 48.0863V43.6553H83.4486V48.0863H78.9336Z" fill="#22272B"/>
<path d="M62.1539 81.1818C58.6259 81.1818 55.8959 80.6848 53.9639 79.6908C52.0319 78.7108 51.0659 77.3388 51.0659 75.5748C51.0659 74.8048 51.2479 74.1538 51.6119 73.6218C51.9899 73.0758 52.4309 72.6278 52.9349 72.2778C53.4529 71.9278 53.9289 71.6548 54.3629 71.4588C54.7969 71.2488 55.0769 71.1018 55.2029 71.0178C54.9649 70.8778 54.6569 70.7028 54.2789 70.4928C53.9149 70.2688 53.5859 69.9748 53.2919 69.6108C52.9979 69.2328 52.8509 68.7428 52.8509 68.1408C52.8509 67.4408 53.1799 66.7968 53.8379 66.2088C54.5099 65.6068 55.5179 65.1658 56.8619 64.8858C55.5459 64.2418 54.5239 63.3738 53.7959 62.2818C53.0679 61.1898 52.7039 60.0278 52.7039 58.7958C52.7039 57.3818 53.1029 56.1638 53.9009 55.1418C54.6989 54.1058 55.8189 53.3148 57.2609 52.7688C58.7169 52.2228 60.4249 51.9498 62.3849 51.9498C63.8269 51.9498 65.0239 52.1108 65.9759 52.4328C66.9419 52.7548 67.8309 53.2028 68.6429 53.7768C68.9089 53.6788 69.2869 53.5318 69.7769 53.3358C70.2809 53.1258 70.8269 52.9018 71.4149 52.6638C72.0029 52.4258 72.5629 52.1948 73.0949 51.9708C73.6409 51.7468 74.0819 51.5648 74.4179 51.4248L74.3969 55.3308L70.6169 56.0238C70.8129 56.4438 70.9669 56.9058 71.0789 57.4098C71.2049 57.9138 71.2679 58.3758 71.2679 58.7958C71.2679 60.0558 70.9249 61.2178 70.2389 62.2818C69.5529 63.3318 68.5239 64.1718 67.1519 64.8018C65.7799 65.4318 64.0649 65.7468 62.0069 65.7468C61.8109 65.7468 61.5589 65.7468 61.2509 65.7468C60.9429 65.7328 60.6839 65.7118 60.4739 65.6838C59.1719 65.7258 58.2759 65.8798 57.7859 66.1458C57.2959 66.3978 57.0509 66.6778 57.0509 66.9858C57.0509 67.3778 57.3659 67.6438 57.9959 67.7838C58.6259 67.9238 59.6619 68.0428 61.1039 68.1408C61.6219 68.1828 62.2799 68.2248 63.0779 68.2668C63.8899 68.3088 64.7859 68.3648 65.7659 68.4348C68.1459 68.5748 69.9589 69.1698 71.2049 70.2198C72.4649 71.2698 73.0949 72.6628 73.0949 74.3988C73.0949 76.3868 72.1919 78.0108 70.3859 79.2708C68.5799 80.5448 65.8359 81.1818 62.1539 81.1818ZM62.9309 78.4308C64.8489 78.4308 66.2979 78.1508 67.2779 77.5908C68.2579 77.0448 68.7479 76.2258 68.7479 75.1338C68.7479 74.3218 68.4329 73.6568 67.8029 73.1388C67.1729 72.6208 66.2279 72.3198 64.9679 72.2358L59.1719 71.8578C58.5979 71.8298 58.0239 71.9558 57.4499 72.2358C56.8899 72.5158 56.4279 72.9078 56.0639 73.4118C55.6999 73.9018 55.5179 74.4478 55.5179 75.0498C55.5179 76.1418 56.1199 76.9748 57.3239 77.5488C58.5279 78.1368 60.3969 78.4308 62.9309 78.4308ZM62.1329 62.9958C63.5889 62.9958 64.7579 62.6458 65.6399 61.9458C66.5359 61.2318 66.9839 60.2098 66.9839 58.8798C66.9839 57.5078 66.5359 56.4508 65.6399 55.7088C64.7579 54.9528 63.5889 54.5748 62.1329 54.5748C60.6629 54.5748 59.4729 54.9528 58.5629 55.7088C57.6669 56.4648 57.2189 57.5218 57.2189 58.8798C57.2189 60.1678 57.6459 61.1758 58.4999 61.9038C59.3679 62.6318 60.5789 62.9958 62.1329 62.9958Z" fill="#22272B"/>
<path d="M38.3848 74.4202C36.3268 74.4202 34.5137 73.9792 32.9457 73.0972C31.3777 72.2012 30.1528 70.9272 29.2708 69.2752C28.4027 67.6232 27.9688 65.6562 27.9688 63.3742C27.9688 61.1202 28.3678 59.1322 29.1658 57.4102C29.9638 55.6742 31.1188 54.3162 32.6308 53.3362C34.1428 52.3562 35.9627 51.8662 38.0907 51.8662C40.1767 51.8662 41.9407 52.3142 43.3827 53.2102C44.8247 54.1062 45.9168 55.3662 46.6588 56.9902C47.4008 58.6002 47.7717 60.5042 47.7717 62.7022V64.1932H32.4838C32.4698 65.4952 32.6797 66.6642 33.1137 67.7002C33.5477 68.7222 34.1917 69.5342 35.0457 70.1362C35.9137 70.7242 36.9917 71.0182 38.2797 71.0182C39.5817 71.0182 40.7017 70.7242 41.6397 70.1362C42.5917 69.5482 43.2147 68.6732 43.5087 67.5112H47.6667C47.4147 68.9952 46.8198 70.2552 45.8818 71.2912C44.9437 72.3272 43.8167 73.1112 42.5007 73.6432C41.1847 74.1612 39.8128 74.4202 38.3848 74.4202ZM32.4838 61.2742H43.4877C43.4877 60.1402 43.2918 59.1112 42.8998 58.1872C42.5078 57.2492 41.9058 56.5142 41.0938 55.9822C40.2958 55.4362 39.2878 55.1632 38.0697 55.1632C36.8238 55.1632 35.7877 55.4642 34.9617 56.0662C34.1357 56.6682 33.5127 57.4382 33.0927 58.3762C32.6867 59.3142 32.4838 60.2802 32.4838 61.2742Z" fill="#22272B"/>
<path d="M1.84326 73.9998V43.6338H13.8973C16.1513 43.6338 18.0203 43.9838 19.5043 44.6838C20.9883 45.3698 22.0943 46.3498 22.8223 47.6238C23.5503 48.8978 23.9143 50.4028 23.9143 52.1388C23.9143 53.7768 23.6343 55.1418 23.0743 56.2338C22.5283 57.3258 21.8143 58.2148 20.9323 58.9008C20.0643 59.5868 19.1473 60.1258 18.1813 60.5178L24.0613 73.9998H19.3363L13.9603 61.2948H6.33726V73.9998H1.84326ZM6.33726 57.6618H12.6793C14.7933 57.6618 16.4313 57.2068 17.5933 56.2968C18.7553 55.3728 19.3363 54.0568 19.3363 52.3488C19.3363 50.6688 18.8043 49.3948 17.7403 48.5268C16.6903 47.6588 15.2623 47.2248 13.4563 47.2248H6.33726V57.6618Z" fill="#22272B"/>
</svg>
