<svg width="233" height="87" viewBox="0 0 233 87" fill="none" xmlns="http://www.w3.org/2000/svg">
<path d="M6.76599 15.408C5.67468 15.408 4.74877 15.1847 3.98826 14.7379C3.22776 14.2912 2.67869 13.6654 2.34107 12.8605C2.00345 12.0557 1.91648 11.1178 2.08018 10.047C2.23023 9.03752 2.5815 8.1065 3.13397 7.25392C3.68645 6.40133 4.40091 5.71585 5.27737 5.19748C6.15383 4.67911 7.15135 4.41992 8.26995 4.41992C9.42264 4.41992 10.3451 4.65865 11.0374 5.13609C11.7297 5.61354 12.2055 6.26662 12.4647 7.09533C12.7239 7.92405 12.775 8.86019 12.6181 9.90375L12.4647 10.8245H5.84519C5.77017 11.2474 5.77869 11.5919 5.87077 11.8579C5.96285 12.1239 6.11802 12.3183 6.33628 12.441C6.55455 12.5638 6.80691 12.6252 7.09338 12.6252C7.45488 12.6252 7.78909 12.557 8.09602 12.4206C8.40295 12.2842 8.66896 12.0113 8.89404 11.6021H12.393C12.168 12.3865 11.7587 13.0634 11.1653 13.633C10.5719 14.2025 9.88645 14.6407 9.10889 14.9476C8.33133 15.2546 7.55036 15.408 6.76599 15.408ZM6.14189 8.59418H9.16005C9.20097 8.32817 9.18221 8.08092 9.10378 7.85243C9.02534 7.62394 8.88381 7.44148 8.67919 7.30507C8.47457 7.16866 8.20174 7.10045 7.86071 7.10045C7.5947 7.10045 7.33722 7.16866 7.08826 7.30507C6.83931 7.44148 6.63128 7.62394 6.46417 7.85243C6.29706 8.08092 6.18964 8.32817 6.14189 8.59418Z" fill="white"/>
<path d="M12.6592 15.2029L17.5394 9.67815L14.6542 4.62402H18.7057L20.0562 6.91577L22.0615 4.62402H26.1334L21.6727 9.67815L24.8443 15.2029H20.7928L19.1968 12.3996L16.7414 15.2029H12.6592Z" fill="white"/>
<path d="M25.5093 18.4978L27.4634 4.62454H31.4637L31.2898 5.85227C31.6104 5.49077 31.9633 5.20601 32.3487 4.99797C32.7341 4.78994 33.1246 4.64159 33.5202 4.55293C33.9158 4.46426 34.2773 4.41992 34.6047 4.41992C35.3413 4.41992 35.9756 4.61431 36.5076 5.00309C37.0396 5.39187 37.4199 5.99038 37.6484 6.79864C37.8769 7.60689 37.9025 8.6351 37.7251 9.88329C37.5341 11.227 37.1778 12.3029 36.656 13.1112C36.1342 13.9194 35.5203 14.5043 34.8144 14.8658C34.1084 15.2273 33.3803 15.408 32.6301 15.408C32.4118 15.408 32.185 15.3808 31.9497 15.3262C31.7144 15.2716 31.4842 15.1847 31.2591 15.0653C31.034 14.9459 30.8243 14.7925 30.6299 14.6049C30.4355 14.4173 30.2701 14.1871 30.1337 13.9143L29.4891 18.4978H25.5093ZM31.9855 12.5638C32.4289 12.5638 32.85 12.3541 33.249 11.9346C33.6481 11.5151 33.9124 10.8314 34.0419 9.88329C34.1579 9.02388 34.0795 8.36569 33.8066 7.9087C33.5338 7.45171 33.1757 7.22322 32.7324 7.22322C32.1526 7.22322 31.6939 7.48752 31.3563 8.01613C31.0187 8.54473 30.8021 9.16712 30.7066 9.88329C30.6453 10.313 30.6418 10.7342 30.6964 11.1468C30.751 11.5595 30.8823 11.8988 31.0903 12.1648C31.2983 12.4308 31.5967 12.5638 31.9855 12.5638Z" fill="white"/>
<path d="M42.5647 15.4284C41.5962 15.4284 40.8545 15.3244 40.3395 15.1163C39.8245 14.9083 39.4699 14.6372 39.2755 14.303C39.0811 13.9688 38.9839 13.6004 38.9839 13.198C38.9839 12.7956 39.0112 12.4 39.0657 12.0112L40.8869 0H44.7746L43.0354 11.4792C42.9944 11.7316 43.0217 11.9703 43.1172 12.1954C43.2127 12.4205 43.5231 12.5705 44.0482 12.6455L44.4575 12.6865L44.0892 15.101C43.8436 15.1897 43.5896 15.2664 43.327 15.3312C43.0644 15.396 42.8103 15.4284 42.5647 15.4284Z" fill="white"/>
<path d="M50.6061 15.408C49.5284 15.408 48.6264 15.1761 47.9 14.7123C47.1736 14.2485 46.6552 13.6091 46.3449 12.794C46.0345 11.9789 45.9578 11.0428 46.1147 9.9856C46.2852 8.87383 46.662 7.90018 47.2452 7.06464C47.8283 6.22911 48.5582 5.57944 49.4346 5.11563C50.3111 4.65183 51.2677 4.41992 52.3044 4.41992C53.4094 4.41992 54.3233 4.66035 55.0463 5.14121C55.7693 5.62207 56.2826 6.28197 56.5861 7.12091C56.8896 7.95986 56.9595 8.91475 56.7958 9.9856C56.6321 11.036 56.2689 11.9687 55.7062 12.7838C55.1435 13.5989 54.4274 14.24 53.5577 14.7072C52.6881 15.1744 51.7042 15.408 50.6061 15.408ZM51.0869 12.5229C51.503 12.5229 51.8389 12.378 52.0947 12.0881C52.3505 11.7982 52.5466 11.4452 52.683 11.0292C52.8194 10.6131 52.9149 10.2175 52.9694 9.84236C53.0308 9.46041 53.053 9.06992 53.0359 8.67091C53.0189 8.2719 52.9251 7.93769 52.7546 7.66827C52.5841 7.39886 52.2908 7.26415 51.8747 7.26415C51.445 7.26415 51.1006 7.39886 50.8414 7.66827C50.5822 7.93769 50.3878 8.2719 50.2582 8.67091C50.1286 9.06992 50.0365 9.46041 49.982 9.84236C49.9274 10.2175 49.9052 10.6131 49.9155 11.0292C49.9257 11.4452 50.0161 11.7982 50.1866 12.0881C50.3571 12.378 50.6572 12.5229 51.0869 12.5229Z" fill="white"/>
<path d="M57.7065 15.2034L59.19 4.62454H63.0369L62.6277 7.55062C62.8664 6.9845 63.1716 6.46442 63.5433 5.99038C63.9151 5.51635 64.3567 5.13609 64.8683 4.84962C65.3798 4.56316 65.963 4.41992 66.6178 4.41992C66.6655 4.41992 66.703 4.41992 66.7303 4.41992C66.7576 4.41992 66.7712 4.41992 66.7712 4.41992L66.2392 8.18494C66.2188 8.17812 66.2017 8.17471 66.1881 8.17471C66.1744 8.17471 66.1505 8.1713 66.1164 8.16448C65.1411 8.06217 64.3959 8.10139 63.881 8.28213C63.366 8.46288 63.0045 8.72377 62.7965 9.06481C62.5884 9.40584 62.4571 9.76052 62.4026 10.1288L61.6864 15.2034H57.7065Z" fill="white"/>
<path d="M71.4466 15.408C70.3553 15.408 69.4294 15.1847 68.6689 14.7379C67.9084 14.2912 67.3594 13.6654 67.0217 12.8605C66.6841 12.0557 66.5971 11.1178 66.7608 10.047C66.9109 9.03752 67.2622 8.1065 67.8146 7.25392C68.3671 6.40133 69.0816 5.71585 69.958 5.19748C70.8345 4.67911 71.832 4.41992 72.9506 4.41992C74.1033 4.41992 75.0258 4.65865 75.7181 5.13609C76.4104 5.61354 76.8861 6.26662 77.1453 7.09533C77.4045 7.92405 77.4557 8.86019 77.2988 9.90375L77.1453 10.8245H70.5259C70.4508 11.2474 70.4594 11.5919 70.5514 11.8579C70.6435 12.1239 70.7987 12.3183 71.0169 12.441C71.2352 12.5638 71.4876 12.6252 71.774 12.6252C72.1355 12.6252 72.4697 12.557 72.7767 12.4206C73.0836 12.2842 73.3496 12.0113 73.5747 11.6021H77.0737C76.8486 12.3865 76.4394 13.0634 75.846 13.633C75.2526 14.2025 74.5671 14.6407 73.7895 14.9476C73.012 15.2546 72.231 15.408 71.4466 15.408ZM70.8226 8.59418H73.8407C73.8816 8.32817 73.8629 8.08092 73.7844 7.85243C73.706 7.62394 73.5645 7.44148 73.3598 7.30507C73.1552 7.16866 72.8824 7.10045 72.5414 7.10045C72.2754 7.10045 72.0179 7.16866 71.7689 7.30507C71.52 7.44148 71.3119 7.62394 71.1448 7.85243C70.9777 8.08092 70.8703 8.32817 70.8226 8.59418Z" fill="white"/>
<path d="M81.3403 11.5611L81.7393 8.75781H98.6512L98.2522 11.5611H81.3403Z" fill="white"/>
<path d="M224.78 86.7882C222.512 86.7882 220.743 86.4568 219.474 85.7942C218.204 85.1408 217.57 84.2028 217.57 82.9802C217.57 82.4575 217.691 82.0142 217.934 81.6502C218.176 81.2768 218.466 80.9688 218.802 80.7262C219.138 80.4835 219.45 80.2922 219.74 80.1522C220.029 80.0028 220.22 79.8955 220.314 79.8302C220.146 79.7368 219.945 79.6202 219.712 79.4802C219.478 79.3402 219.268 79.1535 219.082 78.9202C218.904 78.6868 218.816 78.3835 218.816 78.0102C218.816 77.5528 219.03 77.1328 219.46 76.7502C219.889 76.3675 220.528 76.0828 221.378 75.8962C220.528 75.4668 219.866 74.8975 219.39 74.1882C218.914 73.4788 218.676 72.7088 218.676 71.8782C218.676 70.9448 218.928 70.1328 219.432 69.4422C219.936 68.7515 220.659 68.2242 221.602 67.8602C222.544 67.4868 223.669 67.3002 224.976 67.3002C225.918 67.3002 226.707 67.4122 227.342 67.6362C227.986 67.8508 228.583 68.1588 229.134 68.5602C229.283 68.4948 229.521 68.3968 229.848 68.2662C230.174 68.1262 230.529 67.9768 230.912 67.8182C231.304 67.6595 231.668 67.5102 232.004 67.3702C232.349 67.2208 232.624 67.1088 232.83 67.0342L232.816 69.4282L230.282 69.9042C230.431 70.2028 230.548 70.5295 230.632 70.8842C230.716 71.2388 230.758 71.5702 230.758 71.8782C230.758 72.7275 230.534 73.4975 230.086 74.1882C229.647 74.8788 228.98 75.4295 228.084 75.8402C227.188 76.2508 226.068 76.4562 224.724 76.4562C224.612 76.4562 224.467 76.4562 224.29 76.4562C224.122 76.4468 223.977 76.4375 223.856 76.4282C222.866 76.4562 222.185 76.5682 221.812 76.7642C221.448 76.9508 221.266 77.1608 221.266 77.3942C221.266 77.6648 221.476 77.8515 221.896 77.9542C222.316 78.0568 223.025 78.1455 224.024 78.2202C224.388 78.2388 224.836 78.2622 225.368 78.2902C225.909 78.3182 226.511 78.3555 227.174 78.4022C228.686 78.4955 229.852 78.8828 230.674 79.5642C231.495 80.2455 231.906 81.1648 231.906 82.3222C231.906 83.6382 231.318 84.7115 230.142 85.5422C228.975 86.3728 227.188 86.7882 224.78 86.7882ZM225.242 85.1222C226.576 85.1222 227.598 84.9215 228.308 84.5202C229.026 84.1188 229.386 83.5122 229.386 82.7002C229.386 82.1215 229.166 81.6502 228.728 81.2862C228.289 80.9128 227.626 80.6982 226.74 80.6422L222.68 80.3762C222.316 80.3575 221.938 80.4508 221.546 80.6562C221.154 80.8522 220.822 81.1275 220.552 81.4822C220.281 81.8368 220.146 82.2382 220.146 82.6862C220.146 83.4515 220.561 84.0488 221.392 84.4782C222.222 84.9075 223.506 85.1222 225.242 85.1222ZM224.808 74.7902C225.844 74.7902 226.679 74.5475 227.314 74.0622C227.958 73.5768 228.28 72.8582 228.28 71.9062C228.28 70.9262 227.958 70.1795 227.314 69.6662C226.679 69.1528 225.844 68.8962 224.808 68.8962C223.744 68.8962 222.885 69.1575 222.232 69.6802C221.588 70.1935 221.266 70.9355 221.266 71.9062C221.266 72.8208 221.574 73.5302 222.19 74.0342C222.815 74.5382 223.688 74.7902 224.808 74.7902Z" fill="white"/>
<path d="M202.501 81.9995V67.5235H205.007V69.6235C205.241 69.2221 205.563 68.8441 205.973 68.4895C206.393 68.1348 206.897 67.8501 207.485 67.6355C208.083 67.4208 208.769 67.3135 209.543 67.3135C210.458 67.3135 211.298 67.4955 212.063 67.8595C212.838 68.2235 213.454 68.7928 213.911 69.5675C214.378 70.3328 214.611 71.3221 214.611 72.5355V81.9995H212.021V72.7875C212.021 71.6581 211.723 70.8228 211.125 70.2815C210.537 69.7308 209.772 69.4555 208.829 69.4555C208.176 69.4555 207.565 69.5628 206.995 69.7775C206.426 69.9828 205.964 70.3001 205.609 70.7295C205.255 71.1495 205.077 71.6815 205.077 72.3255V81.9995H202.501Z" fill="white"/>
<path d="M195.489 81.9995V67.5235H197.995V81.9995H195.489ZM195.419 64.4575V61.7695H198.065V64.4575H195.419Z" fill="white"/>
<path d="M183.826 82.2803C181.941 82.2803 180.448 81.6363 179.346 80.3483C178.254 79.0603 177.708 77.1796 177.708 74.7063C177.708 73.2036 177.928 71.8923 178.367 70.7723C178.805 69.6523 179.463 68.7843 180.34 68.1683C181.218 67.5523 182.31 67.2443 183.617 67.2443C184.317 67.2443 184.932 67.333 185.464 67.5103C185.996 67.6876 186.458 67.9116 186.85 68.1823C187.242 68.453 187.56 68.733 187.802 69.0223C188.054 69.3116 188.241 69.5776 188.362 69.8203V61.1963H190.98V82.0003H188.992L188.712 79.0323C188.619 79.3123 188.47 79.639 188.264 80.0123C188.059 80.3763 187.77 80.7356 187.396 81.0903C187.032 81.4356 186.556 81.7203 185.968 81.9443C185.38 82.1683 184.666 82.2803 183.826 82.2803ZM184.288 80.2923C185.744 80.2923 186.785 79.849 187.41 78.9623C188.045 78.0663 188.362 76.6056 188.362 74.5803C188.353 73.451 188.213 72.4896 187.942 71.6963C187.672 70.903 187.242 70.301 186.654 69.8903C186.076 69.4703 185.301 69.2603 184.33 69.2603C183.145 69.2603 182.179 69.685 181.432 70.5343C180.686 71.3836 180.312 72.7323 180.312 74.5803C180.312 76.391 180.648 77.7956 181.32 78.7943C181.992 79.793 182.982 80.2923 184.288 80.2923Z" fill="white"/>
<path d="M174.409 82.1823C173.625 82.1823 172.991 82.075 172.505 81.8603C172.029 81.6456 171.661 81.3563 171.399 80.9923C171.147 80.6283 170.975 80.213 170.881 79.7463C170.797 79.2703 170.755 78.7803 170.755 78.2763V61.1963H173.303V78.0243C173.303 78.7523 173.443 79.2983 173.723 79.6623C174.013 80.0263 174.414 80.227 174.927 80.2643L175.711 80.2783V81.9583C175.497 82.0236 175.273 82.075 175.039 82.1123C174.806 82.159 174.596 82.1823 174.409 82.1823Z" fill="white"/>
<path d="M163.743 81.9995V67.5235H166.249V81.9995H163.743ZM163.673 64.4575V61.7695H166.319V64.4575H163.673Z" fill="white"/>
<path d="M152.587 82.2794C151.831 82.2701 151.117 82.1628 150.445 81.9574C149.783 81.7428 149.195 81.4301 148.681 81.0194C148.168 80.6088 147.762 80.1001 147.463 79.4934C147.174 78.8774 147.029 78.1634 147.029 77.3514V67.5234H149.619V77.0854C149.619 78.0281 149.909 78.7934 150.487 79.3814C151.075 79.9694 151.957 80.2634 153.133 80.2634C154.197 80.2634 155.051 79.9881 155.695 79.4374C156.349 78.8774 156.675 78.0468 156.675 76.9454V67.5234H159.251V81.9994H157.193L156.927 79.2274C156.75 79.9554 156.447 80.5434 156.017 80.9914C155.597 81.4394 155.089 81.7708 154.491 81.9854C153.903 82.1908 153.269 82.2888 152.587 82.2794Z" fill="white"/>
<path d="M129.014 81.9999V61.7559H135.524C137.988 61.7559 139.85 62.2085 141.11 63.1139C142.38 64.0192 143.014 65.3259 143.014 67.0339C143.014 68.1072 142.734 69.0265 142.174 69.7919C141.623 70.5572 140.653 71.1872 139.262 71.6819C140.055 71.8499 140.723 72.0925 141.264 72.4099C141.815 72.7272 142.254 73.1005 142.58 73.5299C142.916 73.9499 143.154 74.4165 143.294 74.9299C143.443 75.4432 143.518 75.9845 143.518 76.5539C143.518 78.3832 142.865 79.7505 141.558 80.6559C140.261 81.5519 138.319 81.9999 135.734 81.9999H129.014ZM131.604 79.8439H135.706C137.395 79.8439 138.679 79.5685 139.556 79.0179C140.443 78.4579 140.886 77.5992 140.886 76.4419C140.886 75.5925 140.667 74.9065 140.228 74.3839C139.799 73.8519 139.215 73.4645 138.478 73.2219C137.741 72.9792 136.919 72.8579 136.014 72.8579H131.604V79.8439ZM131.604 70.6599H136.014C136.546 70.6599 137.073 70.6085 137.596 70.5059C138.119 70.4032 138.599 70.2259 139.038 69.9739C139.477 69.7219 139.831 69.3859 140.102 68.9659C140.373 68.5365 140.508 67.9999 140.508 67.3559C140.508 66.1799 140.055 65.3119 139.15 64.7519C138.254 64.1825 137.087 63.8979 135.65 63.8979H131.604V70.6599Z" fill="white"/>
<path d="M112.827 82.2801C111.819 82.2801 110.881 82.1261 110.013 81.8181C109.154 81.5008 108.44 81.0108 107.871 80.3481C107.301 79.6761 106.947 78.8221 106.807 77.7861H109.159C109.28 78.3555 109.513 78.8315 109.859 79.2141C110.204 79.5875 110.629 79.8721 111.133 80.0681C111.646 80.2548 112.206 80.3481 112.813 80.3481C113.793 80.3481 114.581 80.1661 115.179 79.8021C115.776 79.4381 116.075 78.8781 116.075 78.1221C116.075 77.5901 115.916 77.1655 115.599 76.8481C115.291 76.5215 114.805 76.2835 114.143 76.1341L111.147 75.3921C109.98 75.1121 109.047 74.6735 108.347 74.0761C107.656 73.4788 107.306 72.6435 107.297 71.5701C107.297 70.7208 107.502 69.9741 107.913 69.3301C108.323 68.6861 108.935 68.1775 109.747 67.8041C110.568 67.4308 111.59 67.2441 112.813 67.2441C114.39 67.2441 115.659 67.5988 116.621 68.3081C117.582 69.0081 118.086 70.0395 118.133 71.4021H115.837C115.743 70.7115 115.435 70.1655 114.913 69.7641C114.39 69.3535 113.681 69.1481 112.785 69.1481C111.87 69.1481 111.119 69.3348 110.531 69.7081C109.952 70.0721 109.663 70.6415 109.663 71.4161C109.663 71.9295 109.868 72.3355 110.279 72.6341C110.699 72.9235 111.305 73.1661 112.099 73.3621L115.011 74.0901C115.673 74.2675 116.224 74.5008 116.663 74.7901C117.101 75.0795 117.447 75.4015 117.699 75.7561C117.951 76.1108 118.128 76.4841 118.231 76.8761C118.343 77.2588 118.399 77.6275 118.399 77.9821C118.399 78.8688 118.179 79.6341 117.741 80.2781C117.302 80.9128 116.667 81.4075 115.837 81.7621C115.006 82.1075 114.003 82.2801 112.827 82.2801Z" fill="white"/>
<path d="M102.119 68.3639L103.673 64.8919L102.469 64.8219V61.7559H105.703V64.4439L103.323 68.3639H102.119Z" fill="white"/>
<path d="M99.1047 82.1823C98.3207 82.1823 97.686 82.075 97.2007 81.8603C96.7247 81.6456 96.356 81.3563 96.0947 80.9923C95.8427 80.6283 95.67 80.213 95.5767 79.7463C95.4927 79.2703 95.4507 78.7803 95.4507 78.2763V61.1963H97.9987V78.0243C97.9987 78.7523 98.1387 79.2983 98.4187 79.6623C98.708 80.0263 99.1094 80.227 99.6227 80.2643L100.407 80.2783V81.9583C100.192 82.0236 99.968 82.075 99.7347 82.1123C99.5014 82.159 99.2913 82.1823 99.1047 82.1823Z" fill="white"/>
<path d="M84.0343 82.2801C83.0916 82.2801 82.2609 82.1168 81.5423 81.7901C80.8329 81.4541 80.2729 80.9735 79.8623 80.3481C79.4609 79.7228 79.2603 78.9668 79.2603 78.0801C79.2603 76.4748 79.8203 75.2801 80.9403 74.4961C82.0603 73.7121 83.8569 73.2921 86.3303 73.2361L88.9062 73.1661V72.0321C88.9062 71.1455 88.6403 70.4455 88.1083 69.9321C87.5763 69.4095 86.7549 69.1481 85.6443 69.1481C84.8136 69.1575 84.0809 69.3535 83.4463 69.7361C82.8116 70.1188 82.4056 70.7441 82.2283 71.6121H79.9463C80.0023 70.6695 80.2636 69.8761 80.7303 69.2321C81.2063 68.5788 81.8736 68.0841 82.7323 67.7481C83.5909 67.4121 84.6036 67.2441 85.7703 67.2441C87.0303 67.2441 88.0756 67.4215 88.9062 67.7761C89.7463 68.1308 90.3716 68.6535 90.7823 69.3441C91.2023 70.0348 91.4123 70.8841 91.4123 71.8921V82.0001H89.2003L89.0042 79.2841C88.4536 80.4135 87.7443 81.1975 86.8763 81.6361C86.0176 82.0655 85.0703 82.2801 84.0343 82.2801ZM84.8043 80.4181C85.2989 80.4181 85.7843 80.3295 86.2603 80.1521C86.7456 79.9748 87.1843 79.7368 87.5763 79.4381C87.9776 79.1301 88.2996 78.7895 88.5423 78.4161C88.7849 78.0335 88.9062 77.6415 88.9062 77.2401V74.7621L86.7643 74.8041C85.6536 74.8228 84.7296 74.9348 83.9923 75.1401C83.2549 75.3455 82.6996 75.6675 82.3263 76.1061C81.9529 76.5448 81.7663 77.1188 81.7663 77.8281C81.7663 78.6401 82.0509 79.2748 82.6203 79.7321C83.1896 80.1895 83.9176 80.4181 84.8043 80.4181Z" fill="white"/>
<path d="M69.5562 82.0001V67.5241H72.0202V70.3101C72.2628 69.6195 72.6035 69.0501 73.0422 68.6021C73.4808 68.1448 73.9802 67.8041 74.5402 67.5801C75.1095 67.3561 75.6975 67.2441 76.3042 67.2441C76.5188 67.2441 76.7288 67.2581 76.9342 67.2861C77.1395 67.3141 77.2982 67.3608 77.4102 67.4261V69.9321C77.2702 69.8668 77.0882 69.8248 76.8642 69.8061C76.6495 69.7781 76.4675 69.7641 76.3182 69.7641C75.7395 69.7268 75.1982 69.7641 74.6942 69.8761C74.1902 69.9788 73.7468 70.1608 73.3642 70.4221C72.9815 70.6835 72.6782 71.0288 72.4542 71.4581C72.2395 71.8781 72.1322 72.3915 72.1322 72.9981V82.0001H69.5562Z" fill="white"/>
<path d="M59.8149 82.2801C58.4709 82.2801 57.2856 81.9861 56.2589 81.3981C55.2322 80.8101 54.4296 79.9655 53.8509 78.8641C53.2722 77.7628 52.9829 76.4421 52.9829 74.9021C52.9829 73.3808 53.2442 72.0461 53.7669 70.8981C54.2896 69.7501 55.0456 68.8541 56.0349 68.2101C57.0336 67.5661 58.2329 67.2441 59.6329 67.2441C60.9956 67.2441 62.1482 67.5381 63.0909 68.1261C64.0336 68.7141 64.7476 69.5448 65.2329 70.6181C65.7276 71.6821 65.9749 72.9468 65.9749 74.4121V75.3641H55.6009C55.6009 76.2788 55.7502 77.1095 56.0489 77.8561C56.3569 78.5935 56.8189 79.1815 57.4349 79.6201C58.0509 80.0588 58.8302 80.2781 59.7729 80.2781C60.6969 80.2781 61.4902 80.0635 62.1529 79.6341C62.8249 79.2048 63.2542 78.5841 63.4409 77.7721H65.8769C65.7089 78.7521 65.3169 79.5781 64.7009 80.2501C64.0942 80.9221 63.3616 81.4308 62.5029 81.7761C61.6536 82.1121 60.7576 82.2801 59.8149 82.2801ZM55.6149 73.6141H63.4829C63.4829 72.7835 63.3429 72.0368 63.0629 71.3741C62.7829 70.7021 62.3536 70.1748 61.7749 69.7921C61.2056 69.4001 60.4869 69.2041 59.6189 69.2041C58.7136 69.2041 57.9622 69.4235 57.3649 69.8621C56.7676 70.2915 56.3242 70.8468 56.0349 71.5281C55.7456 72.2001 55.6056 72.8955 55.6149 73.6141Z" fill="white"/>
<path d="M37.5366 81.9995V67.5235H40.0426V69.6235C40.276 69.2221 40.598 68.8441 41.0086 68.4895C41.4286 68.1348 41.9326 67.8501 42.5206 67.6355C43.118 67.4208 43.804 67.3135 44.5786 67.3135C45.4933 67.3135 46.3333 67.4955 47.0986 67.8595C47.8733 68.2235 48.4893 68.7928 48.9466 69.5675C49.4133 70.3328 49.6466 71.3221 49.6466 72.5355V81.9995H47.0566V72.7875C47.0566 71.6581 46.758 70.8228 46.1606 70.2815C45.5726 69.7308 44.8073 69.4555 43.8646 69.4555C43.2113 69.4555 42.6 69.5628 42.0306 69.7775C41.4613 69.9828 40.9993 70.3001 40.6446 70.7295C40.29 71.1495 40.1126 71.6815 40.1126 72.3255V81.9995H37.5366Z" fill="white"/>
<path d="M27.7954 82.2801C26.4514 82.2801 25.266 81.9861 24.2394 81.3981C23.2127 80.8101 22.41 79.9655 21.8314 78.8641C21.2527 77.7628 20.9634 76.4421 20.9634 74.9021C20.9634 73.3808 21.2247 72.0461 21.7474 70.8981C22.27 69.7501 23.026 68.8541 24.0154 68.2101C25.014 67.5661 26.2134 67.2441 27.6134 67.2441C28.976 67.2441 30.1287 67.5381 31.0714 68.1261C32.014 68.7141 32.728 69.5448 33.2134 70.6181C33.708 71.6821 33.9554 72.9468 33.9554 74.4121V75.3641H23.5814C23.5814 76.2788 23.7307 77.1095 24.0294 77.8561C24.3374 78.5935 24.7994 79.1815 25.4154 79.6201C26.0314 80.0588 26.8107 80.2781 27.7534 80.2781C28.6774 80.2781 29.4707 80.0635 30.1334 79.6341C30.8054 79.2048 31.2347 78.5841 31.4214 77.7721H33.8574C33.6894 78.7521 33.2974 79.5781 32.6814 80.2501C32.0747 80.9221 31.342 81.4308 30.4834 81.7761C29.634 82.1121 28.738 82.2801 27.7954 82.2801ZM23.5954 73.6141H31.4634C31.4634 72.7835 31.3234 72.0368 31.0434 71.3741C30.7634 70.7021 30.334 70.1748 29.7554 69.7921C29.186 69.4001 28.4674 69.2041 27.5994 69.2041C26.694 69.2041 25.9427 69.4235 25.3454 69.8621C24.748 70.2915 24.3047 70.8468 24.0154 71.5281C23.726 72.2001 23.586 72.8955 23.5954 73.6141Z" fill="white"/>
<path d="M9.10821 82.2796C7.33487 82.2796 5.80421 81.8736 4.51621 81.0616C3.22821 80.2403 2.23887 79.0596 1.54821 77.5196C0.85754 75.9796 0.512207 74.1176 0.512207 71.9336C0.512207 69.7309 0.862207 67.8503 1.56221 66.2916C2.27154 64.7329 3.27954 63.5429 4.58621 62.7216C5.89287 61.8909 7.43754 61.4756 9.22021 61.4756C10.2375 61.4756 11.1942 61.6529 12.0902 62.0076C12.9862 62.3623 13.7795 62.8476 14.4702 63.4636C15.1609 64.0703 15.7115 64.7656 16.1222 65.5496C16.5422 66.3336 16.7802 67.1503 16.8362 67.9996H14.0642C13.9335 67.2529 13.6442 66.5576 13.1962 65.9136C12.7482 65.2696 12.1789 64.7516 11.4882 64.3596C10.8069 63.9676 10.0369 63.7716 9.17821 63.7716C8.01154 63.7716 6.98487 64.0609 6.09821 64.6396C5.22087 65.2089 4.53487 66.0909 4.04021 67.2856C3.55487 68.4803 3.31221 70.0109 3.31221 71.8776C3.31221 73.3149 3.46154 74.5469 3.76021 75.5736C4.05887 76.6003 4.47421 77.4356 5.00621 78.0796C5.54754 78.7143 6.17754 79.1856 6.89621 79.4936C7.62421 79.7923 8.40821 79.9416 9.24821 79.9416C10.0975 79.9416 10.8349 79.7923 11.4602 79.4936C12.0949 79.1949 12.6222 78.8123 13.0422 78.3456C13.4622 77.8696 13.7842 77.3609 14.0082 76.8196C14.2415 76.2689 14.3675 75.7416 14.3862 75.2376L14.4702 73.4456H9.54221V71.5416L17.1582 71.5556V81.9996H15.2122V78.9196C14.8575 79.4983 14.4095 80.0443 13.8682 80.5576C13.3269 81.0709 12.6642 81.4863 11.8802 81.8036C11.1055 82.1209 10.1815 82.2796 9.10821 82.2796Z" fill="white"/>
<path d="M110.353 49.0001V34.5241H112.817V37.3101C113.06 36.6195 113.4 36.0501 113.839 35.6021C114.278 35.1448 114.777 34.8041 115.337 34.5801C115.906 34.3561 116.494 34.2441 117.101 34.2441C117.316 34.2441 117.526 34.2581 117.731 34.2861C117.936 34.3141 118.095 34.3608 118.207 34.4261V36.9321C118.067 36.8668 117.885 36.8248 117.661 36.8061C117.446 36.7781 117.264 36.7641 117.115 36.7641C116.536 36.7268 115.995 36.7641 115.491 36.8761C114.987 36.9788 114.544 37.1608 114.161 37.4221C113.778 37.6835 113.475 38.0288 113.251 38.4581C113.036 38.8781 112.929 39.3915 112.929 39.9981V49.0001H110.353Z" fill="white"/>
<path d="M98.9366 49.2801C97.9939 49.2801 97.1633 49.1168 96.4446 48.7901C95.7353 48.4541 95.1753 47.9735 94.7646 47.3481C94.3633 46.7228 94.1626 45.9668 94.1626 45.0801C94.1626 43.4748 94.7226 42.2801 95.8426 41.4961C96.9626 40.7121 98.7593 40.2921 101.233 40.2361L103.809 40.1661V39.0321C103.809 38.1455 103.543 37.4455 103.011 36.9321C102.479 36.4095 101.657 36.1481 100.547 36.1481C99.7159 36.1575 98.9833 36.3535 98.3486 36.7361C97.7139 37.1188 97.3079 37.7441 97.1306 38.6121H94.8486C94.9046 37.6695 95.1659 36.8761 95.6326 36.2321C96.1086 35.5788 96.7759 35.0841 97.6346 34.7481C98.4933 34.4121 99.5059 34.2441 100.673 34.2441C101.933 34.2441 102.978 34.4215 103.809 34.7761C104.649 35.1308 105.274 35.6535 105.685 36.3441C106.105 37.0348 106.315 37.8841 106.315 38.8921V49.0001H104.103L103.907 46.2841C103.356 47.4135 102.647 48.1975 101.779 48.6361C100.92 49.0655 99.9726 49.2801 98.9366 49.2801ZM99.7066 47.4181C100.201 47.4181 100.687 47.3295 101.163 47.1521C101.648 46.9748 102.087 46.7368 102.479 46.4381C102.88 46.1301 103.202 45.7895 103.445 45.4161C103.687 45.0335 103.809 44.6415 103.809 44.2401V41.7621L101.667 41.8041C100.556 41.8228 99.6319 41.9348 98.8946 42.1401C98.1573 42.3455 97.6019 42.6675 97.2286 43.1061C96.8553 43.5448 96.6686 44.1188 96.6686 44.8281C96.6686 45.6401 96.9533 46.2748 97.5226 46.7321C98.0919 47.1895 98.8199 47.4181 99.7066 47.4181Z" fill="white"/>
<path d="M84.4585 49.0001V34.5241H86.9225V37.3101C87.1652 36.6195 87.5058 36.0501 87.9445 35.6021C88.3832 35.1448 88.8825 34.8041 89.4425 34.5801C90.0118 34.3561 90.5998 34.2441 91.2065 34.2441C91.4212 34.2441 91.6312 34.2581 91.8365 34.2861C92.0418 34.3141 92.2005 34.3608 92.3125 34.4261V36.9321C92.1725 36.8668 91.9905 36.8248 91.7665 36.8061C91.5518 36.7781 91.3698 36.7641 91.2205 36.7641C90.6418 36.7268 90.1005 36.7641 89.5965 36.8761C89.0925 36.9788 88.6492 37.1608 88.2665 37.4221C87.8838 37.6835 87.5805 38.0288 87.3565 38.4581C87.1418 38.8781 87.0345 39.3915 87.0345 39.9981V49.0001H84.4585Z" fill="white"/>
<path d="M78.8817 49.0696C77.883 49.0696 77.1083 48.9342 76.5577 48.6636C76.007 48.3929 75.6197 47.9916 75.3957 47.4596C75.181 46.9276 75.0737 46.2742 75.0737 45.4996V36.4136H72.7217V34.5236H75.1437L75.7737 30.3096H77.6777V34.5096H80.9397V36.4136H77.6777V45.4156C77.6777 45.9289 77.729 46.3069 77.8317 46.5496C77.9437 46.7829 78.1257 46.9322 78.3777 46.9976C78.6297 47.0629 78.9843 47.0956 79.4417 47.0956H81.0237V48.8316C80.8463 48.8969 80.5757 48.9529 80.2117 48.9996C79.857 49.0462 79.4137 49.0696 78.8817 49.0696Z" fill="white"/>
<path d="M64.9204 49.2801C63.9124 49.2801 62.9744 49.1261 62.1064 48.8181C61.2477 48.5008 60.5337 48.0108 59.9644 47.3481C59.3951 46.6761 59.0404 45.8221 58.9004 44.7861H61.2524C61.3737 45.3555 61.6071 45.8315 61.9524 46.2141C62.2977 46.5875 62.7224 46.8721 63.2264 47.0681C63.7397 47.2548 64.2997 47.3481 64.9064 47.3481C65.8864 47.3481 66.6751 47.1661 67.2724 46.8021C67.8697 46.4381 68.1684 45.8781 68.1684 45.1221C68.1684 44.5901 68.0097 44.1655 67.6924 43.8481C67.3844 43.5215 66.8991 43.2835 66.2364 43.1341L63.2404 42.3921C62.0737 42.1121 61.1404 41.6735 60.4404 41.0761C59.7497 40.4788 59.3997 39.6435 59.3904 38.5701C59.3904 37.7208 59.5957 36.9741 60.0064 36.3301C60.4171 35.6861 61.0284 35.1775 61.8404 34.8041C62.6617 34.4308 63.6837 34.2441 64.9064 34.2441C66.4837 34.2441 67.7531 34.5988 68.7144 35.3081C69.6757 36.0081 70.1797 37.0395 70.2264 38.4021H67.9304C67.8371 37.7115 67.5291 37.1655 67.0064 36.7641C66.4837 36.3535 65.7744 36.1481 64.8784 36.1481C63.9637 36.1481 63.2124 36.3348 62.6244 36.7081C62.0457 37.0721 61.7564 37.6415 61.7564 38.4161C61.7564 38.9295 61.9617 39.3355 62.3724 39.6341C62.7924 39.9235 63.3991 40.1661 64.1924 40.3621L67.1044 41.0901C67.7671 41.2675 68.3177 41.5008 68.7564 41.7901C69.1951 42.0795 69.5404 42.4015 69.7924 42.7561C70.0444 43.1108 70.2217 43.4841 70.3244 43.8761C70.4364 44.2588 70.4924 44.6275 70.4924 44.9821C70.4924 45.8688 70.2731 46.6341 69.8344 47.2781C69.3957 47.9128 68.7611 48.4075 67.9304 48.7621C67.0997 49.1075 66.0964 49.2801 64.9204 49.2801Z" fill="white"/>
<path d="M52.8644 48.9995V34.5235H55.3704V48.9995H52.8644ZM52.7944 31.4575V28.7695H55.4404V31.4575H52.7944Z" fill="white"/>
<path d="M41.4947 53.7882C39.2267 53.7882 37.458 53.4568 36.1887 52.7942C34.9193 52.1408 34.2847 51.2028 34.2847 49.9802C34.2847 49.4575 34.406 49.0142 34.6487 48.6502C34.8913 48.2768 35.1807 47.9688 35.5167 47.7262C35.8527 47.4835 36.1653 47.2922 36.4547 47.1522C36.744 47.0028 36.9353 46.8955 37.0287 46.8302C36.8607 46.7368 36.66 46.6202 36.4267 46.4802C36.1933 46.3402 35.9833 46.1535 35.7967 45.9202C35.6193 45.6868 35.5307 45.3835 35.5307 45.0102C35.5307 44.5528 35.7453 44.1328 36.1747 43.7502C36.604 43.3675 37.2433 43.0828 38.0927 42.8962C37.2433 42.4668 36.5807 41.8975 36.1047 41.1882C35.6287 40.4788 35.3907 39.7088 35.3907 38.8782C35.3907 37.9448 35.6427 37.1328 36.1467 36.4422C36.6507 35.7515 37.374 35.2242 38.3167 34.8602C39.2593 34.4868 40.384 34.3002 41.6907 34.3002C42.6333 34.3002 43.422 34.4122 44.0567 34.6362C44.7007 34.8508 45.298 35.1588 45.8487 35.5602C45.998 35.4948 46.236 35.3968 46.5627 35.2662C46.8893 35.1262 47.244 34.9768 47.6267 34.8182C48.0187 34.6595 48.3827 34.5102 48.7187 34.3702C49.064 34.2208 49.3393 34.1088 49.5447 34.0342L49.5307 36.4282L46.9967 36.9042C47.146 37.2028 47.2627 37.5295 47.3467 37.8842C47.4307 38.2388 47.4727 38.5702 47.4727 38.8782C47.4727 39.7275 47.2487 40.4975 46.8007 41.1882C46.362 41.8788 45.6947 42.4295 44.7987 42.8402C43.9027 43.2508 42.7827 43.4562 41.4387 43.4562C41.3267 43.4562 41.182 43.4562 41.0047 43.4562C40.8367 43.4468 40.692 43.4375 40.5707 43.4282C39.5813 43.4562 38.9 43.5682 38.5267 43.7642C38.1627 43.9508 37.9807 44.1608 37.9807 44.3942C37.9807 44.6648 38.1907 44.8515 38.6107 44.9542C39.0307 45.0568 39.74 45.1455 40.7387 45.2202C41.1027 45.2388 41.5507 45.2622 42.0827 45.2902C42.624 45.3182 43.226 45.3555 43.8887 45.4022C45.4007 45.4955 46.5673 45.8828 47.3887 46.5642C48.21 47.2455 48.6207 48.1648 48.6207 49.3222C48.6207 50.6382 48.0327 51.7115 46.8567 52.5422C45.69 53.3728 43.9027 53.7882 41.4947 53.7882ZM41.9567 52.1222C43.2913 52.1222 44.3133 51.9215 45.0227 51.5202C45.7413 51.1188 46.1007 50.5122 46.1007 49.7002C46.1007 49.1215 45.8813 48.6502 45.4427 48.2862C45.004 47.9128 44.3413 47.6982 43.4547 47.6422L39.3947 47.3762C39.0307 47.3575 38.6527 47.4508 38.2607 47.6562C37.8687 47.8522 37.5373 48.1275 37.2667 48.4822C36.996 48.8368 36.8607 49.2382 36.8607 49.6862C36.8607 50.4515 37.276 51.0488 38.1067 51.4782C38.9373 51.9075 40.2207 52.1222 41.9567 52.1222ZM41.5227 41.7902C42.5587 41.7902 43.394 41.5475 44.0287 41.0622C44.6727 40.5768 44.9947 39.8582 44.9947 38.9062C44.9947 37.9262 44.6727 37.1795 44.0287 36.6662C43.394 36.1528 42.5587 35.8962 41.5227 35.8962C40.4587 35.8962 39.6 36.1575 38.9467 36.6802C38.3027 37.1935 37.9807 37.9355 37.9807 38.9062C37.9807 39.8208 38.2887 40.5302 38.9047 41.0342C39.53 41.5382 40.4027 41.7902 41.5227 41.7902Z" fill="white"/>
<path d="M25.7446 49.2801C24.4006 49.2801 23.2153 48.9861 22.1886 48.3981C21.1619 47.8101 20.3593 46.9655 19.7806 45.8641C19.2019 44.7628 18.9126 43.4421 18.9126 41.9021C18.9126 40.3808 19.1739 39.0461 19.6966 37.8981C20.2193 36.7501 20.9753 35.8541 21.9646 35.2101C22.9633 34.5661 24.1626 34.2441 25.5626 34.2441C26.9253 34.2441 28.0779 34.5381 29.0206 35.1261C29.9633 35.7141 30.6773 36.5448 31.1626 37.6181C31.6573 38.6821 31.9046 39.9468 31.9046 41.4121V42.3641H21.5306C21.5306 43.2788 21.6799 44.1095 21.9786 44.8561C22.2866 45.5935 22.7486 46.1815 23.3646 46.6201C23.9806 47.0588 24.7599 47.2781 25.7026 47.2781C26.6266 47.2781 27.4199 47.0635 28.0826 46.6341C28.7546 46.2048 29.1839 45.5841 29.3706 44.7721H31.8066C31.6386 45.7521 31.2466 46.5781 30.6306 47.2501C30.0239 47.9221 29.2913 48.4308 28.4326 48.7761C27.5833 49.1121 26.6873 49.2801 25.7446 49.2801ZM21.5446 40.6141H29.4126C29.4126 39.7835 29.2726 39.0368 28.9926 38.3741C28.7126 37.7021 28.2833 37.1748 27.7046 36.7921C27.1353 36.4001 26.4166 36.2041 25.5486 36.2041C24.6433 36.2041 23.8919 36.4235 23.2946 36.8621C22.6973 37.2915 22.2539 37.8468 21.9646 38.5281C21.6753 39.2001 21.5353 39.8955 21.5446 40.6141Z" fill="white"/>
<path d="M1.67432 48.9999V28.7559H9.51432C10.9703 28.7559 12.1883 28.9799 13.1683 29.4279C14.1483 29.8665 14.881 30.5012 15.3663 31.3319C15.8517 32.1532 16.0943 33.1379 16.0943 34.2859C16.0943 35.3872 15.8983 36.3019 15.5063 37.0299C15.1237 37.7579 14.6336 38.3459 14.0363 38.7939C13.439 39.2325 12.8183 39.5732 12.1743 39.8159L16.1503 48.9999H13.4063L9.71032 40.2779H4.26432V48.9999H1.67432ZM4.26432 38.1359H8.67432C10.1957 38.1359 11.3716 37.8279 12.2023 37.2119C13.033 36.5865 13.4483 35.6625 13.4483 34.4399C13.4483 33.2452 13.075 32.3539 12.3283 31.7659C11.591 31.1685 10.5783 30.8699 9.29032 30.8699H4.26432V38.1359Z" fill="white"/>
</svg>
