<svg width="218" height="117" viewBox="0 0 218 117" fill="none" xmlns="http://www.w3.org/2000/svg">
<g id="Logo_Parramatta_North_On_White">
<path id="Shape" d="M0 74.399V44.033H10.5236C12.7006 44.033 14.6453 44.4025 16.3577 45.1414C18.0701 45.8803 19.4178 46.971 20.4008 48.4135C21.3839 49.8559 21.8754 51.6289 21.8754 53.7324C21.8754 55.7501 21.4246 57.4706 20.5229 58.8938C19.6212 60.317 18.3643 61.4037 16.7521 62.154C15.1399 62.9043 13.2641 63.2795 11.1248 63.2795H4.58981V74.399H0ZM4.55306 59.5993H11.0145C12.9482 59.5993 14.5219 59.0406 15.7356 57.9232C16.9492 56.8058 17.556 55.324 17.556 53.4778C17.556 51.6009 16.9275 50.1639 15.6706 49.1668C14.4137 48.1698 12.8065 47.6713 10.8491 47.6713H4.55306V59.5993Z" fill="#22272B"/>
<path id="Shape_2" d="M32.3137 74.819C30.9164 74.819 29.6747 74.5668 28.5889 74.0623C27.503 73.5579 26.6521 72.8306 26.0361 71.8803C25.4201 70.9301 25.1121 69.7807 25.1121 68.4324C25.1121 66.0331 25.9639 64.2357 27.6675 63.04C29.3711 61.8443 32.0985 61.211 35.8496 61.1401L39.4078 61.0456V59.4601C39.4078 58.2168 39.0381 57.2392 38.2987 56.5273C37.5594 55.8155 36.4144 55.4658 34.8639 55.478C33.7133 55.4841 32.6839 55.753 31.7756 56.2845C30.8674 56.8161 30.2728 57.6891 29.9919 58.9036H26.1056C26.1896 57.4555 26.6042 56.2384 27.3492 55.2523C28.0943 54.2661 29.1266 53.5217 30.4461 53.019C31.7656 52.5163 33.3091 52.265 35.0766 52.265C37.0532 52.265 38.6807 52.5343 39.9591 53.0728C41.2374 53.6114 42.1864 54.398 42.8059 55.4327C43.4254 56.4674 43.7351 57.7285 43.7351 59.216V74.399H39.9262L39.5784 70.4116C38.7691 72.0706 37.7427 73.2199 36.4993 73.8596C35.2559 74.4992 33.8607 74.819 32.3137 74.819ZM33.726 71.6848C34.4094 71.6848 35.086 71.5616 35.7558 71.3153C36.4256 71.069 37.0342 70.7327 37.5815 70.3066C38.1288 69.8805 38.5685 69.4032 38.9005 68.8747C39.2326 68.3462 39.4017 67.8006 39.4078 67.238V63.6575L36.4639 63.7048C34.9746 63.7284 33.707 63.8857 32.6609 64.1766C31.6148 64.4675 30.8155 64.9212 30.263 65.5377C29.7104 66.1541 29.4341 66.9729 29.4341 67.994C29.4341 69.1525 29.8386 70.0573 30.6475 70.7083C31.4565 71.3593 32.4826 71.6848 33.726 71.6848Z" fill="#22272B"/>
<path id="Path" d="M49.497 74.399V52.685H53.802V57.1317C54.1616 56.0721 54.6687 55.1818 55.3232 54.4608C55.9777 53.7398 56.7368 53.1936 57.6004 52.8222C58.464 52.4507 59.3828 52.265 60.3566 52.265C60.6436 52.265 60.9214 52.2827 61.1901 52.3182C61.4587 52.3536 61.6678 52.4146 61.8174 52.5013V56.8273C61.6337 56.7424 61.3983 56.6842 61.1113 56.6527C60.8243 56.6212 60.5789 56.6024 60.375 56.5962C59.416 56.5289 58.5458 56.5763 57.7644 56.7387C56.9831 56.901 56.31 57.1807 55.7452 57.578C55.1804 57.9752 54.747 58.4867 54.4451 59.1123C54.1433 59.7379 53.9923 60.4795 53.9923 61.337V74.399H49.497Z" fill="#22272B"/>
<path id="Path_2" d="M66.1553 74.399V52.685H70.4603V57.1317C70.8199 56.0721 71.327 55.1818 71.9815 54.4608C72.636 53.7398 73.395 53.1936 74.2586 52.8222C75.1223 52.4507 76.041 52.265 77.0149 52.265C77.3019 52.265 77.5797 52.2827 77.8483 52.3182C78.117 52.3536 78.3261 52.4146 78.4757 52.5013V56.8273C78.292 56.7424 78.0566 56.6842 77.7696 56.6527C77.4826 56.6212 77.2371 56.6024 77.0333 56.5962C76.0743 56.5289 75.2041 56.5763 74.4227 56.7387C73.6413 56.901 72.9682 57.1807 72.4034 57.578C71.8386 57.9752 71.4053 58.4867 71.1034 59.1123C70.8015 59.7379 70.6506 60.4795 70.6506 61.337V74.399H66.1553Z" fill="#22272B"/>
<path id="Shape_3" d="M89.0059 74.819C87.6085 74.819 86.3669 74.5668 85.281 74.0623C84.1951 73.5579 83.3442 72.8306 82.7282 71.8803C82.1122 70.9301 81.8042 69.7807 81.8042 68.4324C81.8042 66.0331 82.656 64.2357 84.3596 63.04C86.0633 61.8443 88.7906 61.211 92.5418 61.1401L96.1 61.0456V59.4601C96.1 58.2168 95.7303 57.2392 94.9909 56.5273C94.2515 55.8155 93.1066 55.4658 91.5561 55.478C90.4055 55.4841 89.376 55.753 88.4678 56.2845C87.5595 56.8161 86.9649 57.6891 86.6841 58.9036H82.7978C82.8818 57.4555 83.2963 56.2384 84.0414 55.2523C84.7864 54.2661 85.8187 53.5217 87.1382 53.019C88.4577 52.5163 90.0012 52.265 91.7687 52.265C93.7453 52.265 95.3728 52.5343 96.6512 53.0728C97.9296 53.6114 98.8785 54.398 99.498 55.4327C100.118 56.4674 100.427 57.7285 100.427 59.216V74.399H96.6184L96.2706 70.4116C95.4612 72.0706 94.4348 73.2199 93.1915 73.8596C91.9481 74.4992 90.5529 74.819 89.0059 74.819ZM90.4181 71.6848C91.1015 71.6848 91.7781 71.5616 92.4479 71.3153C93.1177 71.069 93.7263 70.7327 94.2736 70.3066C94.8209 69.8805 95.2606 69.4032 95.5927 68.8747C95.9247 68.3462 96.0938 67.8006 96.1 67.238V63.6575L93.156 63.7048C91.6668 63.7284 90.3991 63.8857 89.3531 64.1766C88.307 64.4675 87.5077 64.9212 86.9551 65.5377C86.4025 66.1541 86.1263 66.9729 86.1263 67.994C86.1263 69.1525 86.5307 70.0573 87.3397 70.7083C88.1486 71.3593 89.1748 71.6848 90.4181 71.6848Z" fill="#22272B"/>
<path id="Path_3" d="M106.189 74.399V52.685H110.558V55.8179C111.17 54.8581 112.009 54.0259 113.075 53.3216C114.14 52.6172 115.516 52.265 117.202 52.265C117.981 52.265 118.773 52.3984 119.579 52.6653C120.385 52.9322 121.128 53.3275 121.809 53.8512C122.49 54.3748 123.025 55.0226 123.414 55.7943C124.097 54.7522 125.011 53.9034 126.157 53.2481C127.303 52.5927 128.589 52.265 130.016 52.265C130.793 52.265 131.596 52.386 132.424 52.6279C133.252 52.8698 134.019 53.2826 134.724 53.8662C135.428 54.4499 136.001 55.2523 136.44 56.2734C136.88 57.2945 137.1 58.5912 137.1 60.1636V74.399H132.595V60.6506C132.595 59.4579 132.395 58.5263 131.994 57.8556C131.593 57.1849 131.075 56.7128 130.44 56.4394C129.805 56.166 129.128 56.0293 128.408 56.0293C127.766 56.0293 127.094 56.1542 126.39 56.404C125.687 56.6538 125.09 57.0727 124.599 57.6607C124.108 58.2487 123.862 59.0484 123.862 60.0599V74.399H119.376V59.6819C119.376 58.8752 119.163 58.2014 118.738 57.6607C118.313 57.1199 117.782 56.7128 117.146 56.4394C116.51 56.166 115.871 56.0293 115.231 56.0293C114.541 56.0293 113.847 56.1679 113.148 56.4453C112.449 56.7227 111.864 57.1593 111.392 57.7552C110.92 58.3511 110.684 59.1193 110.684 60.0599V74.399H106.189Z" fill="#22272B"/>
<path id="Shape_4" d="M149.054 74.819C147.657 74.819 146.415 74.5668 145.329 74.0623C144.243 73.5579 143.392 72.8306 142.776 71.8803C142.16 70.9301 141.852 69.7807 141.852 68.4324C141.852 66.0331 142.704 64.2357 144.408 63.04C146.111 61.8443 148.839 61.211 152.59 61.1401L156.148 61.0456V59.4601C156.148 58.2168 155.778 57.2392 155.039 56.5273C154.3 55.8155 153.155 55.4658 151.604 55.478C150.454 55.4841 149.424 55.753 148.516 56.2845C147.608 56.8161 147.013 57.6891 146.732 58.9036H142.846C142.93 57.4555 143.344 56.2384 144.09 55.2523C144.835 54.2661 145.867 53.5217 147.186 53.019C148.506 52.5163 150.049 52.265 151.817 52.265C153.793 52.265 155.421 52.5343 156.699 53.0728C157.978 53.6114 158.927 54.398 159.546 55.4327C160.166 56.4674 160.475 57.7285 160.475 59.216V74.399H156.667L156.319 70.4116C155.509 72.0706 154.483 73.2199 153.24 73.8596C151.996 74.4992 150.601 74.819 149.054 74.819ZM150.466 71.6848C151.15 71.6848 151.826 71.5616 152.496 71.3153C153.166 71.069 153.774 70.7327 154.322 70.3066C154.869 69.8805 155.309 69.4032 155.641 68.8747C155.973 68.3462 156.142 67.8006 156.148 67.238V63.6575L153.204 63.7048C151.715 63.7284 150.447 63.8857 149.401 64.1766C148.355 64.4675 147.556 64.9212 147.003 65.5377C146.451 66.1541 146.174 66.9729 146.174 67.994C146.174 69.1525 146.579 70.0573 147.388 70.7083C148.197 71.3593 149.223 71.6848 150.466 71.6848Z" fill="#22272B"/>
<path id="Path_4" d="M174.584 74.546C172.971 74.546 171.722 74.3294 170.838 73.8963C169.953 73.4632 169.338 72.8376 168.992 72.0194C168.646 71.2013 168.473 70.2112 168.473 69.0492V55.9137H164.945V52.685H168.601L169.709 46.301H172.97V52.6666H177.846V55.9137H172.97L172.989 68.8839C172.989 69.5917 173.064 70.1104 173.215 70.4398C173.365 70.7693 173.619 70.9812 173.976 71.0757C174.334 71.1702 174.821 71.2175 175.437 71.2175H177.965V74.1339C177.686 74.2424 177.27 74.3382 176.717 74.4213C176.164 74.5044 175.452 74.546 174.584 74.546Z" fill="#22272B"/>
<path id="Path_5" d="M191.239 74.546C189.626 74.546 188.378 74.3294 187.493 73.8963C186.609 73.4632 185.993 72.8376 185.647 72.0194C185.301 71.2013 185.128 70.2112 185.128 69.0492V55.9137H181.6V52.685H185.257L186.364 46.301H189.626V52.6666H194.502V55.9137H189.626L189.644 68.8839C189.644 69.5917 189.72 70.1104 189.87 70.4398C190.021 70.7693 190.275 70.9812 190.632 71.0757C190.99 71.1702 191.476 71.2175 192.092 71.2175H194.62V74.1339C194.342 74.2424 193.926 74.3382 193.373 74.4213C192.819 74.5044 192.108 74.546 191.239 74.546Z" fill="#22272B"/>
<path id="Shape_5" d="M205.741 74.819C204.344 74.819 203.102 74.5668 202.016 74.0623C200.93 73.5579 200.079 72.8306 199.463 71.8803C198.847 70.9301 198.539 69.7807 198.539 68.4324C198.539 66.0331 199.391 64.2357 201.095 63.04C202.798 61.8443 205.526 61.211 209.277 61.1401L212.835 61.0456V59.4601C212.835 58.2168 212.465 57.2392 211.726 56.5273C210.987 55.8155 209.842 55.4658 208.291 55.478C207.14 55.4841 206.111 55.753 205.203 56.2845C204.295 56.8161 203.7 57.6891 203.419 58.9036H199.533C199.617 57.4555 200.031 56.2384 200.776 55.2523C201.521 54.2661 202.554 53.5217 203.873 53.019C205.193 52.5163 206.736 52.265 208.504 52.265C210.48 52.265 212.108 52.5343 213.386 53.0728C214.665 53.6114 215.614 54.398 216.233 55.4327C216.853 56.4674 217.162 57.7285 217.162 59.216V74.399H213.353L213.006 70.4116C212.196 72.0706 211.17 73.2199 209.926 73.8596C208.683 74.4992 207.288 74.819 205.741 74.819ZM207.153 71.6848C207.837 71.6848 208.513 71.5616 209.183 71.3153C209.853 71.069 210.461 70.7327 211.009 70.3066C211.556 69.8805 211.996 69.4032 212.328 68.8747C212.66 68.3462 212.829 67.8006 212.835 67.238V63.6575L209.891 63.7048C208.402 63.7284 207.134 63.8857 206.088 64.1766C205.042 64.4675 204.243 64.9212 203.69 65.5377C203.138 66.1541 202.861 66.9729 202.861 67.994C202.861 69.1525 203.266 70.0573 204.075 70.7083C204.884 71.3593 205.91 71.6848 207.153 71.6848Z" fill="#22272B"/>
<path id="Path_6" d="M0 116.399V86.033H4.3575L19.8161 108.676V86.033H24.3114V116.399H20.2834L4.49531 93.2885V116.399H0Z" fill="#22272B"/>
<path id="Shape_6" d="M40.1073 116.819C38.0721 116.819 36.2969 116.382 34.7819 115.509C33.2668 114.636 32.0913 113.367 31.2552 111.702C30.4191 110.036 30.0011 108.016 30.0011 105.642C30.0011 103.368 30.3988 101.377 31.1942 99.6699C31.9895 97.9628 33.1419 96.6352 34.6513 95.6871C36.1607 94.739 37.9855 94.265 40.1257 94.265C42.1653 94.265 43.9348 94.7113 45.4341 95.6038C46.9334 96.4963 48.0961 97.7897 48.9221 99.4842C49.7481 101.179 50.1611 103.231 50.1611 105.642C50.1611 107.845 49.7746 109.785 49.0015 111.462C48.2284 113.139 47.0966 114.451 45.6061 115.398C44.1155 116.345 42.2826 116.819 40.1073 116.819ZM40.1257 113.354C41.3638 113.354 42.3983 113.027 43.2291 112.373C44.0599 111.719 44.6847 110.803 45.1034 109.627C45.5221 108.45 45.7314 107.078 45.7314 105.513C45.7314 104.075 45.5457 102.766 45.1743 101.585C44.8028 100.404 44.2056 99.4636 43.3827 98.7649C42.5598 98.0662 41.4741 97.7169 40.1257 97.7169C38.8736 97.7169 37.8262 98.0347 36.9836 98.6704C36.141 99.3061 35.5068 100.209 35.0811 101.378C34.6554 102.548 34.4426 103.926 34.4426 105.513C34.4426 106.937 34.6318 108.243 35.0103 109.432C35.3887 110.62 35.9953 111.571 36.83 112.284C37.6648 112.997 38.7633 113.354 40.1257 113.354Z" fill="#22272B"/>
<path id="Path_7" d="M55.0568 116.399V94.685H59.3618V99.1318C59.7214 98.0721 60.2284 97.1818 60.8829 96.4608C61.5374 95.7398 62.2965 95.1936 63.1601 94.8222C64.0238 94.4507 64.9425 94.265 65.9164 94.265C66.2034 94.265 66.4812 94.2827 66.7498 94.3182C67.0184 94.3536 67.2276 94.4146 67.3772 94.5013V98.8272C67.1935 98.7424 66.9581 98.6842 66.6711 98.6527C66.3841 98.6212 66.1386 98.6024 65.9348 98.5963C64.9758 98.5289 64.1056 98.5763 63.3242 98.7387C62.5428 98.901 61.8697 99.1808 61.3049 99.578C60.7401 99.9753 60.3068 100.487 60.0049 101.112C59.703 101.738 59.5521 102.479 59.5521 103.337V116.399H55.0568Z" fill="#22272B"/>
<path id="Path_8" d="M80.0612 116.546C78.4486 116.546 77.1999 116.329 76.3153 115.896C75.4307 115.463 74.8153 114.838 74.4693 114.019C74.1232 113.201 73.9502 112.211 73.9502 111.049V97.9137H70.4222V94.685H74.0788L75.1866 88.301H78.4481V94.6666H83.3241V97.9137H78.4481L78.4665 110.884C78.4665 111.592 78.5417 112.11 78.6922 112.44C78.8427 112.769 79.0967 112.981 79.4541 113.076C79.8116 113.17 80.2983 113.217 80.9143 113.217H83.4422V116.134C83.1639 116.242 82.7481 116.338 82.1946 116.421C81.6412 116.504 80.9301 116.546 80.0612 116.546Z" fill="#22272B"/>
<path id="Path_9" d="M88.3706 116.399V85.193H92.795V97.8547C93.1547 97.2851 93.6309 96.7406 94.2237 96.2213C94.8165 95.702 95.5423 95.2767 96.4011 94.9455C97.2599 94.6143 98.2682 94.4487 99.4258 94.4487C100.831 94.4487 102.106 94.7134 103.25 95.2428C104.394 95.7722 105.306 96.5286 105.986 97.5121C106.667 98.4956 107.007 99.6681 107.007 101.03V116.399H102.502V101.843C102.502 100.633 102.082 99.6981 101.24 99.0379C100.399 98.3777 99.3239 98.0476 98.0149 98.0476C97.1267 98.0476 96.2883 98.1961 95.4994 98.4932C94.7106 98.7903 94.0745 99.2367 93.5911 99.8326C93.1076 100.428 92.8659 101.177 92.8659 102.078V116.399H88.3706Z" fill="#22272B"/>
<path id="Shape_7" d="M7.22047 23.343C5.56714 23.343 4.16439 23.0046 3.01222 22.3277C1.86005 21.6509 1.02822 20.7028 0.516719 19.4835C0.0052194 18.2642 -0.126531 16.8433 0.121469 15.221C0.348803 13.6917 0.880969 12.2812 1.71797 10.9895C2.55497 9.69783 3.63739 8.65933 4.96522 7.874C6.29305 7.08867 7.8043 6.696 9.49897 6.696C11.2453 6.696 12.6429 7.05767 13.6917 7.781C14.7406 8.50433 15.4613 9.49375 15.854 10.7492C16.2466 12.0047 16.3241 13.423 16.0865 15.004L15.854 16.399H5.82547C5.7118 17.0397 5.72472 17.5615 5.86422 17.9645C6.00372 18.3675 6.2388 18.662 6.56947 18.848C6.90014 19.034 7.28247 19.127 7.71647 19.127C8.26414 19.127 8.77047 19.0237 9.23547 18.817C9.70047 18.6103 10.1035 18.197 10.4445 17.577H15.7455C15.4045 18.7653 14.7845 19.7909 13.8855 20.6537C12.9865 21.5166 11.948 22.1805 10.77 22.6455C9.59197 23.1105 8.4088 23.343 7.22047 23.343ZM6.27497 13.02H10.8475C10.9095 12.617 10.8811 12.2424 10.7622 11.8962C10.6434 11.5501 10.429 11.2737 10.119 11.067C9.80897 10.8603 9.39564 10.757 8.87897 10.757C8.47597 10.757 8.08589 10.8603 7.70872 11.067C7.33155 11.2737 7.01639 11.5501 6.76322 11.8962C6.51005 12.2424 6.3473 12.617 6.27497 13.02Z" fill="#F3631B"/>
<path id="Path_10" d="M16.1485 23.033L23.542 14.663L19.171 7.006H25.309L27.355 10.478L30.393 7.006H36.562L29.804 14.663L34.609 23.033H28.471L26.053 18.786L22.333 23.033H16.1485Z" fill="#F3631B"/>
<path id="Shape_8" d="M35.6165 28.024L38.577 7.006H44.6375L44.374 8.866C44.8596 8.31833 45.3944 7.88692 45.9782 7.57175C46.562 7.25658 47.1536 7.03183 47.753 6.8975C48.3523 6.76317 48.9 6.696 49.396 6.696C50.512 6.696 51.473 6.9905 52.279 7.5795C53.085 8.1685 53.661 9.07525 54.0072 10.2997C54.3534 11.5242 54.3921 13.082 54.1235 14.973C53.8341 17.0087 53.2942 18.6388 52.5037 19.8632C51.7132 21.0877 50.7832 21.9738 49.7137 22.5215C48.6442 23.0692 47.5411 23.343 46.4045 23.343C46.0738 23.343 45.7302 23.3017 45.3737 23.219C45.0172 23.1363 44.6685 23.0046 44.3275 22.8237C43.9865 22.6429 43.6687 22.4104 43.3742 22.1262C43.0797 21.8421 42.8291 21.4933 42.6225 21.08L41.646 28.024H35.6165ZM45.428 19.034C46.0996 19.034 46.7377 18.7162 47.3422 18.0807C47.9467 17.4452 48.3471 16.4093 48.5435 14.973C48.7191 13.671 48.6003 12.6738 48.187 11.9815C47.7736 11.2892 47.2311 10.943 46.5595 10.943C45.6811 10.943 44.9862 11.3434 44.4747 12.1442C43.9632 12.9451 43.6351 13.888 43.4905 14.973C43.3975 15.624 43.3923 16.2621 43.475 16.8872C43.5576 17.5124 43.7565 18.0265 44.0717 18.4295C44.3869 18.8325 44.839 19.034 45.428 19.034Z" fill="#F3631B"/>
<path id="Path_11" d="M61.455 23.374C59.9876 23.374 58.8639 23.2164 58.0837 22.9013C57.3036 22.5861 56.7662 22.1753 56.4717 21.669C56.1772 21.1627 56.03 20.6047 56.03 19.995C56.03 19.3853 56.0713 18.786 56.154 18.197L58.913 0H64.803L62.168 17.391C62.106 17.7733 62.1473 18.135 62.292 18.476C62.4366 18.817 62.9068 19.0443 63.7025 19.158L64.3225 19.22L63.7645 22.878C63.3925 23.0123 63.0076 23.1286 62.6097 23.2267C62.2119 23.3249 61.827 23.374 61.455 23.374Z" fill="#F3631B"/>
<path id="Shape_9" d="M73.6379 23.343C72.0053 23.343 70.6387 22.9917 69.5382 22.289C68.4377 21.5863 67.6524 20.6176 67.1822 19.3827C66.712 18.1479 66.5958 16.7297 66.8334 15.128C67.0918 13.4437 67.6627 11.9686 68.5462 10.7027C69.4297 9.43692 70.5354 8.45267 71.8632 7.75C73.191 7.04733 74.6403 6.696 76.2109 6.696C77.8849 6.696 79.2696 7.06025 80.3649 7.78875C81.4603 8.51725 82.2379 9.517 82.6977 10.788C83.1575 12.059 83.2634 13.5057 83.0154 15.128C82.7674 16.7193 82.2172 18.1324 81.3647 19.3672C80.5122 20.6021 79.4272 21.5734 78.1097 22.2812C76.7922 22.9891 75.3016 23.343 73.6379 23.343ZM74.3664 18.972C74.9968 18.972 75.5057 18.7524 75.8932 18.3132C76.2807 17.8741 76.5778 17.3393 76.7844 16.709C76.9911 16.0787 77.1358 15.4793 77.2184 14.911C77.3114 14.3323 77.345 13.7407 77.3192 13.1362C77.2934 12.5317 77.1513 12.0254 76.8929 11.6172C76.6346 11.2091 76.1903 11.005 75.5599 11.005C74.9089 11.005 74.3871 11.2091 73.9944 11.6172C73.6018 12.0254 73.3073 12.5317 73.1109 13.1362C72.9146 13.7407 72.7751 14.3323 72.6924 14.911C72.6098 15.4793 72.5762 16.0787 72.5917 16.709C72.6072 17.3393 72.7441 17.8741 73.0024 18.3132C73.2608 18.7524 73.7154 18.972 74.3664 18.972Z" fill="#F3631B"/>
<path id="Path_12" d="M84.395 23.033L86.6425 7.006H92.4705L91.8505 11.439C92.2121 10.5813 92.6745 9.79342 93.2377 9.07525C93.8009 8.35708 94.47 7.781 95.245 7.347C96.02 6.913 96.9035 6.696 97.8955 6.696C97.9678 6.696 98.0246 6.696 98.066 6.696C98.1073 6.696 98.128 6.696 98.128 6.696L97.322 12.4C97.291 12.3897 97.2651 12.3845 97.2445 12.3845C97.2238 12.3845 97.1876 12.3793 97.136 12.369C95.6583 12.214 94.5294 12.2734 93.7492 12.5472C92.969 12.8211 92.4214 13.2163 92.1062 13.733C91.791 14.2497 91.5921 14.787 91.5095 15.345L90.4245 23.033H84.395Z" fill="#F3631B"/>
<path id="Shape_10" d="M105.211 23.343C103.558 23.343 102.155 23.0046 101.003 22.3277C99.8511 21.6509 99.0192 20.7028 98.5077 19.4835C97.9962 18.2642 97.8645 16.8433 98.1125 15.221C98.3398 13.6917 98.872 12.2812 99.709 10.9895C100.546 9.69783 101.628 8.65933 102.956 7.874C104.284 7.08867 105.795 6.696 107.49 6.696C109.236 6.696 110.634 7.05767 111.683 7.781C112.732 8.50433 113.452 9.49375 113.845 10.7492C114.238 12.0047 114.315 13.423 114.077 15.004L113.845 16.399H103.816C103.703 17.0397 103.716 17.5615 103.855 17.9645C103.995 18.3675 104.23 18.662 104.56 18.848C104.891 19.034 105.273 19.127 105.707 19.127C106.255 19.127 106.761 19.0237 107.226 18.817C107.691 18.6103 108.094 18.197 108.435 17.577H113.736C113.395 18.7653 112.775 19.7909 111.876 20.6537C110.977 21.5166 109.939 22.1805 108.761 22.6455C107.583 23.1105 106.4 23.343 105.211 23.343ZM104.266 13.02H108.838C108.9 12.617 108.872 12.2424 108.753 11.8962C108.634 11.5501 108.42 11.2737 108.11 11.067C107.8 10.8603 107.387 10.757 106.87 10.757C106.467 10.757 106.077 10.8603 105.7 11.067C105.323 11.2737 105.007 11.5501 104.754 11.8962C104.501 12.2424 104.338 12.617 104.266 13.02Z" fill="#F3631B"/>
<path id="Path_13" d="M120.2 17.515L120.804 13.268H146.426L145.821 17.515H120.2Z" fill="#F3631B"/>
</g>
</svg>
