<svg width="144" height="78" viewBox="0 0 144 78" fill="none" xmlns="http://www.w3.org/2000/svg">
<g id="Logo_Parramatta_North_On_Colour">
<path id="Shape" d="M0 49.1083V29.0647H6.94629C8.38325 29.0647 9.66687 29.3086 10.7972 29.7963C11.9274 30.2841 12.817 31.004 13.4659 31.9561C14.1148 32.9082 14.4392 34.0785 14.4392 35.4669C14.4392 36.7988 14.1416 37.9344 13.5465 38.8738C12.9513 39.8132 12.1216 40.5305 11.0575 41.0258C9.99334 41.521 8.7552 41.7687 7.34307 41.7687H3.02958V49.1083H0ZM3.00532 39.3395H7.2703C8.5467 39.3395 9.58544 38.9707 10.3865 38.2331C11.1876 37.4956 11.5881 36.5175 11.5881 35.2989C11.5881 34.06 11.1733 33.1115 10.3436 32.4534C9.51396 31.7952 8.45314 31.4662 7.16114 31.4662H3.00532V39.3395Z" fill="white"/>
<path id="Shape_2" d="M21.3292 49.3855C20.4068 49.3855 19.5873 49.219 18.8705 48.886C18.1538 48.5531 17.5921 48.073 17.1855 47.4458C16.7789 46.8185 16.5756 46.0599 16.5756 45.1699C16.5756 43.5862 17.1379 42.3998 18.2624 41.6105C19.3869 40.8213 21.1871 40.4033 23.6631 40.3565L26.0118 40.2941V39.2476C26.0118 38.4269 25.7677 37.7816 25.2797 37.3118C24.7917 36.8419 24.0359 36.6111 23.0125 36.6191C22.253 36.6232 21.5735 36.8006 20.974 37.1515C20.3745 37.5024 19.9821 38.0786 19.7967 38.8803H17.2314C17.2869 37.9244 17.5605 37.121 18.0523 36.4701C18.5441 35.8192 19.2255 35.3279 20.0964 34.9961C20.9674 34.6643 21.9862 34.4984 23.1528 34.4984C24.4575 34.4984 25.5318 34.6761 26.3756 35.0316C27.2194 35.3871 27.8458 35.9063 28.2547 36.5893C28.6636 37.2722 28.8681 38.1046 28.8681 39.0865V49.1083H26.354L26.1244 46.4763C25.5901 47.5714 24.9127 48.33 24.092 48.7522C23.2712 49.1744 22.3503 49.3855 21.3292 49.3855ZM22.2614 47.3167C22.7125 47.3167 23.1591 47.2354 23.6012 47.0728C24.0433 46.9102 24.445 46.6883 24.8063 46.407C25.1675 46.1257 25.4577 45.8107 25.6769 45.4618C25.8961 45.113 26.0077 44.7529 26.0118 44.3815V42.0182L24.0686 42.0493C23.0856 42.0649 22.2488 42.1688 21.5584 42.3608C20.8679 42.5528 20.3403 42.8523 19.9756 43.2592C19.6108 43.6661 19.4285 44.2065 19.4285 44.8805C19.4285 45.6452 19.6954 46.2424 20.2294 46.6721C20.7633 47.1018 21.4407 47.3167 22.2614 47.3167Z" fill="white"/>
<path id="Path" d="M32.6713 49.1083V34.7756H35.5129V37.7107C35.7502 37.0113 36.0849 36.4236 36.517 35.9477C36.949 35.4718 37.45 35.1113 38.0201 34.8661C38.5901 34.6209 39.1965 34.4984 39.8394 34.4984C40.0288 34.4984 40.2122 34.51 40.3895 34.5334C40.5668 34.5568 40.7048 34.5971 40.8036 34.6543V37.5097C40.6823 37.4537 40.5269 37.4153 40.3375 37.3945C40.1481 37.3737 39.9861 37.3613 39.8515 37.3573C39.2185 37.3128 38.6441 37.3441 38.1283 37.4513C37.6126 37.5584 37.1683 37.7431 36.7955 38.0053C36.4227 38.2675 36.1366 38.6051 35.9374 39.018C35.7381 39.431 35.6385 39.9205 35.6385 40.4865V49.1083H32.6713Z" fill="white"/>
<path id="Path_2" d="M43.6668 49.1083V34.7756H46.5084V37.7107C46.7458 37.0113 47.0805 36.4236 47.5125 35.9477C47.9445 35.4718 48.4455 35.1113 49.0156 34.8661C49.5856 34.6209 50.1921 34.4984 50.8349 34.4984C51.0243 34.4984 51.2077 34.51 51.385 34.5334C51.5623 34.5568 51.7004 34.5971 51.7991 34.6543V37.5097C51.6778 37.4537 51.5225 37.4153 51.333 37.3945C51.1436 37.3737 50.9816 37.3613 50.847 37.3573C50.214 37.3128 49.6396 37.3441 49.1239 37.4513C48.6081 37.5584 48.1638 37.7431 47.791 38.0053C47.4182 38.2675 47.1322 38.6051 46.9329 39.018C46.7337 39.431 46.634 39.9205 46.634 40.4865V49.1083H43.6668Z" fill="white"/>
<path id="Shape_3" d="M58.7498 49.3855C57.8274 49.3855 57.0078 49.219 56.2911 48.886C55.5743 48.5531 55.0127 48.073 54.6061 47.4458C54.1995 46.8185 53.9962 46.0599 53.9962 45.1699C53.9962 43.5862 54.5584 42.3998 55.6829 41.6105C56.8074 40.8213 58.6077 40.4033 61.0837 40.3565L63.4323 40.2941V39.2476C63.4323 38.4269 63.1883 37.7816 62.7003 37.3118C62.2122 36.8419 61.4565 36.6111 60.433 36.6191C59.6736 36.6232 58.9941 36.8006 58.3946 37.1515C57.7951 37.5024 57.4026 38.0786 57.2172 38.8803H54.652C54.7074 37.9244 54.981 37.121 55.4728 36.4701C55.9646 35.8192 56.646 35.3279 57.517 34.9961C58.3879 34.6643 59.4067 34.4984 60.5734 34.4984C61.8781 34.4984 62.9524 34.6761 63.7962 35.0316C64.64 35.3871 65.2663 35.9063 65.6753 36.5893C66.0842 37.2722 66.2886 38.1046 66.2886 39.0865V49.1083H63.7745L63.5449 46.4763C63.0107 47.5714 62.3332 48.33 61.5125 48.7522C60.6918 49.1744 59.7709 49.3855 58.7498 49.3855ZM59.6819 47.3167C60.133 47.3167 60.5796 47.2354 61.0217 47.0728C61.4638 46.9102 61.8655 46.6883 62.2268 46.407C62.5881 46.1257 62.8783 45.8107 63.0975 45.4618C63.3167 45.113 63.4283 44.7529 63.4323 44.3815V42.0182L61.4891 42.0493C60.5061 42.0649 59.6694 42.1688 58.9789 42.3608C58.2884 42.5528 57.7608 42.8523 57.3961 43.2592C57.0314 43.6661 56.849 44.2065 56.849 44.8805C56.849 45.6452 57.116 46.2424 57.6499 46.6721C58.1839 47.1018 58.8612 47.3167 59.6819 47.3167Z" fill="white"/>
<path id="Path_3" d="M70.0918 49.1083V34.7756H72.9759V36.8435C73.3796 36.2099 73.9332 35.6607 74.6366 35.1958C75.3401 34.7308 76.2483 34.4984 77.3613 34.4984C77.8753 34.4984 78.3983 34.5864 78.9302 34.7626C79.4621 34.9387 79.9528 35.1997 80.4021 35.5453C80.8514 35.891 81.2046 36.3185 81.4616 36.8279C81.9121 36.1401 82.5155 35.5798 83.2718 35.1472C84.0282 34.7146 84.8773 34.4984 85.8193 34.4984C86.3322 34.4984 86.8619 34.5782 87.4086 34.7379C87.9553 34.8976 88.4612 35.1701 88.9264 35.5553C89.3916 35.9405 89.7694 36.4701 90.0596 37.1441C90.3498 37.8182 90.4949 38.6741 90.4949 39.712V49.1083H87.5217V40.0334C87.5217 39.2462 87.3894 38.6312 87.1249 38.1885C86.8604 37.7458 86.5184 37.4342 86.0991 37.2537C85.6798 37.0733 85.2328 36.983 84.758 36.983C84.3341 36.983 83.8901 37.0655 83.4261 37.2303C82.962 37.3952 82.5678 37.6717 82.2435 38.0599C81.9192 38.448 81.7571 38.9759 81.7571 39.6435V49.1083H78.7959V39.394C78.7959 38.8615 78.6556 38.4168 78.3749 38.0599C78.0942 37.7029 77.7439 37.4342 77.324 37.2537C76.9041 37.0733 76.4828 36.983 76.06 36.983C75.6049 36.983 75.1466 37.0745 74.6852 37.2576C74.2237 37.4407 73.8373 37.7289 73.526 38.1222C73.2147 38.5156 73.059 39.0227 73.059 39.6435V49.1083H70.0918Z" fill="white"/>
<path id="Shape_4" d="M98.3855 49.3855C97.4632 49.3855 96.6436 49.219 95.9269 48.886C95.2101 48.5531 94.6484 48.073 94.2418 47.4458C93.8352 46.8185 93.6319 46.0599 93.6319 45.1699C93.6319 43.5862 94.1942 42.3998 95.3187 41.6105C96.4432 40.8213 98.2434 40.4033 100.719 40.3565L103.068 40.2941V39.2476C103.068 38.4269 102.824 37.7816 102.336 37.3118C101.848 36.8419 101.092 36.6111 100.069 36.6191C99.3093 36.6232 98.6298 36.8006 98.0303 37.1515C97.4308 37.5024 97.0384 38.0786 96.853 38.8803H94.2877C94.3432 37.9244 94.6168 37.121 95.1086 36.4701C95.6004 35.8192 96.2818 35.3279 97.1527 34.9961C98.0237 34.6643 99.0425 34.4984 100.209 34.4984C101.514 34.4984 102.588 34.6761 103.432 35.0316C104.276 35.3871 104.902 35.9063 105.311 36.5893C105.72 37.2722 105.924 38.1046 105.924 39.0865V49.1083H103.41L103.181 46.4763C102.646 47.5714 101.969 48.33 101.148 48.7522C100.328 49.1744 99.4066 49.3855 98.3855 49.3855ZM99.3177 47.3167C99.7688 47.3167 100.215 47.2354 100.657 47.0728C101.1 46.9102 101.501 46.6883 101.863 46.407C102.224 46.1257 102.514 45.8107 102.733 45.4618C102.952 45.113 103.064 44.7529 103.068 44.3815V42.0182L101.125 42.0493C100.142 42.0649 99.3051 42.1688 98.6147 42.3608C97.9242 42.5528 97.3966 42.8523 97.0319 43.2592C96.6671 43.6661 96.4848 44.2065 96.4848 44.8805C96.4848 45.6452 96.7518 46.2424 97.2857 46.6721C97.8197 47.1018 98.497 47.3167 99.3177 47.3167Z" fill="white"/>
<path id="Path_4" d="M115.237 49.2053C114.172 49.2053 113.348 49.0623 112.764 48.7764C112.18 48.4906 111.774 48.0776 111.546 47.5376C111.317 46.9976 111.203 46.3441 111.203 45.5771V36.9068H108.874V34.7756H111.288L112.019 30.5617H114.172V34.7635H117.39V36.9068H114.172L114.184 45.4679C114.184 45.9352 114.234 46.2775 114.333 46.495C114.432 46.7124 114.6 46.8523 114.836 46.9147C115.072 46.9771 115.393 47.0083 115.8 47.0083H117.468V48.9333C117.285 49.0049 117.01 49.0681 116.645 49.123C116.28 49.1779 115.81 49.2053 115.237 49.2053Z" fill="white"/>
<path id="Path_5" d="M126.23 49.2053C125.166 49.2053 124.342 49.0623 123.758 48.7764C123.174 48.4906 122.768 48.0776 122.539 47.5376C122.311 46.9976 122.197 46.3441 122.197 45.5771V36.9068H119.868V34.7756H122.282L123.013 30.5617H125.166V34.7635H128.384V36.9068H125.166L125.178 45.4679C125.178 45.9352 125.228 46.2775 125.327 46.495C125.426 46.7124 125.594 46.8523 125.83 46.9147C126.066 46.9771 126.387 47.0083 126.794 47.0083H128.462V48.9333C128.278 49.0049 128.004 49.0681 127.639 49.123C127.273 49.1779 126.804 49.2053 126.23 49.2053Z" fill="white"/>
<path id="Shape_5" d="M135.803 49.3855C134.88 49.3855 134.061 49.219 133.344 48.886C132.627 48.5531 132.066 48.073 131.659 47.4458C131.252 46.8185 131.049 46.0599 131.049 45.1699C131.049 43.5862 131.611 42.3998 132.736 41.6105C133.86 40.8213 135.661 40.4033 138.137 40.3565L140.485 40.2941V39.2476C140.485 38.4269 140.241 37.7816 139.753 37.3118C139.265 36.8419 138.509 36.6111 137.486 36.6191C136.726 36.6232 136.047 36.8006 135.447 37.1515C134.848 37.5024 134.455 38.0786 134.27 38.8803H131.705C131.76 37.9244 132.034 37.121 132.526 36.4701C133.017 35.8192 133.699 35.3279 134.57 34.9961C135.441 34.6643 136.46 34.4984 137.626 34.4984C138.931 34.4984 140.005 34.6761 140.849 35.0316C141.693 35.3871 142.319 35.9063 142.728 36.5893C143.137 37.2722 143.341 38.1046 143.341 39.0865V49.1083H140.827L140.598 46.4763C140.064 47.5714 139.386 48.33 138.565 48.7522C137.745 49.1744 136.824 49.3855 135.803 49.3855ZM136.735 47.3167C137.186 47.3167 137.632 47.2354 138.075 47.0728C138.517 46.9102 138.918 46.6883 139.28 46.407C139.641 46.1257 139.931 45.8107 140.15 45.4618C140.369 45.113 140.481 44.7529 140.485 44.3815V42.0182L138.542 42.0493C137.559 42.0649 136.722 42.1688 136.032 42.3608C135.341 42.5528 134.814 42.8523 134.449 43.2592C134.084 43.6661 133.902 44.2065 133.902 44.8805C133.902 45.6452 134.169 46.2424 134.703 46.6721C135.237 47.1018 135.914 47.3167 136.735 47.3167Z" fill="white"/>
<path id="Path_6" d="M0 76.831V56.7875H2.87624L13.08 71.7335V56.7875H16.0472V76.831H13.3884L2.9672 61.5766V76.831H0Z" fill="white"/>
<path id="Shape_6" d="M26.4735 77.1083C25.1301 77.1083 23.9584 76.8201 22.9584 76.2437C21.9583 75.6673 21.1824 74.8295 20.6305 73.7304C20.0787 72.6313 19.8027 71.298 19.8027 69.7305C19.8027 68.2295 20.0652 66.9155 20.5902 65.7887C21.1152 64.6619 21.8759 63.7856 22.8722 63.1598C23.8684 62.534 25.0729 62.2211 26.4856 62.2211C27.8319 62.2211 28.9999 62.5157 29.9895 63.1048C30.9792 63.6939 31.7466 64.5477 32.2918 65.6661C32.837 66.7846 33.1097 68.1394 33.1097 69.7305C33.1097 71.1848 32.8545 72.4654 32.3442 73.5723C31.834 74.6792 31.0869 75.5452 30.103 76.1704C29.1192 76.7957 27.9093 77.1083 26.4735 77.1083ZM26.4856 74.8211C27.3029 74.8211 27.9857 74.6053 28.5341 74.1735C29.0825 73.7418 29.4949 73.1376 29.7712 72.3607C30.0476 71.5839 30.1858 70.6789 30.1858 69.6456C30.1858 68.6967 30.0632 67.8324 29.818 67.0527C29.5728 66.273 29.1786 65.6525 28.6355 65.1914C28.0923 64.7302 27.3757 64.4996 26.4856 64.4996C25.6592 64.4996 24.9678 64.7094 24.4116 65.129C23.8554 65.5486 23.4369 66.1443 23.1559 66.9162C22.8749 67.6881 22.7344 68.5979 22.7344 69.6456C22.7344 70.5853 22.8593 71.4475 23.1091 72.2321C23.3589 73.0167 23.7593 73.6444 24.3103 74.1151C24.8613 74.5858 25.5864 74.8211 26.4856 74.8211Z" fill="white"/>
<path id="Path_7" d="M36.3411 76.831V62.4984H39.1827V65.4335C39.4201 64.7341 39.7547 64.1464 40.1868 63.6705C40.6188 63.1946 41.1198 62.8341 41.6899 62.5889C42.2599 62.3437 42.8663 62.2211 43.5092 62.2211C43.6986 62.2211 43.882 62.2328 44.0593 62.2562C44.2366 62.2796 44.3746 62.3199 44.4734 62.3771V65.2325C44.3521 65.1765 44.1967 65.1381 44.0073 65.1173C43.8179 65.0965 43.6559 65.0841 43.5213 65.08C42.8883 65.0356 42.3139 65.0669 41.7981 65.174C41.2824 65.2812 40.8381 65.4659 40.4653 65.7281C40.0925 65.9903 39.8064 66.3279 39.6072 66.7408C39.4079 67.1538 39.3083 67.6432 39.3083 68.2092V76.831H36.3411Z" fill="white"/>
<path id="Path_8" d="M52.8457 76.928C51.7812 76.928 50.9571 76.7851 50.3731 76.4992C49.7892 76.2133 49.3831 75.8004 49.1546 75.2604C48.9262 74.7203 48.812 74.0668 48.812 73.2998V64.6295H46.4833V62.4983H48.8969L49.6281 58.2845H51.7809V62.4862H54.9994V64.6295H51.7809L51.7931 73.1907C51.7931 73.6579 51.8427 74.0003 51.9421 74.2177C52.0414 74.4352 52.2091 74.5751 52.445 74.6375C52.6809 74.6998 53.0022 74.731 53.4088 74.731H55.0774V76.656C54.8937 76.7276 54.6192 76.7909 54.2539 76.8457C53.8886 76.9006 53.4192 76.928 52.8457 76.928Z" fill="white"/>
<path id="Path_9" d="M58.3304 76.831V56.233H61.2509V64.5906C61.4882 64.2146 61.8026 63.8552 62.1939 63.5124C62.5852 63.1696 63.0642 62.8889 63.6311 62.6703C64.198 62.4517 64.8635 62.3424 65.6276 62.3424C66.5552 62.3424 67.3965 62.5171 68.1517 62.8665C68.9068 63.216 69.5089 63.7153 69.958 64.3644C70.407 65.0136 70.6316 65.7875 70.6316 66.6862V76.831H67.6583V67.2233C67.6583 66.4246 67.3806 65.8073 66.8253 65.3716C66.27 64.9358 65.5603 64.7179 64.6963 64.7179C64.1101 64.7179 63.5566 64.8159 63.0359 65.012C62.5153 65.2081 62.0954 65.5028 61.7763 65.8961C61.4572 66.2894 61.2976 66.7835 61.2976 67.3784V76.831H58.3304Z" fill="white"/>
<path id="Shape_7" d="M4.76599 15.4079C3.67468 15.4079 2.74877 15.1845 1.98826 14.7378C1.22776 14.291 0.678693 13.6652 0.341069 12.8604C0.00344515 12.0556 -0.0835186 11.1177 0.0801778 10.0469C0.230233 9.0374 0.581498 8.10638 1.13397 7.25379C1.68645 6.40121 2.40091 5.71573 3.27737 5.19736C4.15383 4.67899 5.15135 4.4198 6.26995 4.4198C7.42264 4.4198 8.34514 4.65852 9.03744 5.13597C9.72974 5.61342 10.2055 6.2665 10.4647 7.09521C10.7239 7.92393 10.775 8.86006 10.6181 9.90363L10.4647 10.8244H3.84519C3.77017 11.2473 3.77869 11.5917 3.87077 11.8578C3.96285 12.1238 4.11802 12.3182 4.33628 12.4409C4.55455 12.5637 4.80691 12.6251 5.09338 12.6251C5.45488 12.6251 5.78909 12.5569 6.09602 12.4205C6.40295 12.284 6.66896 12.0112 6.89404 11.602H10.393C10.168 12.3864 9.75873 13.0633 9.16533 13.6328C8.57193 14.2024 7.88645 14.6406 7.10889 14.9475C6.33133 15.2545 5.55036 15.4079 4.76599 15.4079ZM4.14189 8.59406H7.16005C7.20097 8.32805 7.18221 8.0808 7.10378 7.85231C7.02534 7.62382 6.88381 7.44136 6.67919 7.30495C6.47457 7.16853 6.20174 7.10033 5.86071 7.10033C5.5947 7.10033 5.33722 7.16853 5.08826 7.30495C4.83931 7.44136 4.63128 7.62382 4.46417 7.85231C4.29706 8.0808 4.18964 8.32805 4.14189 8.59406Z" fill="white"/>
<path id="Path_10" d="M10.6591 15.2033L15.5393 9.67855L12.6541 4.62442H16.7056L18.0561 6.91617L20.0614 4.62442H24.1333L19.6726 9.67855L22.8442 15.2033H18.7927L17.1967 12.4L14.7412 15.2033H10.6591Z" fill="white"/>
<path id="Shape_8" d="M23.5092 18.4977L25.4633 4.62442H29.4637L29.2898 5.85214C29.6103 5.49065 29.9633 5.20588 30.3487 4.99785C30.734 4.78982 31.1245 4.64147 31.5201 4.5528C31.9157 4.46413 32.2772 4.4198 32.6046 4.4198C33.3412 4.4198 33.9756 4.61419 34.5076 5.00297C35.0396 5.39175 35.4198 5.99026 35.6483 6.79851C35.8768 7.60676 35.9024 8.63498 35.7251 9.88317C35.5341 11.2268 35.1777 12.3028 34.6559 13.1111C34.1341 13.9193 33.5203 14.5042 32.8143 14.8657C32.1084 15.2272 31.3803 15.4079 30.63 15.4079C30.4118 15.4079 30.185 15.3806 29.9497 15.3261C29.7143 15.2715 29.4841 15.1845 29.2591 15.0652C29.034 14.9458 28.8242 14.7924 28.6298 14.6048C28.4355 14.4172 28.2701 14.187 28.1336 13.9142L27.4891 18.4977H23.5092ZM29.9855 12.5637C30.4288 12.5637 30.85 12.354 31.249 11.9345C31.648 11.515 31.9123 10.8312 32.0419 9.88317C32.1578 9.02376 32.0794 8.36556 31.8066 7.90858C31.5338 7.45159 31.1757 7.2231 30.7323 7.2231C30.1526 7.2231 29.6939 7.4874 29.3563 8.016C29.0186 8.54461 28.8021 9.16699 28.7066 9.88317C28.6452 10.3129 28.6418 10.734 28.6964 11.1467C28.7509 11.5594 28.8822 11.8987 29.0902 12.1647C29.2983 12.4307 29.5967 12.5637 29.9855 12.5637Z" fill="white"/>
<path id="Path_11" d="M40.5643 15.4284C39.5958 15.4284 38.8541 15.3244 38.3391 15.1163C37.8241 14.9083 37.4695 14.6372 37.2751 14.303C37.0807 13.9688 36.9835 13.6004 36.9835 13.198C36.9835 12.7956 37.0108 12.4 37.0653 12.0112L38.8864 0H42.7742L41.035 11.4792C40.994 11.7316 41.0213 11.9703 41.1168 12.1954C41.2123 12.4205 41.5226 12.5705 42.0478 12.6455L42.4571 12.6865L42.0888 15.101C41.8432 15.1897 41.5891 15.2664 41.3265 15.3312C41.064 15.396 40.8099 15.4284 40.5643 15.4284Z" fill="white"/>
<path id="Shape_9" d="M48.6059 15.4079C47.5283 15.4079 46.6262 15.176 45.8998 14.7122C45.1734 14.2484 44.655 13.609 44.3447 12.7939C44.0344 11.9788 43.9576 11.0427 44.1145 9.98548C44.285 8.87371 44.6619 7.90005 45.245 7.06452C45.8282 6.22899 46.558 5.57932 47.4345 5.11551C48.3109 4.6517 49.2675 4.4198 50.3043 4.4198C51.4092 4.4198 52.3232 4.66023 53.0462 5.14109C53.7692 5.62195 54.2824 6.28185 54.5859 7.12079C54.8895 7.95973 54.9594 8.91463 54.7957 9.98548C54.632 11.0359 54.2688 11.9686 53.7061 12.7837C53.1434 13.5987 52.4272 14.2399 51.5576 14.7071C50.6879 15.1743 49.704 15.4079 48.6059 15.4079ZM49.0868 12.5228C49.5028 12.5228 49.8388 12.3778 50.0945 12.088C50.3503 11.7981 50.5464 11.4451 50.6828 11.029C50.8192 10.613 50.9147 10.2174 50.9693 9.84224C51.0307 9.46028 51.0528 9.0698 51.0358 8.67079C51.0187 8.27178 50.9249 7.93757 50.7544 7.66815C50.5839 7.39873 50.2906 7.26402 49.8746 7.26402C49.4449 7.26402 49.1004 7.39873 48.8412 7.66815C48.582 7.93757 48.3877 8.27178 48.2581 8.67079C48.1285 9.0698 48.0364 9.46028 47.9818 9.84224C47.9273 10.2174 47.9051 10.613 47.9153 11.029C47.9256 11.4451 48.0159 11.7981 48.1864 12.088C48.357 12.3778 48.6571 12.5228 49.0868 12.5228Z" fill="white"/>
<path id="Path_12" d="M55.7063 15.2033L57.1898 4.62442H61.0366L60.6274 7.55049C60.8661 6.98438 61.1713 6.4643 61.5431 5.99026C61.9148 5.51622 62.3564 5.13597 62.868 4.8495C63.3795 4.56303 63.9627 4.4198 64.6175 4.4198C64.6652 4.4198 64.7027 4.4198 64.73 4.4198C64.7573 4.4198 64.7709 4.4198 64.7709 4.4198L64.2389 8.18482C64.2185 8.178 64.2014 8.17459 64.1878 8.17459C64.1741 8.17459 64.1503 8.17118 64.1162 8.16435C63.1408 8.06204 62.3956 8.10126 61.8807 8.28201C61.3657 8.46276 61.0042 8.72365 60.7962 9.06468C60.5882 9.40572 60.4569 9.76039 60.4023 10.1287L59.6861 15.2033H55.7063Z" fill="white"/>
<path id="Shape_10" d="M69.4465 15.4079C68.3552 15.4079 67.4293 15.1845 66.6688 14.7378C65.9083 14.291 65.3592 13.6652 65.0216 12.8604C64.684 12.0556 64.597 11.1177 64.7607 10.0469C64.9108 9.0374 65.262 8.10638 65.8145 7.25379C66.367 6.40121 67.0814 5.71573 67.9579 5.19736C68.8344 4.67899 69.8319 4.4198 70.9505 4.4198C72.1032 4.4198 73.0257 4.65852 73.718 5.13597C74.4103 5.61342 74.886 6.2665 75.1452 7.09521C75.4044 7.92393 75.4555 8.86006 75.2987 9.90363L75.1452 10.8244H68.5257C68.4507 11.2473 68.4592 11.5917 68.5513 11.8578C68.6434 12.1238 68.7986 12.3182 69.0168 12.4409C69.2351 12.5637 69.4874 12.6251 69.7739 12.6251C70.1354 12.6251 70.4696 12.5569 70.7765 12.4205C71.0835 12.284 71.3495 12.0112 71.5746 11.602H75.0736C74.8485 12.3864 74.4393 13.0633 73.8459 13.6328C73.2525 14.2024 72.567 14.6406 71.7894 14.9475C71.0119 15.2545 70.2309 15.4079 69.4465 15.4079ZM68.8224 8.59406H71.8406C71.8815 8.32805 71.8627 8.0808 71.7843 7.85231C71.7059 7.62382 71.5643 7.44136 71.3597 7.30495C71.1551 7.16853 70.8823 7.10033 70.5412 7.10033C70.2752 7.10033 70.0178 7.16853 69.7688 7.30495C69.5198 7.44136 69.3118 7.62382 69.1447 7.85231C68.9776 8.0808 68.8702 8.32805 68.8224 8.59406Z" fill="white"/>
<path id="Path_13" d="M79.3399 11.5611L79.7389 8.75775H96.6508L96.2518 11.5611H79.3399Z" fill="white"/>
</g>
</svg>
