<svg width="233" height="87" viewBox="0 0 233 87" fill="none" xmlns="http://www.w3.org/2000/svg">
<path d="M6.27218 15.4456C5.17766 15.4456 4.24903 15.2217 3.48629 14.7738C2.72355 14.326 2.17287 13.6987 1.83426 12.8918C1.49565 12.0851 1.40842 11.1449 1.5726 10.0715C1.72309 9.05953 2.07539 8.12624 2.62949 7.27158C3.18359 6.41691 3.90015 5.72976 4.77918 5.21012C5.65822 4.69049 6.65867 4.43066 7.78055 4.43066C8.93663 4.43066 9.8618 4.66998 10.5561 5.14858C11.2505 5.6272 11.7277 6.28187 11.9876 7.1126C12.2476 7.94335 12.2988 8.88177 12.1415 9.92788L11.9876 10.8509H5.34867C5.27343 11.2748 5.28198 11.6201 5.37433 11.8868C5.46668 12.1534 5.6223 12.3483 5.8412 12.4713C6.06011 12.5944 6.31322 12.656 6.60053 12.656C6.96309 12.656 7.29828 12.5876 7.60611 12.4509C7.91394 12.3141 8.18074 12.0406 8.40648 11.6304H11.9157C11.6901 12.4167 11.2796 13.0952 10.6844 13.6662C10.0893 14.2371 9.4018 14.6764 8.62196 14.984C7.84211 15.2918 7.05885 15.4456 6.27218 15.4456ZM5.64624 8.61511H8.67327C8.71431 8.34845 8.69549 8.1006 8.61683 7.87155C8.53816 7.6425 8.39622 7.4596 8.191 7.32286C7.98577 7.18611 7.71214 7.11774 7.37011 7.11774C7.10332 7.11774 6.84508 7.18611 6.59539 7.32286C6.34571 7.4596 6.13707 7.6425 5.96947 7.87155C5.80187 8.1006 5.69413 8.34845 5.64624 8.61511Z" fill="#146CFD"/>
<path d="M12.1826 15.2404L17.0772 9.70221L14.1835 4.63574H18.2469L19.6013 6.93309L21.6125 4.63574H25.6964L21.2226 9.70221L24.4035 15.2404H20.3401L18.7394 12.4303L16.2768 15.2404H12.1826Z" fill="#146CFD"/>
<path d="M25.0703 18.5429L27.0302 4.63578H31.0422L30.8678 5.86651C31.1893 5.50413 31.5433 5.21867 31.9298 5.01013C32.3163 4.80159 32.708 4.65288 33.1047 4.564C33.5015 4.47511 33.8641 4.43066 34.1924 4.43066C34.9312 4.43066 35.5674 4.62553 36.1009 5.01526C36.6345 5.40499 37.0159 6.00496 37.2451 6.81519C37.4742 7.62541 37.4999 8.65613 37.322 9.90737C37.1304 11.2544 36.7731 12.3329 36.2498 13.1432C35.7264 13.9533 35.1107 14.5397 34.4027 14.902C33.6947 15.2644 32.9644 15.4456 32.212 15.4456C31.9931 15.4456 31.7656 15.4183 31.5296 15.3636C31.2936 15.3088 31.0628 15.2217 30.837 15.102C30.6112 14.9823 30.4009 14.8286 30.206 14.6405C30.011 14.4524 29.8451 14.2217 29.7083 13.9482L29.0618 18.5429H25.0703ZM31.5655 12.5944C32.0102 12.5944 32.4326 12.3842 32.8327 11.9637C33.233 11.5432 33.4981 10.8578 33.628 9.90737C33.7443 9.04586 33.6657 8.38606 33.392 7.92796C33.1184 7.46985 32.7592 7.24081 32.3146 7.24081C31.7331 7.24081 31.2731 7.50575 30.9345 8.03565C30.5959 8.56554 30.3787 9.18945 30.2829 9.90737C30.2214 10.3381 30.2179 10.7604 30.2726 11.174C30.3274 11.5877 30.4591 11.9278 30.6677 12.1944C30.8763 12.4611 31.1756 12.5944 31.5655 12.5944Z" fill="#146CFD"/>
<path d="M42.1758 15.4661C41.2044 15.4661 40.4606 15.3618 39.9441 15.1532C39.4275 14.9447 39.0719 14.6729 38.8769 14.3379C38.682 14.0029 38.5845 13.6336 38.5845 13.2302C38.5845 12.8268 38.6119 12.4303 38.6665 12.0405L40.4931 0H44.3922L42.6479 11.5072C42.6068 11.7602 42.6341 11.9995 42.7299 12.2252C42.8257 12.4508 43.137 12.6012 43.6636 12.6764L44.0742 12.7175L43.7048 15.1379C43.4584 15.2268 43.2037 15.3037 42.9403 15.3686C42.677 15.4336 42.4221 15.4661 42.1758 15.4661Z" fill="#146CFD"/>
<path d="M50.2411 15.4456C49.1602 15.4456 48.2556 15.2131 47.527 14.7482C46.7985 14.2832 46.2786 13.6423 45.9674 12.8252C45.6561 12.0081 45.5791 11.0697 45.7365 10.0099C45.9075 8.89545 46.2854 7.91942 46.8703 7.08184C47.4551 6.24427 48.1872 5.59301 49.0661 5.12807C49.9452 4.66314 50.9046 4.43066 51.9444 4.43066C53.0526 4.43066 53.9692 4.67168 54.6943 5.15371C55.4195 5.63575 55.9343 6.29726 56.2387 7.13825C56.543 7.97924 56.6131 8.93647 56.449 10.0099C56.2848 11.0629 55.9205 11.9979 55.3562 12.815C54.7918 13.632 54.0736 14.2747 53.2014 14.7431C52.3292 15.2114 51.3424 15.4456 50.2411 15.4456ZM50.7233 12.5534C51.1406 12.5534 51.4775 12.4082 51.7341 12.1176C51.9906 11.827 52.1873 11.4731 52.3241 11.0561C52.4609 10.639 52.5567 10.2424 52.6113 9.86634C52.6729 9.48346 52.6952 9.09201 52.678 8.69203C52.661 8.29205 52.5669 7.95702 52.3959 7.68694C52.2249 7.41687 51.9307 7.28184 51.5134 7.28184C51.0824 7.28184 50.737 7.41687 50.4771 7.68694C50.2171 7.95702 50.0221 8.29205 49.8922 8.69203C49.7622 9.09201 49.6698 9.48346 49.6152 9.86634C49.5604 10.2424 49.5381 10.639 49.5485 11.0561C49.5587 11.4731 49.6494 11.827 49.8204 12.1176C49.9914 12.4082 50.2923 12.5534 50.7233 12.5534Z" fill="#146CFD"/>
<path d="M57.3623 15.2405L58.8502 4.63578H62.7084L62.298 7.56901C62.5374 7.0015 62.8435 6.48015 63.2162 6.00496C63.5891 5.52977 64.032 5.14858 64.5451 4.86141C65.0581 4.57425 65.6431 4.43066 66.2998 4.43066C66.3476 4.43066 66.3852 4.43066 66.4126 4.43066C66.44 4.43066 66.4536 4.43066 66.4536 4.43066L65.9201 8.20487C65.8996 8.19804 65.8825 8.19462 65.8688 8.19462C65.8551 8.19462 65.8311 8.1912 65.7969 8.18436C64.8187 8.0818 64.0714 8.12112 63.5549 8.3023C63.0384 8.48349 62.6759 8.74502 62.4673 9.08689C62.2585 9.42875 62.1269 9.7843 62.0722 10.1535L61.3539 15.2405H57.3623Z" fill="#146CFD"/>
<path d="M71.1428 15.4456C70.0483 15.4456 69.1196 15.2217 68.3569 14.7738C67.5942 14.326 67.0436 13.6987 66.7049 12.8918C66.3663 12.0851 66.279 11.1449 66.4432 10.0715C66.5937 9.05953 66.9461 8.12624 67.5001 7.27158C68.0542 6.41691 68.7708 5.72976 69.6498 5.21012C70.5289 4.69049 71.5293 4.43066 72.6512 4.43066C73.8073 4.43066 74.7325 4.66998 75.4268 5.14858C76.1211 5.6272 76.5982 6.28187 76.8582 7.1126C77.1182 7.94335 77.1695 8.88177 77.0121 9.92788L76.8582 10.8509H70.2194C70.144 11.2748 70.1527 11.6201 70.2449 11.8868C70.3373 12.1534 70.493 12.3483 70.7118 12.4713C70.9307 12.5944 71.1839 12.656 71.4711 12.656C71.8337 12.656 72.1689 12.5876 72.4768 12.4509C72.7846 12.3141 73.0514 12.0406 73.2771 11.6304H76.7864C76.5606 12.4167 76.1502 13.0952 75.5551 13.6662C74.9599 14.2371 74.2724 14.6764 73.4925 14.984C72.7128 15.2918 71.9295 15.4456 71.1428 15.4456ZM70.5169 8.61511H73.5439C73.5849 8.34845 73.5662 8.1006 73.4874 7.87155C73.4088 7.6425 73.2669 7.4596 73.0616 7.32286C72.8564 7.18611 72.5828 7.11774 72.2408 7.11774C71.974 7.11774 71.7157 7.18611 71.466 7.32286C71.2164 7.4596 71.0077 7.6425 70.8401 7.87155C70.6725 8.1006 70.5648 8.34845 70.5169 8.61511Z" fill="#146CFD"/>
<path d="M81.0654 11.5894L81.4656 8.7793H98.4272L98.027 11.5894H81.0654Z" fill="#146CFD"/>
<path d="M224.926 87.0005C222.652 87.0005 220.878 86.6682 219.605 86.004C218.331 85.349 217.695 84.4087 217.695 83.1832C217.695 82.6592 217.817 82.2148 218.06 81.8499C218.303 81.4756 218.594 81.1668 218.931 80.9237C219.268 80.6804 219.581 80.4886 219.872 80.3483C220.162 80.1985 220.353 80.0909 220.447 80.0255C220.279 79.9318 220.077 79.815 219.844 79.6746C219.609 79.5343 219.398 79.3471 219.212 79.1132C219.033 78.8793 218.945 78.5752 218.945 78.201C218.945 77.7425 219.16 77.3215 219.591 76.938C220.021 76.5543 220.662 76.2689 221.514 76.0819C220.662 75.6514 219.998 75.0807 219.521 74.3697C219.043 73.6586 218.805 72.8867 218.805 72.0541C218.805 71.1184 219.057 70.3044 219.563 69.6121C220.068 68.9197 220.793 68.3911 221.739 68.0263C222.684 67.6519 223.812 67.4649 225.123 67.4649C226.068 67.4649 226.859 67.5772 227.496 67.8017C228.142 68.0168 228.741 68.3256 229.293 68.728C229.443 68.6624 229.681 68.5642 230.009 68.4332C230.336 68.2929 230.692 68.1431 231.076 67.9842C231.47 67.8251 231.835 67.6754 232.172 67.5351C232.518 67.3853 232.794 67.273 233 67.1982L232.986 69.5981L230.445 70.0752C230.594 70.3746 230.711 70.7021 230.796 71.0576C230.88 71.4131 230.922 71.7453 230.922 72.0541C230.922 72.9054 230.697 73.6773 230.248 74.3697C229.808 75.062 229.139 75.614 228.24 76.0257C227.342 76.4373 226.218 76.6432 224.87 76.6432C224.758 76.6432 224.613 76.6432 224.435 76.6432C224.267 76.6338 224.121 76.6245 224 76.6152C223.007 76.6432 222.324 76.7555 221.95 76.952C221.585 77.139 221.402 77.3496 221.402 77.5835C221.402 77.8548 221.613 78.0419 222.034 78.1449C222.455 78.2477 223.166 78.3367 224.168 78.4115C224.533 78.4302 224.983 78.4536 225.516 78.4817C226.059 78.5098 226.663 78.5472 227.328 78.594C228.844 78.6875 230.013 79.0758 230.838 79.7588C231.661 80.4418 232.073 81.3633 232.073 82.5235C232.073 83.8428 231.484 84.9187 230.304 85.7514C229.134 86.584 227.342 87.0005 224.926 87.0005ZM225.39 85.3304C226.728 85.3304 227.753 85.1292 228.465 84.7269C229.185 84.3245 229.546 83.7165 229.546 82.9025C229.546 82.3224 229.325 81.8499 228.886 81.485C228.446 81.1107 227.781 80.8956 226.892 80.8394L222.82 80.5728C222.455 80.5541 222.076 80.6476 221.683 80.8535C221.29 81.05 220.957 81.3259 220.686 81.6815C220.414 82.037 220.279 82.4394 220.279 82.8884C220.279 83.6556 220.695 84.2544 221.529 84.6848C222.361 85.1152 223.649 85.3304 225.39 85.3304ZM224.955 74.9732C225.994 74.9732 226.831 74.7299 227.468 74.2434C228.114 73.7568 228.437 73.0365 228.437 72.0821C228.437 71.0997 228.114 70.3512 227.468 69.8367C226.831 69.322 225.994 69.0648 224.955 69.0648C223.887 69.0648 223.026 69.3267 222.371 69.8507C221.725 70.3652 221.402 71.1091 221.402 72.0821C221.402 72.999 221.711 73.7101 222.329 74.2153C222.956 74.7206 223.831 74.9732 224.955 74.9732Z" fill="#22272B"/>
<path d="M202.582 82.1994V67.6881H205.095V69.7932C205.33 69.3908 205.653 69.0119 206.064 68.6564C206.485 68.3008 206.991 68.0154 207.581 67.8003C208.18 67.5851 208.868 67.4775 209.645 67.4775C210.562 67.4775 211.405 67.66 212.172 68.0249C212.949 68.3898 213.567 68.9604 214.026 69.737C214.494 70.5042 214.728 71.4959 214.728 72.7123V82.1994H212.13V72.9649C212.13 71.8327 211.831 70.9954 211.231 70.4528C210.642 69.9007 209.874 69.6248 208.929 69.6248C208.274 69.6248 207.661 69.7323 207.089 69.9475C206.519 70.1534 206.055 70.4714 205.699 70.9019C205.344 71.3229 205.166 71.8562 205.166 72.5018V82.1994H202.582Z" fill="#22272B"/>
<path d="M195.549 82.2003V67.6889H198.063V82.2003H195.549ZM195.479 64.6155V61.9209H198.133V64.6155H195.479Z" fill="#22272B"/>
<path d="M183.852 82.4812C181.962 82.4812 180.464 81.8356 179.359 80.5444C178.264 79.2533 177.716 77.368 177.716 74.8887C177.716 73.3823 177.937 72.0678 178.377 70.9451C178.817 69.8223 179.476 68.9522 180.356 68.3347C181.237 67.7172 182.332 67.4085 183.643 67.4085C184.345 67.4085 184.962 67.4974 185.495 67.6751C186.029 67.8528 186.492 68.0774 186.885 68.3488C187.278 68.6201 187.597 68.9008 187.84 69.1908C188.093 69.4808 188.28 69.7475 188.402 69.9907V61.3457H191.027V82.2005H189.033L188.753 79.2252C188.659 79.5059 188.51 79.8334 188.303 80.2076C188.098 80.5725 187.808 80.9327 187.433 81.2883C187.068 81.6344 186.59 81.9198 186.001 82.1443C185.411 82.3689 184.695 82.4812 183.852 82.4812ZM184.316 80.4883C185.776 80.4883 186.82 80.0439 187.447 79.1551C188.084 78.2569 188.402 76.7926 188.402 74.7624C188.393 73.6303 188.252 72.6666 187.98 71.8713C187.71 71.0761 187.278 70.4726 186.689 70.0609C186.109 69.6399 185.332 69.4294 184.358 69.4294C183.169 69.4294 182.2 69.8551 181.451 70.7065C180.703 71.5579 180.328 72.9099 180.328 74.7624C180.328 76.5775 180.665 77.9855 181.339 78.9867C182.013 79.9878 183.006 80.4883 184.316 80.4883Z" fill="#22272B"/>
<path d="M174.407 82.3829C173.621 82.3829 172.985 82.2754 172.498 82.0601C172.02 81.8449 171.651 81.5549 171.389 81.19C171.136 80.8251 170.963 80.4088 170.869 79.941C170.785 79.4638 170.743 78.9726 170.743 78.4674V61.3457H173.298V78.2148C173.298 78.9446 173.439 79.4919 173.719 79.8568C174.01 80.2217 174.412 80.4228 174.927 80.4602L175.713 80.4743V82.1584C175.499 82.2238 175.274 82.2754 175.039 82.3127C174.806 82.3596 174.595 82.3829 174.407 82.3829Z" fill="#22272B"/>
<path d="M163.71 82.2003V67.6889H166.223V82.2003H163.71ZM163.64 64.6155V61.9209H166.293V64.6155H163.64Z" fill="#22272B"/>
<path d="M152.521 82.4805C151.763 82.4712 151.047 82.3636 150.373 82.1577C149.709 81.9426 149.119 81.6291 148.604 81.2174C148.089 80.8058 147.682 80.2959 147.382 79.6877C147.092 79.0702 146.947 78.3544 146.947 77.5405V67.6885H149.544V77.2738C149.544 78.2188 149.835 78.986 150.415 79.5754C151.005 80.1649 151.889 80.4596 153.069 80.4596C154.136 80.4596 154.992 80.1836 155.638 79.6316C156.294 79.0702 156.621 78.2376 156.621 77.1335V67.6885H159.205V82.1998H157.141L156.874 79.421C156.696 80.1508 156.392 80.7403 155.961 81.1894C155.54 81.6384 155.03 81.9706 154.431 82.1858C153.841 82.3917 153.205 82.4899 152.521 82.4805Z" fill="#22272B"/>
<path d="M128.879 82.2006V61.9072H135.409C137.88 61.9072 139.747 62.3609 141.011 63.2685C142.285 64.176 142.921 65.4859 142.921 67.1981C142.921 68.274 142.64 69.1956 142.078 69.9628C141.525 70.73 140.553 71.3615 139.157 71.8575C139.953 72.0259 140.623 72.269 141.165 72.5872C141.718 72.9053 142.158 73.2795 142.485 73.71C142.822 74.131 143.061 74.5987 143.201 75.1134C143.351 75.6279 143.426 76.1706 143.426 76.7413C143.426 78.5751 142.771 79.9457 141.46 80.8534C140.159 81.7515 138.212 82.2006 135.619 82.2006H128.879ZM131.477 80.0394H135.591C137.285 80.0394 138.573 79.7633 139.452 79.2114C140.342 78.65 140.786 77.7892 140.786 76.6291C140.786 75.7776 140.567 75.0899 140.126 74.566C139.696 74.0327 139.11 73.6444 138.371 73.4012C137.632 73.1579 136.808 73.0363 135.9 73.0363H131.477V80.0394ZM131.477 70.833H135.9C136.434 70.833 136.962 70.7814 137.487 70.6786C138.011 70.5756 138.493 70.3979 138.933 70.1453C139.373 69.8927 139.728 69.5558 140 69.1348C140.272 68.7044 140.407 68.1665 140.407 67.5209C140.407 66.342 139.953 65.4719 139.045 64.9105C138.147 64.3397 136.976 64.0545 135.535 64.0545H131.477V70.833Z" fill="#22272B"/>
<path d="M112.645 82.4809C111.634 82.4809 110.693 82.3265 109.822 82.0178C108.961 81.6997 108.245 81.2085 107.674 80.5442C107.102 79.8705 106.747 79.0145 106.607 77.9759H108.966C109.087 78.5467 109.321 79.0239 109.668 79.4074C110.014 79.7817 110.44 80.067 110.946 80.2635C111.46 80.4507 112.022 80.5442 112.631 80.5442C113.613 80.5442 114.404 80.3617 115.004 79.9969C115.602 79.632 115.902 79.0706 115.902 78.3128C115.902 77.7795 115.743 77.3538 115.425 77.0356C115.116 76.7082 114.628 76.4697 113.964 76.3199L110.96 75.5761C109.789 75.2954 108.854 74.8557 108.151 74.2569C107.458 73.6581 107.107 72.8208 107.098 71.7448C107.098 70.8934 107.304 70.1449 107.716 69.4993C108.127 68.8537 108.741 68.3439 109.556 67.9696C110.379 67.5954 111.404 67.4082 112.631 67.4082C114.212 67.4082 115.485 67.7638 116.45 68.4748C117.414 69.1765 117.919 70.2104 117.966 71.5763H115.663C115.569 70.8841 115.26 70.3367 114.737 69.9344C114.212 69.5227 113.501 69.3168 112.602 69.3168C111.685 69.3168 110.932 69.504 110.342 69.8782C109.761 70.2431 109.471 70.8139 109.471 71.5904C109.471 72.105 109.677 72.512 110.089 72.8114C110.51 73.1015 111.118 73.3447 111.914 73.5411L114.835 74.2709C115.499 74.4487 116.052 74.6826 116.492 74.9726C116.931 75.2627 117.278 75.5855 117.531 75.941C117.784 76.2965 117.961 76.6708 118.064 77.0637C118.177 77.4473 118.233 77.8169 118.233 78.1724C118.233 79.0613 118.012 79.8284 117.573 80.474C117.133 81.1103 116.496 81.6062 115.663 81.9616C114.83 82.3079 113.824 82.4809 112.645 82.4809Z" fill="#22272B"/>
<path d="M101.905 68.5314L103.464 65.0509L102.256 64.9807V61.9072H105.5V64.6018L103.113 68.5314H101.905Z" fill="#22272B"/>
<path d="M98.882 82.3829C98.0957 82.3829 97.4592 82.2754 96.9724 82.0601C96.495 81.8449 96.1252 81.5549 95.8632 81.19C95.6104 80.8251 95.4372 80.4088 95.3437 79.941C95.2594 79.4638 95.2173 78.9726 95.2173 78.4674V61.3457H97.7728V78.2148C97.7728 78.9446 97.9132 79.4919 98.194 79.8568C98.4842 80.2217 98.8867 80.4228 99.4015 80.4602L100.188 80.4743V82.1584C99.9725 82.2238 99.7479 82.2754 99.5139 82.3127C99.2799 82.3596 99.0692 82.3829 98.882 82.3829Z" fill="#22272B"/>
<path d="M83.7675 82.4809C82.822 82.4809 81.9889 82.3172 81.2682 81.9897C80.5567 81.6529 79.9951 81.1711 79.5833 80.5442C79.1807 79.9174 78.9795 79.1595 78.9795 78.2706C78.9795 76.6614 79.5411 75.4638 80.6644 74.6779C81.7877 73.892 83.5896 73.471 86.0703 73.4148L88.6537 73.3447V72.2079C88.6537 71.3191 88.387 70.6174 87.8535 70.1028C87.3199 69.5789 86.4961 69.3168 85.3822 69.3168C84.5491 69.3263 83.8142 69.5227 83.1778 69.9063C82.5412 70.2899 82.134 70.9167 81.9562 71.7869H79.6675C79.7237 70.842 79.9857 70.0466 80.4538 69.4011C80.9312 68.7462 81.6005 68.2503 82.4617 67.9134C83.3228 67.5766 84.3385 67.4082 85.5086 67.4082C86.7723 67.4082 87.8207 67.586 88.6537 67.9415C89.4963 68.2971 90.1234 68.821 90.5353 69.5133C90.9566 70.2057 91.1672 71.0571 91.1672 72.0675V82.2002H88.9487L88.752 79.4776C88.1998 80.6097 87.4884 81.3957 86.6179 81.8353C85.7566 82.2658 84.8066 82.4809 83.7675 82.4809ZM84.5398 80.6144C85.0358 80.6144 85.5227 80.5255 86.0001 80.3477C86.4868 80.17 86.9268 79.9314 87.3199 79.632C87.7224 79.3232 88.0453 78.9818 88.2888 78.6075C88.5321 78.2239 88.6537 77.831 88.6537 77.4286V74.9445L86.5055 74.9867C85.3916 75.0054 84.4649 75.1177 83.7254 75.3235C82.9858 75.5294 82.4289 75.8522 82.0545 76.2918C81.68 76.7316 81.4928 77.307 81.4928 78.018C81.4928 78.832 81.7783 79.4683 82.3494 79.9267C82.9203 80.3852 83.6505 80.6144 84.5398 80.6144Z" fill="#22272B"/>
<path d="M69.2466 82.2002V67.6889H71.7178V70.4817C71.9611 69.7894 72.3028 69.2186 72.7428 68.7695C73.1827 68.3111 73.6836 67.9696 74.2452 67.745C74.8162 67.5205 75.4059 67.4082 76.0144 67.4082C76.2296 67.4082 76.4402 67.4222 76.6463 67.4503C76.8522 67.4784 77.0113 67.5252 77.1237 67.5906V70.1028C76.9832 70.0373 76.8007 69.9952 76.576 69.9765C76.3607 69.9484 76.1782 69.9344 76.0284 69.9344C75.448 69.897 74.9052 69.9343 74.3997 70.0466C73.8942 70.1496 73.4495 70.332 73.0658 70.594C72.6819 70.856 72.3778 71.2021 72.1531 71.6325C71.9378 72.0535 71.8302 72.5682 71.8302 73.1762V82.2002H69.2466Z" fill="#22272B"/>
<path d="M59.4771 82.4809C58.1291 82.4809 56.9403 82.1862 55.9106 81.5967C54.8809 81.0073 54.0759 80.1606 53.4955 79.0566C52.9151 77.9526 52.625 76.6286 52.625 75.0849C52.625 73.5599 52.8871 72.2219 53.4113 71.0711C53.9355 69.9203 54.6938 69.0221 55.686 68.3766C56.6876 67.731 57.8904 67.4082 59.2945 67.4082C60.6612 67.4082 61.8172 67.7029 62.7627 68.2924C63.7082 68.8818 64.4243 69.7145 64.911 70.7904C65.4071 71.857 65.6552 73.1248 65.6552 74.5937V75.548H55.2507C55.2507 76.4649 55.4004 77.2977 55.7 78.0461C56.0089 78.7853 56.4723 79.3747 57.0901 79.8144C57.7079 80.2542 58.4895 80.474 59.4349 80.474C60.3617 80.474 61.1573 80.2589 61.8219 79.8284C62.4959 79.3981 62.9265 78.7759 63.1137 77.9619H65.5569C65.3884 78.9443 64.9952 79.7723 64.3774 80.4459C63.7689 81.1196 63.0342 81.6295 62.173 81.9757C61.3212 82.3125 60.4225 82.4809 59.4771 82.4809ZM55.2647 73.7937H63.1558C63.1558 72.9611 63.0154 72.2126 62.7346 71.5483C62.4538 70.8746 62.0232 70.3461 61.4428 69.9624C60.8719 69.5695 60.151 69.373 59.2805 69.373C58.3725 69.373 57.6189 69.5929 57.0199 70.0326C56.4208 70.463 55.9761 71.0197 55.686 71.7027C55.3958 72.3763 55.2554 73.0734 55.2647 73.7937Z" fill="#22272B"/>
<path d="M37.1333 82.1994V67.6881H39.6467V69.7932C39.8807 69.3908 40.2037 69.0119 40.6155 68.6564C41.0367 68.3008 41.5422 68.0154 42.1319 67.8003C42.7311 67.5851 43.4191 67.4775 44.196 67.4775C45.1134 67.4775 45.9558 67.66 46.7234 68.0249C47.5004 68.3898 48.1182 68.9604 48.5768 69.737C49.0449 70.5042 49.2789 71.4959 49.2789 72.7123V82.1994H46.6813V72.9649C46.6813 71.8327 46.3818 70.9954 45.7826 70.4528C45.1929 69.9007 44.4254 69.6248 43.4799 69.6248C42.8247 69.6248 42.2116 69.7323 41.6405 69.9475C41.0695 70.1534 40.6062 70.4714 40.2504 70.9019C39.8948 71.3229 39.7169 71.8562 39.7169 72.5018V82.1994H37.1333Z" fill="#22272B"/>
<path d="M27.3633 82.4809C26.0154 82.4809 24.8265 82.1862 23.7969 81.5967C22.7671 81.0073 21.9621 80.1606 21.3818 79.0566C20.8014 77.9526 20.5112 76.6286 20.5112 75.0849C20.5112 73.5599 20.7733 72.2219 21.2975 71.0711C21.8217 69.9203 22.5799 69.0221 23.5722 68.3766C24.5737 67.731 25.7767 67.4082 27.1808 67.4082C28.5474 67.4082 29.7035 67.7029 30.6489 68.2924C31.5943 68.8818 32.3104 69.7145 32.7972 70.7904C33.2933 71.857 33.5414 73.1248 33.5414 74.5937V75.548H23.1369C23.1369 76.4649 23.2867 77.2977 23.5862 78.0461C23.8951 78.7853 24.3585 79.3747 24.9763 79.8144C25.5941 80.2542 26.3757 80.474 27.3212 80.474C28.2479 80.474 29.0435 80.2589 29.7082 79.8284C30.3821 79.3981 30.8127 78.7759 30.9999 77.9619H33.4431C33.2746 78.9443 32.8815 79.7723 32.2637 80.4459C31.6552 81.1196 30.9203 81.6295 30.0592 81.9757C29.2073 82.3125 28.3087 82.4809 27.3633 82.4809ZM23.151 73.7937H31.0421C31.0421 72.9611 30.9017 72.2126 30.6208 71.5483C30.34 70.8746 29.9094 70.3461 29.3291 69.9624C28.758 69.5695 28.0373 69.373 27.1667 69.373C26.2587 69.373 25.5052 69.5929 24.9061 70.0326C24.3069 70.463 23.8623 71.0197 23.5722 71.7027C23.2819 72.3763 23.1415 73.0734 23.151 73.7937Z" fill="#22272B"/>
<path d="M8.62125 82.4808C6.8427 82.4808 5.30755 82.0738 4.01576 81.2598C2.72398 80.4365 1.73173 79.2529 1.03905 77.7091C0.346347 76.1654 0 74.2988 0 72.1095C0 69.9014 0.351028 68.0162 1.05309 66.4537C1.7645 64.8912 2.77546 63.6983 4.08597 62.875C5.39647 62.0423 6.94567 61.626 8.73358 61.626C9.75386 61.626 10.7134 61.8037 11.612 62.1593C12.5106 62.5148 13.3063 63.0013 13.999 63.6188C14.6917 64.227 15.2439 64.924 15.6558 65.7099C16.0771 66.4958 16.3158 67.3145 16.3719 68.1659H13.5918C13.4607 67.4174 13.1706 66.7204 12.7213 66.0748C12.2719 65.4292 11.701 64.91 11.0082 64.517C10.3249 64.1241 9.55267 63.9276 8.69146 63.9276C7.52136 63.9276 6.49168 64.2176 5.60241 64.7977C4.72249 65.3684 4.03448 66.2525 3.53837 67.4502C3.0516 68.6478 2.80823 70.1821 2.80823 72.0534C2.80823 73.4942 2.958 74.7292 3.25754 75.7584C3.55708 76.7876 3.97364 77.6249 4.5072 78.2705C5.05012 78.9067 5.68197 79.3792 6.40276 79.688C7.13289 79.9874 7.9192 80.137 8.76166 80.137C9.61345 80.137 10.353 79.9874 10.9802 79.688C11.6167 79.3885 12.1456 79.005 12.5668 78.5371C12.988 78.06 13.311 77.5501 13.5356 77.0074C13.7696 76.4554 13.896 75.9268 13.9147 75.4216L13.999 73.6252H9.05653V71.7165L16.6949 71.7306V82.2001H14.7432V79.1126C14.3874 79.6927 13.9381 80.24 13.3952 80.7546C12.8523 81.2691 12.1877 81.6855 11.4014 82.0036C10.6244 82.3217 9.69769 82.4808 8.62125 82.4808Z" fill="#22272B"/>
<path d="M110.164 49.1201V34.6088H112.635V37.4016C112.879 36.7093 113.22 36.1385 113.66 35.6894C114.1 35.231 114.601 34.8895 115.162 34.6649C115.733 34.4404 116.323 34.3281 116.931 34.3281C117.147 34.3281 117.358 34.3422 117.563 34.3702C117.769 34.3983 117.928 34.4451 118.041 34.5106V37.0227C117.9 36.9572 117.718 36.9151 117.493 36.8964C117.277 36.8683 117.095 36.8543 116.945 36.8543C116.365 36.8169 115.822 36.8543 115.317 36.9665C114.811 37.0695 114.367 37.2519 113.983 37.5139C113.599 37.7759 113.295 38.1221 113.07 38.5524C112.854 38.9734 112.747 39.4881 112.747 40.0962V49.1201H110.164Z" fill="#22272B"/>
<path d="M98.7133 49.4008C97.7678 49.4008 96.9348 49.2371 96.214 48.9096C95.5026 48.5728 94.941 48.091 94.5291 47.4641C94.1266 46.8373 93.9253 46.0794 93.9253 45.1906C93.9253 43.5814 94.4869 42.3837 95.6102 41.5978C96.7335 40.8119 98.5355 40.3909 101.016 40.3348L103.6 40.2646V39.1278C103.6 38.239 103.333 37.5373 102.8 37.0227C102.266 36.4988 101.442 36.2368 100.328 36.2368C99.4949 36.2462 98.7602 36.4427 98.1236 36.8262C97.487 37.2098 97.0798 37.8367 96.902 38.7068H94.6133C94.6695 37.7619 94.9315 36.9666 95.3996 36.321C95.877 35.6661 96.5463 35.1702 97.4075 34.8334C98.2687 34.4965 99.2843 34.3281 100.455 34.3281C101.719 34.3281 102.767 34.506 103.6 34.8614C104.442 35.217 105.069 35.741 105.482 36.4333C105.903 37.1256 106.113 37.977 106.113 38.9875V49.1201H103.895L103.698 46.3975C103.146 47.5297 102.435 48.3156 101.564 48.7553C100.703 49.1857 99.7524 49.4008 98.7133 49.4008ZM99.4856 47.5343C99.9814 47.5343 100.469 47.4455 100.946 47.2676C101.433 47.0899 101.873 46.8513 102.266 46.5519C102.668 46.2431 102.991 45.9017 103.235 45.5274C103.478 45.1439 103.6 44.7509 103.6 44.3485V41.8645L101.452 41.9066C100.337 41.9253 99.4107 42.0376 98.6712 42.2434C97.9317 42.4493 97.3747 42.7721 97.0003 43.2118C96.6259 43.6515 96.4387 44.2269 96.4387 44.938C96.4387 45.7519 96.7242 46.3882 97.2952 46.8466C97.8661 47.3051 98.5963 47.5343 99.4856 47.5343Z" fill="#22272B"/>
<path d="M84.1929 49.1201V34.6088H86.6641V37.4016C86.9075 36.7093 87.2491 36.1385 87.6891 35.6894C88.1291 35.231 88.6299 34.8895 89.1915 34.6649C89.7625 34.4404 90.3522 34.3281 90.9607 34.3281C91.176 34.3281 91.3866 34.3422 91.5925 34.3702C91.7984 34.3983 91.9576 34.4451 92.0699 34.5106V37.0227C91.9295 36.9572 91.747 36.9151 91.5223 36.8964C91.307 36.8683 91.1245 36.8543 90.9747 36.8543C90.3943 36.8169 89.8514 36.8543 89.346 36.9665C88.8405 37.0695 88.3959 37.2519 88.0121 37.5139C87.6282 37.7759 87.324 38.1221 87.0994 38.5524C86.884 38.9734 86.7764 39.4881 86.7764 40.0962V49.1201H84.1929Z" fill="#22272B"/>
<path d="M78.5995 49.1896C77.5978 49.1896 76.8209 49.0538 76.2687 48.7826C75.7163 48.5112 75.3279 48.1089 75.1032 47.5756C74.8879 47.0423 74.7803 46.3874 74.7803 45.6109V36.5027H72.4214V34.6081H74.8505L75.4823 30.3838H77.3919V34.594H80.6635V36.5027H77.3919V45.5267C77.3919 46.0412 77.4434 46.4201 77.5464 46.6634C77.6587 46.8973 77.8413 47.047 78.094 47.1125C78.3467 47.178 78.7024 47.2108 79.1611 47.2108H80.7478V48.951C80.5698 49.0165 80.2985 49.0726 79.9334 49.1194C79.5776 49.1661 79.133 49.1896 78.5995 49.1896Z" fill="#22272B"/>
<path d="M64.5973 49.4008C63.5863 49.4008 62.6455 49.2464 61.775 48.9377C60.9138 48.6196 60.1977 48.1284 59.6267 47.4641C59.0557 46.7905 58.7 45.9344 58.5596 44.8959H60.9185C61.0401 45.4666 61.2742 45.9438 61.6205 46.3273C61.9669 46.7017 62.3928 46.9869 62.8983 47.1834C63.4131 47.3706 63.9747 47.4641 64.5832 47.4641C65.5661 47.4641 66.3571 47.2817 66.9562 46.9168C67.5552 46.5519 67.8548 45.9905 67.8548 45.2327C67.8548 44.6994 67.6956 44.2737 67.3774 43.9556C67.0685 43.6282 66.5818 43.3896 65.9171 43.2398L62.9123 42.496C61.7422 42.2153 60.8062 41.7757 60.1041 41.1768C59.4114 40.578 59.0603 39.7407 59.051 38.6647C59.051 37.8133 59.2569 37.0648 59.6688 36.4192C60.0807 35.7736 60.6938 35.2638 61.5082 34.8895C62.3319 34.5153 63.3569 34.3281 64.5832 34.3281C66.1651 34.3281 67.4383 34.6837 68.4024 35.3947C69.3665 36.0964 69.872 37.1303 69.9188 38.4963H67.6161C67.5225 37.804 67.2136 37.2567 66.6894 36.8543C66.1651 36.4427 65.4538 36.2368 64.5551 36.2368C63.6377 36.2368 62.8842 36.4239 62.2945 36.7981C61.7141 37.163 61.424 37.7338 61.424 38.5103C61.424 39.025 61.6299 39.432 62.0418 39.7313C62.463 40.0214 63.0715 40.2646 63.8671 40.4611L66.7877 41.1908C67.4523 41.3687 68.0045 41.6025 68.4445 41.8925C68.8845 42.1827 69.2308 42.5054 69.4836 42.8609C69.7363 43.2165 69.9141 43.5907 70.0171 43.9836C70.1295 44.3673 70.1856 44.7369 70.1856 45.0923C70.1856 45.9812 69.9657 46.7484 69.5257 47.3939C69.0857 48.0302 68.4492 48.5261 67.6161 48.8816C66.783 49.2278 65.7767 49.4008 64.5973 49.4008Z" fill="#22272B"/>
<path d="M52.5062 49.1192V34.6079H55.0196V49.1192H52.5062ZM52.436 31.5344V28.8398H55.0898V31.5344H52.436Z" fill="#22272B"/>
<path d="M41.1028 53.9194C38.8281 53.9194 37.0542 53.5872 35.7812 52.923C34.508 52.268 33.8716 51.3277 33.8716 50.1021C33.8716 49.5781 33.9932 49.1338 34.2367 48.7689C34.48 48.3946 34.7702 48.0858 35.1072 47.8426C35.4442 47.5993 35.7577 47.4075 36.048 47.2672C36.3381 47.1174 36.53 47.0099 36.6236 46.9444C36.4552 46.8508 36.2539 46.7339 36.0199 46.5936C35.7858 46.4532 35.5752 46.2661 35.388 46.0322C35.2101 45.7982 35.1212 45.4942 35.1212 45.12C35.1212 44.6615 35.3365 44.2404 35.7671 43.8569C36.1977 43.4733 36.8389 43.1879 37.6908 43.0008C36.8389 42.5704 36.1743 41.9997 35.6969 41.2887C35.2195 40.5775 34.9808 39.8056 34.9808 38.973C34.9808 38.0373 35.2336 37.2234 35.7391 36.5311C36.2445 35.8387 36.97 35.3101 37.9154 34.9452C38.8608 34.5709 39.9888 34.3838 41.2993 34.3838C42.2447 34.3838 43.0357 34.4961 43.6723 34.7207C44.3182 34.9358 44.9172 35.2445 45.4696 35.6469C45.6193 35.5814 45.858 35.4831 46.1856 35.3522C46.5132 35.2119 46.869 35.0621 47.2528 34.9031C47.6459 34.744 48.011 34.5944 48.348 34.454C48.6943 34.3042 48.9704 34.192 49.1764 34.1172L49.1624 36.517L46.6209 36.9942C46.7707 37.2935 46.8877 37.621 46.9719 37.9766C47.0562 38.3321 47.0983 38.6643 47.0983 38.973C47.0983 39.8244 46.8737 40.5963 46.4243 41.2887C45.9844 41.9809 45.3151 42.533 44.4165 42.9447C43.5178 43.3563 42.3945 43.5622 41.0466 43.5622C40.9343 43.5622 40.7891 43.5622 40.6113 43.5622C40.4428 43.5528 40.2977 43.5434 40.176 43.5341C39.1837 43.5622 38.5004 43.6745 38.126 43.8709C37.761 44.058 37.5784 44.2685 37.5784 44.5025C37.5784 44.7737 37.7891 44.9609 38.2103 45.0638C38.6315 45.1667 39.3429 45.2556 40.3445 45.3305C40.7096 45.3491 41.1589 45.3726 41.6925 45.4007C42.2354 45.4287 42.8391 45.4661 43.5038 45.5129C45.0202 45.6065 46.1903 45.9947 47.0141 46.6778C47.8378 47.3607 48.2497 48.2823 48.2497 49.4425C48.2497 50.7617 47.66 51.8376 46.4805 52.6704C45.3104 53.503 43.5178 53.9194 41.1028 53.9194ZM41.5661 52.2493C42.9046 52.2493 43.9296 52.0481 44.6411 51.6459C45.3618 51.2435 45.7223 50.6354 45.7223 49.8214C45.7223 49.2413 45.5022 48.7689 45.0624 48.404C44.6224 48.0297 43.9577 47.8145 43.0685 47.7584L38.9966 47.4918C38.6315 47.473 38.2524 47.5665 37.8593 47.7724C37.4661 47.9689 37.1337 48.2449 36.8623 48.6005C36.5908 48.9559 36.4551 49.3583 36.4551 49.8074C36.4551 50.5746 36.8717 51.1733 37.7048 51.6038C38.5379 52.0341 39.825 52.2493 41.5661 52.2493ZM41.1308 41.8921C42.1699 41.8921 43.0076 41.6488 43.6442 41.1623C44.2901 40.6758 44.613 39.9554 44.613 39.0011C44.613 38.0187 44.2901 37.2702 43.6442 36.7556C43.0076 36.241 42.1699 35.9837 41.1308 35.9837C40.0637 35.9837 39.2025 36.2457 38.5473 36.7696C37.9014 37.2842 37.5784 38.028 37.5784 39.0011C37.5784 39.9179 37.8873 40.629 38.5052 41.1343C39.1323 41.6395 40.0076 41.8921 41.1308 41.8921Z" fill="#22272B"/>
<path d="M25.3067 49.4008C23.9587 49.4008 22.7699 49.1061 21.7402 48.5167C20.7105 47.9272 19.9055 47.0806 19.3251 45.9765C18.7447 44.8725 18.4546 43.5486 18.4546 42.0048C18.4546 40.4798 18.7167 39.1418 19.2409 37.991C19.7651 36.8402 20.5233 35.9421 21.5156 35.2965C22.5172 34.6509 23.72 34.3281 25.1241 34.3281C26.4908 34.3281 27.6468 34.6228 28.5923 35.2123C29.5377 35.8017 30.2538 36.6344 30.7406 37.7104C31.2367 38.777 31.4848 40.0447 31.4848 41.5136V42.4679H21.0803C21.0803 43.3849 21.23 44.2176 21.5296 44.966C21.8385 45.7052 22.3019 46.2947 22.9197 46.7343C23.5375 47.1741 24.3191 47.3939 25.2645 47.3939C26.1912 47.3939 26.9869 47.1788 27.6515 46.7484C28.3255 46.318 28.7561 45.6958 28.9433 44.8818H31.3865C31.218 45.8642 30.8248 46.6922 30.207 47.3659C29.5985 48.0395 28.8638 48.5495 28.0026 48.8956C27.1508 49.2324 26.2521 49.4008 25.3067 49.4008ZM21.0943 40.7137H28.9854C28.9854 39.881 28.845 39.1325 28.5642 38.4682C28.2834 37.7946 27.8528 37.266 27.2724 36.8823C26.7014 36.4894 25.9806 36.2929 25.1101 36.2929C24.2021 36.2929 23.4485 36.5128 22.8495 36.9525C22.2504 37.383 21.8057 37.9396 21.5156 38.6226C21.2254 39.2962 21.085 39.9933 21.0943 40.7137Z" fill="#22272B"/>
<path d="M1.16553 49.1186V28.8252H9.02856C10.4888 28.8252 11.7104 29.0497 12.6933 29.4988C13.6761 29.9385 14.411 30.5748 14.8977 31.4075C15.3846 32.2308 15.6279 33.2179 15.6279 34.3687C15.6279 35.4727 15.4313 36.3896 15.0381 37.1194C14.6544 37.8492 14.1629 38.4386 13.5638 38.8877C12.9648 39.3274 12.3422 39.6689 11.6963 39.9122L15.684 49.1186H12.932L9.22513 40.3753H3.76313V49.1186H1.16553ZM3.76313 38.2281H8.18609C9.71194 38.2281 10.8913 37.9193 11.7244 37.3018C12.5576 36.6749 12.9741 35.7487 12.9741 34.5231C12.9741 33.3255 12.5997 32.432 11.8508 31.8425C11.1113 31.2437 10.0957 30.9444 8.8039 30.9444H3.76313V38.2281Z" fill="#22272B"/>
</svg>
