<svg width="52" height="52" viewBox="0 0 52 52" fill="none" xmlns="http://www.w3.org/2000/svg">
<g id="Train Icon" filter="url(#filter0_d_852_2198)">
<path id="Vector" d="M24.5315 46.0189C21.811 45.8266 19.1043 45.0876 16.6695 43.8718C10.163 40.6228 5.81918 34.38 5.05557 27.1807C4.93929 26.0846 4.93988 23.9403 5.05695 22.8267C5.48578 18.7449 6.99169 15.1008 9.62711 11.7679C10.2477 10.983 12.022 9.21668 12.8576 8.55195C15.909 6.12449 19.4559 4.62247 23.3798 4.09599C24.542 3.94004 27.0685 3.90826 28.1647 4.03585C33.055 4.60526 37.2462 6.56782 40.674 9.89342C43.7646 12.8917 45.8596 16.7287 46.683 20.8985C46.9813 22.4102 47.0454 23.1294 47.0454 24.9774C47.0454 27.1355 46.9116 28.2923 46.4491 30.128C45.1156 35.4217 41.8137 39.9436 37.1296 42.891C36.2271 43.4589 34.3859 44.3695 33.3975 44.7368C30.5771 45.7848 27.5067 46.2289 24.5315 46.0189ZM28.1867 38.9431C28.5764 38.8314 28.548 39.6818 28.5497 28.1186L28.5516 17.5642H32.01C34.3735 17.5642 35.5065 17.5416 35.5886 17.5002C35.8484 17.3612 35.8774 17.1395 35.8774 15.3125C35.8774 13.5396 35.849 13.2694 35.6369 13.1568C35.5671 13.1171 32.0981 13.0984 25.9916 13.0984H16.4556L16.3093 13.2447L16.163 13.3911V17.2166L16.3371 17.3907L16.5112 17.5647H23.4294V28.0407C23.4294 34.8271 23.4521 38.5716 23.4884 38.6722C23.6036 38.9756 23.7572 38.996 25.961 38.9983C27.0882 38.9996 28.0754 38.9772 28.1867 38.9431Z" fill="#F47913"/>
<path id="Vector_2" d="M24.2648 49.9538C17.2912 49.4463 10.8585 46.0621 6.4722 40.5932C4.64792 38.3186 3.16803 35.5843 2.23562 32.7655C-0.0991055 25.7076 0.911629 17.8123 4.95553 11.5204C6.54236 9.05135 8.67051 6.76158 11.0127 5.00323C14.1307 2.6623 17.8083 1.05764 21.5846 0.390348C24.209 -0.0735265 26.9815 -0.125127 29.536 0.241776C36.589 1.25504 42.8693 5.21558 46.8067 11.1333C49.0142 14.4512 50.2887 17.8508 50.8352 21.8801C51.0127 23.1876 51.0553 25.8643 50.9214 27.27C50.4438 32.2811 48.6329 36.7298 45.4442 40.7272C44.6571 41.7139 42.6639 43.7001 41.6567 44.5015C40.7897 45.1914 39.1605 46.298 38.2843 46.7923C35.8405 48.1707 32.9947 49.1805 30.2196 49.6539C28.4966 49.9477 25.9469 50.0763 24.2648 49.9538ZM27.3322 46.0243C30.2225 45.8298 32.6747 45.1766 35.2538 43.9141C38.6811 42.2364 41.4731 39.7877 43.5787 36.6126C45.4514 33.7887 46.5224 30.8551 46.9677 27.3296C47.0908 26.3551 47.0739 23.4526 46.9394 22.4469C46.2799 17.5243 44.1581 13.272 40.6758 9.89356C37.2479 6.56796 33.0567 4.6054 28.1664 4.03599C27.0702 3.9084 24.5437 3.94018 23.3815 4.09613C19.4577 4.62239 15.9109 6.12463 12.8594 8.55209C12.0238 9.21682 10.2495 10.9832 9.62886 11.768C7.35023 14.6497 5.93225 17.7278 5.29473 21.1762C4.86194 23.5171 4.8517 26.3706 5.26635 28.6993C6.95834 38.163 14.9438 45.3421 24.5314 46.019C25.5578 46.0916 26.3143 46.0926 27.3322 46.0243ZM23.7433 38.9114C23.6355 38.8661 23.5232 38.7583 23.4903 38.6716C23.4506 38.5706 23.4312 34.8265 23.4312 28.0401V17.5641H16.5131L16.3389 17.39L16.1648 17.2159V13.3904L16.3112 13.2441L16.4575 13.0978H25.9938C32.1003 13.0978 35.5693 13.1205 35.639 13.1562C35.8495 13.269 35.8796 13.539 35.8796 15.3119C35.8796 17.1389 35.8512 17.3605 35.5908 17.4995C35.5086 17.5448 34.3756 17.5636 32.0121 17.5636H28.5538L28.5519 28.1179C28.5498 39.6811 28.5802 38.8307 28.1888 38.9424C28.0776 38.9764 27.0908 38.9992 25.9635 38.9992C24.3517 38.9974 23.8977 38.9812 23.7433 38.9114Z" fill="white"/>
</g>
<defs>
<filter id="filter0_d_852_2198" x="0" y="0" width="52" height="51.9999" filterUnits="userSpaceOnUse" color-interpolation-filters="sRGB">
<feFlood flood-opacity="0" result="BackgroundImageFix"/>
<feColorMatrix in="SourceAlpha" type="matrix" values="0 0 0 0 0 0 0 0 0 0 0 0 0 0 0 0 0 0 127 0" result="hardAlpha"/>
<feOffset dy="1"/>
<feGaussianBlur stdDeviation="0.5"/>
<feComposite in2="hardAlpha" operator="out"/>
<feColorMatrix type="matrix" values="0 0 0 0 0 0 0 0 0 0 0 0 0 0 0 0 0 0 0.25 0"/>
<feBlend mode="normal" in2="BackgroundImageFix" result="effect1_dropShadow_852_2198"/>
<feBlend mode="normal" in="SourceGraphic" in2="effect1_dropShadow_852_2198" result="shape"/>
</filter>
</defs>
</svg>
