<svg width="15" height="25" viewBox="0 0 15 25" fill="none" xmlns="http://www.w3.org/2000/svg">
<path d="M4.0222 16.918L6.11167 19.0074L4.30596 23.8829C4.09959 24.4246 3.58367 24.7599 3.04196 24.7599C2.88718 24.7599 2.73241 24.7341 2.57763 24.6825C1.88115 24.4246 1.52 23.6507 1.77796 22.9542L4.0222 16.918Z" fill="#22272B"/>
<path d="M0.126532 11.5774L1.36473 9.20418C1.70008 8.58508 2.1902 8.06916 2.78351 7.70802C5.64685 6.00549 6.00799 6.03129 6.36913 6.05708L8.30382 6.18606C8.89713 6.21186 9.30986 6.36664 11.2961 9.28157C11.3735 9.38475 11.4767 9.46214 11.6315 9.48794L14.0047 9.84908C14.6496 9.95226 15.0881 10.5456 14.985 11.1905C14.8818 11.8354 14.2885 12.2739 13.6436 12.1707L11.2704 11.8096C10.4965 11.6806 9.79999 11.2679 9.36146 10.623C9.25827 10.4682 9.18088 10.3392 9.0777 10.2102L7.55574 15.0341L9.67101 17.1493C9.98056 17.4589 10.2385 17.8716 10.3933 18.2843L12.0184 23.0308C12.2764 23.7273 11.8895 24.5011 11.193 24.7333C11.0382 24.7849 10.9092 24.8107 10.7544 24.8107C10.1869 24.8107 9.67101 24.4495 9.46464 23.9078L7.8395 19.1614C7.8137 19.1098 7.78791 19.084 7.76211 19.0324L3.99591 15.2404C3.4542 14.6987 3.24783 13.9506 3.40261 13.2283L4.22808 9.56532C4.15069 9.61692 4.0733 9.66851 3.97012 9.7201C3.73795 9.84908 3.55738 10.0554 3.4284 10.2876L2.1902 12.6608C1.98383 13.0478 1.5711 13.2799 1.15837 13.2799C0.977796 13.2799 0.797224 13.2283 0.616653 13.151C0.0491438 12.8414 -0.157223 12.1449 0.126532 11.5774Z" fill="#22272B"/>
<path d="M10.3236 3.15348C10.4793 1.72306 9.44594 0.437256 8.01551 0.281565C6.58509 0.125875 5.29929 1.15925 5.1436 2.58967C4.98791 4.0201 6.02128 5.3059 7.45171 5.46159C8.88213 5.61728 10.1679 4.5839 10.3236 3.15348Z" fill="#22272B"/>
</svg>
