<svg width="52" height="52" viewBox="0 0 52 52" fill="none" xmlns="http://www.w3.org/2000/svg">
<g id="Walking Icon">
<g id="Ellipse 11" filter="url(#filter0_d_821_2889)">
<circle cx="26" cy="25" r="25" fill="#22272B"/>
<circle cx="26" cy="25" r="23" stroke="white" stroke-width="4"/>
</g>
<g id="Group">
<g id="Group_2">
<path id="Vector" d="M23.0229 29.9175L25.1124 32.007L23.3067 36.8824C23.1003 37.4241 22.5844 37.7595 22.0427 37.7595C21.8879 37.7595 21.7331 37.7337 21.5784 37.6821C20.8819 37.4241 20.5207 36.6503 20.7787 35.9538L23.0229 29.9175Z" fill="white"/>
<path id="Vector_2" d="M19.1265 24.5778L20.3647 22.2045C20.7001 21.5854 21.1902 21.0695 21.7835 20.7084C24.6468 19.0059 25.008 19.0317 25.3691 19.0575L27.3038 19.1864C27.8971 19.2122 28.3099 19.367 30.2961 22.2819C30.3735 22.3851 30.4767 22.4625 30.6315 22.4883L33.0047 22.8494C33.6496 22.9526 34.0881 23.5459 33.985 24.1908C33.8818 24.8357 33.2885 25.2743 32.6436 25.1711L30.2704 24.8099C29.4965 24.681 28.8 24.2682 28.3615 23.6233C28.2583 23.4685 28.1809 23.3396 28.0777 23.2106L26.5557 28.0344L28.671 30.1497C28.9806 30.4592 29.2385 30.872 29.3933 31.2847L31.0184 36.0311C31.2764 36.7276 30.8895 37.5015 30.193 37.7337C30.0382 37.7853 29.9092 37.8111 29.7544 37.8111C29.1869 37.8111 28.671 37.4499 28.4646 36.9082L26.8395 32.1618C26.8137 32.1102 26.7879 32.0844 26.7621 32.0328L22.9959 28.2408C22.4542 27.6991 22.2478 26.951 22.4026 26.2287L23.2281 22.5657C23.1507 22.6173 23.0733 22.6689 22.9701 22.7205C22.738 22.8494 22.5574 23.0558 22.4284 23.288L21.1902 25.6612C20.9838 26.0481 20.5711 26.2803 20.1584 26.2803C19.9778 26.2803 19.7972 26.2287 19.6167 26.1513C19.0491 25.8418 18.8428 25.1453 19.1265 24.5778Z" fill="white"/>
<path id="Vector_3" d="M29.3233 16.1538C29.4789 14.7234 28.4456 13.4376 27.0151 13.2819C25.5847 13.1262 24.2989 14.1596 24.1432 15.59C23.9875 17.0204 25.0209 18.3062 26.4513 18.4619C27.8818 18.6176 29.1676 17.5842 29.3233 16.1538Z" fill="white"/>
</g>
</g>
</g>
<defs>
<filter id="filter0_d_821_2889" x="0" y="0" width="52" height="52" filterUnits="userSpaceOnUse" color-interpolation-filters="sRGB">
<feFlood flood-opacity="0" result="BackgroundImageFix"/>
<feColorMatrix in="SourceAlpha" type="matrix" values="0 0 0 0 0 0 0 0 0 0 0 0 0 0 0 0 0 0 127 0" result="hardAlpha"/>
<feOffset dy="1"/>
<feGaussianBlur stdDeviation="0.5"/>
<feComposite in2="hardAlpha" operator="out"/>
<feColorMatrix type="matrix" values="0 0 0 0 0 0 0 0 0 0 0 0 0 0 0 0 0 0 0.25 0"/>
<feBlend mode="normal" in2="BackgroundImageFix" result="effect1_dropShadow_821_2889"/>
<feBlend mode="normal" in="SourceGraphic" in2="effect1_dropShadow_821_2889" result="shape"/>
</filter>
</defs>
</svg>
